<?xml version="1.0" encoding="utf-8"?>
<svg viewBox="0 0 58.299 31.303" xmlns="http://www.w3.org/2000/svg">
  <path d="M 7.275 12.006 L 7.275 7.526 C 7.275 6.779 7.462 6.086 7.835 5.446 C 8.208 4.799 8.712 4.289 9.345 3.916 C 9.978 3.543 10.678 3.356 11.445 3.356 L 11.445 4.366 C 10.585 4.366 9.842 4.673 9.215 5.286 C 8.588 5.906 8.275 6.653 8.275 7.526 L 8.275 12.006 C 8.275 12.773 8.082 13.483 7.695 14.136 C 7.302 14.789 6.778 15.293 6.125 15.646 C 6.778 15.999 7.302 16.503 7.695 17.156 C 8.082 17.809 8.275 18.529 8.275 19.316 L 8.275 23.796 C 8.275 24.656 8.588 25.393 9.215 26.006 C 9.842 26.626 10.585 26.936 11.445 26.936 L 11.445 27.966 C 10.678 27.966 9.978 27.779 9.345 27.406 C 8.712 27.033 8.208 26.526 7.835 25.886 C 7.462 25.239 7.275 24.543 7.275 23.796 L 7.275 19.316 C 7.275 18.456 6.965 17.719 6.345 17.106 C 5.732 16.486 4.985 16.176 4.105 16.176 L 4.105 15.146 C 4.965 15.146 5.708 14.836 6.335 14.216 C 6.962 13.603 7.275 12.866 7.275 12.006 ZM 20.623 27.826 L 20.623 8.336 L 21.743 8.336 L 28.553 20.376 L 35.323 8.336 L 36.363 8.336 L 36.363 27.826 L 20.623 27.826 Z M 21.663 10.276 L 21.663 26.816 L 35.323 26.816 L 35.323 10.436 L 29.023 21.526 L 28.043 21.526 L 21.663 10.276 ZM 45.541 26.936 C 46.421 26.936 47.168 26.626 47.781 26.006 C 48.401 25.393 48.711 24.656 48.711 23.796 L 48.711 19.316 C 48.711 18.529 48.905 17.809 49.291 17.156 C 49.685 16.503 50.208 15.999 50.861 15.646 C 50.208 15.293 49.685 14.789 49.291 14.136 C 48.905 13.483 48.711 12.773 48.711 12.006 L 48.711 7.526 C 48.711 6.653 48.401 5.906 47.781 5.286 C 47.168 4.673 46.421 4.366 45.541 4.366 L 45.541 3.356 C 46.308 3.356 47.008 3.543 47.641 3.916 C 48.275 4.289 48.778 4.793 49.151 5.426 C 49.525 6.059 49.711 6.759 49.711 7.526 L 49.711 12.006 C 49.711 12.866 50.025 13.603 50.651 14.216 C 51.278 14.836 52.021 15.146 52.881 15.146 L 52.881 16.176 C 52.001 16.176 51.255 16.486 50.641 17.106 C 50.021 17.719 49.711 18.456 49.711 19.316 L 49.711 23.796 C 49.711 24.543 49.525 25.239 49.151 25.886 C 48.778 26.526 48.275 27.033 47.641 27.406 C 47.008 27.779 46.308 27.966 45.541 27.966 L 45.541 26.936 Z" transform="matrix(1, 0, 0, 1, 0, 0)" style="fill: rgb(126, 101, 188); text-transform: uppercase; white-space: pre;"/>
</svg>