<?xml version="1.0" encoding="utf-8"?>
<svg viewBox="252.612 108.939 16 16" width="16" height="16" xmlns="http://www.w3.org/2000/svg">
  <g transform="matrix(0.395804, 0, 0, 0.395805, 150.731964, 63.925339)">
    <rect x="257.4" y="113.727" width="40.424" height="40.424" rx="5" ry="5" style="fill: rgb(247, 247, 247);"/>
    <path d="M 268.997 142.724 L 268.997 140.824 L 270.967 140.824 C 272.067 138.184 273.174 135.574 274.287 132.994 C 275.4 130.407 276.51 127.794 277.617 125.154 C 278.717 127.794 279.824 130.407 280.937 132.994 C 282.05 135.574 283.157 138.184 284.257 140.824 L 286.227 140.824 L 286.227 142.724 L 280.897 142.724 L 280.897 140.824 L 282.247 140.824 C 281.907 140.024 281.574 139.234 281.247 138.454 C 280.92 137.667 280.59 136.874 280.257 136.074 L 274.977 136.074 L 272.957 140.824 L 274.327 140.824 L 274.327 142.724 L 268.997 142.724 Z M 279.437 134.184 L 277.827 130.364 L 277.587 129.574 C 277.574 129.607 277.557 129.664 277.537 129.744 C 277.524 129.824 277.5 129.911 277.467 130.004 C 277.434 130.117 277.394 130.237 277.347 130.364 C 277.14 130.831 276.95 131.287 276.777 131.734 C 276.617 132.114 276.447 132.531 276.267 132.984 C 276.094 133.431 275.934 133.831 275.787 134.184 L 279.437 134.184 Z" style="white-space: pre; fill: rgb(239, 79, 92);"/>
  </g>
</svg>