<?xml version="1.0" encoding="utf-8"?>
<svg viewBox="252.612 108.939 16 16" width="16" height="16" xmlns="http://www.w3.org/2000/svg">
  <g transform="matrix(0.395804, 0, 0, 0.395805, 150.731964, 63.925339)">
    <rect x="257.4" y="113.727" width="40.424" height="40.424" rx="5" ry="5" style="fill: rgb(247, 247, 247);"/>
    <path d="M 264.231 142.614 L 264.231 140.714 L 266.201 140.714 C 267.301 138.074 268.408 135.464 269.521 132.884 C 270.634 130.297 271.744 127.684 272.851 125.044 C 273.951 127.684 275.058 130.297 276.171 132.884 C 277.284 135.464 278.391 138.074 279.491 140.714 L 281.461 140.714 L 281.461 142.614 L 276.131 142.614 L 276.131 140.714 L 277.481 140.714 C 277.141 139.914 276.808 139.124 276.481 138.344 C 276.154 137.557 275.824 136.764 275.491 135.964 L 270.211 135.964 L 268.191 140.714 L 269.561 140.714 L 269.561 142.614 L 264.231 142.614 Z M 274.671 134.074 L 273.061 130.254 L 272.821 129.464 C 272.808 129.497 272.791 129.554 272.771 129.634 C 272.758 129.714 272.734 129.801 272.701 129.894 C 272.668 130.007 272.628 130.127 272.581 130.254 C 272.374 130.721 272.184 131.177 272.011 131.624 C 271.851 132.004 271.681 132.421 271.501 132.874 C 271.328 133.321 271.168 133.721 271.021 134.074 L 274.671 134.074 Z M 289.743 140.284 L 290.943 141.794 C 290.53 142.114 290.07 142.367 289.563 142.554 C 289.056 142.741 288.516 142.834 287.943 142.834 C 287.27 142.834 286.643 142.707 286.063 142.454 C 285.476 142.207 284.966 141.867 284.533 141.434 C 284.1 141.007 283.76 140.507 283.513 139.934 C 283.266 139.367 283.143 138.757 283.143 138.104 C 283.143 137.464 283.266 136.854 283.513 136.274 C 283.76 135.701 284.1 135.201 284.533 134.774 C 284.966 134.354 285.476 134.021 286.063 133.774 C 286.643 133.521 287.27 133.394 287.943 133.394 C 288.536 133.394 289.09 133.487 289.603 133.674 C 290.11 133.861 290.573 134.114 290.993 134.434 L 290.993 137.214 L 289.213 137.214 L 289.213 135.604 C 288.813 135.431 288.39 135.344 287.943 135.344 C 287.11 135.344 286.433 135.604 285.913 136.124 C 285.393 136.644 285.133 137.304 285.133 138.104 C 285.133 138.884 285.393 139.544 285.913 140.084 C 286.433 140.617 287.11 140.884 287.943 140.884 C 288.65 140.884 289.25 140.684 289.743 140.284 Z" style="white-space: pre; fill: rgb(239, 79, 92);"/>
  </g>
</svg>