<?xml version="1.0" encoding="utf-8"?>
<svg viewBox="-64.464 -98.25 82.692 154.908" width="82.692" height="154.908" xmlns="http://www.w3.org/2000/svg">
  <g transform="matrix(1, 0, 0, 1, -76.712997, -65.344002)">
    <title>alpaca</title>
    <path d="M 87.807 39.067 A 35.61 44.95 0 0 1 52.197 84.017 A 35.61 44.95 0 0 1 16.587 39.067 A 35.61 44.95 0 0 1 52.197 -5.883 A 35.61 44.95 0 0 1 87.807 39.067 Z" style="fill: rgb(245, 224, 183); stroke-linecap: round; stroke-linejoin: round;"/>
    <g transform="matrix(1, 0, 0, 1, 9.019, 8.032)">
      <title>orelhas</title>
      <path style="stroke-linecap: round; stroke-linejoin: round; fill: rgb(245, 224, 183);" d="M 54.854 -6.91 C 54.854 -6.91 75.723 -57.309 80.54 -34.931 C 85.357 -12.553 67.697 0.095 67.113 0.095 C 66.529 0.095 55.195 -2.969 54.854 -6.91 Z"/>
      <path style="stroke-linecap: round; stroke-linejoin: round; fill: rgb(245, 224, 183);" d="M 3.597 -34.241 C 3.597 -34.241 24.223 14.943 29.283 -6.22 C 34.343 -27.383 16.44 -41.246 15.856 -41.246 C 15.272 -41.246 4.181 -50.586 3.597 -34.241 Z" transform="matrix(-1, 0, 0, -1, 36.471386, -41.826496)"/>
      <path style="fill: rgb(102, 78, 76);" d="M 67.343 -2.832 C 60.004 -7.37 80.779 -5.307 76.15 -32.865 C 74.794 -51.156 82.359 -30.72 82.359 -30.72 C 82.458 -30.752 91.098 -7.495 68.697 0.103 L 67.343 -2.832 Z"/>
      <path style="fill: rgb(102, 78, 76);" d="M 5.389 -38.003 C -1.95 -33.465 18.825 -35.528 14.196 -7.97 C 12.84 10.321 20.405 -10.115 20.405 -10.115 C 20.504 -10.083 29.144 -33.34 6.743 -40.938 L 5.389 -38.003 Z" transform="matrix(-1, 0, 0, -1, 25.927813, -41.299797)"/>
    </g>
    <g transform="matrix(1, 0, 0, 1, 10.013894, 8.032)">
      <title>olhos</title>
      <g transform="matrix(1, 0, 0, 1, -123.834808, -154.766464)">
        <path d="M 159.32 177.69 A 3.614 5.352 0 0 1 155.706 183.042 A 3.614 5.352 0 0 1 152.092 177.69 A 3.614 5.352 0 0 1 155.706 172.338 A 3.614 5.352 0 0 1 159.32 177.69 Z" style="fill: rgb(102, 78, 76);"/>
        <path style="paint-order: stroke markers; fill: none; stroke: rgb(102, 78, 76);" d="M 155.177 174.315 C 157.118 174.316 158.846 173.089 159.487 171.257"/>
        <path style="paint-order: stroke markers; fill: none; stroke: rgb(102, 78, 76);" d="M 152.956 173.945 C 154.897 173.946 156.625 172.719 157.266 170.887" transform="matrix(0.866025, -0.5, 0.5, 0.866025, -65.427078, 100.654899)"/>
      </g>
      <g transform="matrix(1, 0, 0, 1, -100.413261, -155.089859)">
        <path d="M 159.32 177.69 A 3.614 5.352 0 0 1 155.706 183.042 A 3.614 5.352 0 0 1 152.092 177.69 A 3.614 5.352 0 0 1 155.706 172.338 A 3.614 5.352 0 0 1 159.32 177.69 Z" style="fill: rgb(102, 78, 76);"/>
        <path style="paint-order: stroke markers; fill: none; stroke: rgb(102, 78, 76);" d="M 155.177 174.315 C 157.118 174.316 158.846 173.089 159.487 171.257"/>
        <path style="paint-order: stroke markers; fill: none; stroke: rgb(102, 78, 76);" d="M 152.956 173.945 C 154.897 173.946 156.625 172.719 157.266 170.887" transform="matrix(0.866025, -0.5, 0.5, 0.866025, -65.427078, 100.654899)"/>
      </g>
      <g transform="matrix(1, 0, 0, 1, 67.45768, 57.312004)">
        <g transform="matrix(1, 0, 0, 1, -41.499001, -18.587999)">
          <title>shine</title>
          <circle style="fill: rgb(255, 255, 255);" cx="4.094" cy="-18.449" r="1.29"/>
          <circle style="fill: rgb(255, 255, 255);" cx="4.283" cy="-17.039" r="0.51"/>
        </g>
        <g transform="matrix(1, 0, 0, 1, -17.743818, -18.92511)">
          <title>shine</title>
          <circle style="fill: rgb(255, 255, 255);" cx="4.094" cy="-18.449" r="1.29"/>
          <circle style="fill: rgb(255, 255, 255);" cx="4.283" cy="-17.039" r="0.51"/>
        </g>
      </g>
    </g>
    <g transform="matrix(1, 0, 0, 1, 9.019, 8.032)">
      <title>nariz e boca</title>
      <path style="fill: none; stroke-linejoin: round; stroke-linecap: round; stroke: rgb(102, 78, 76); visibility: hidden;" d="M 44.192 34.743 C 44.192 34.743 47.997 41.56 53.194 35.246"/>
      <path style="fill: none; stroke-linejoin: round; stroke-linecap: round; stroke: rgb(102, 78, 76); visibility: hidden;" d="M 37.658 35.663 C 37.658 35.663 41.463 28.846 46.66 35.16" transform="matrix(-1, 0, 0, -1, 81.755001, 70.440418)"/>
      <path d="M 41.59 32.448 C 43.581 30.758 45.571 30.758 47.561 32.448 L 47.561 32.448 C 49.552 34.138 48.557 34.982 44.576 34.982 L 44.576 34.982 C 40.596 34.982 39.6 34.138 41.59 32.448 Z" style="stroke-linejoin: round; stroke-linecap: round; fill: rgb(239, 176, 161);" transform="matrix(-1, 0.000001, -0.000001, -1, 89.151961, 66.162454)"/>
      <ellipse style="fill: rgb(102, 78, 76);" cx="44.576" cy="39.394" rx="1.561" ry="2.257"/>
    </g>
    <g transform="matrix(1, 0, 0, 1, 8.278, 31.735998)">
      <title>guizo</title>
      <path style="stroke-width: 6px; stroke: rgb(244, 201, 132); fill: rgb(56, 209, 239);" d="M 10.581 35.497 L 80.184 34.84 C 80.184 34.84 70.991 65.046 44.397 85.402 C 17.475 62.42 11.238 35.826 10.581 35.497 Z"/>
      <path d="M 53.763 50.551 C 53.763 55.216 49.982 58.997 45.317 58.997 C 40.652 58.997 36.871 55.216 36.871 50.551 C 36.871 45.886 40.652 42.105 45.317 42.105 C 49.982 42.105 53.763 45.886 53.763 50.551 Z" style="fill: rgb(244, 201, 132);"/>
      <path d="M 39.573 56.132 L 51.114 45.291" style="stroke-linecap: round; stroke-linejoin: round; stroke-width: 2px; stroke: rgba(102, 78, 76, 0.62);" transform="matrix(0.734313, 0.678811, -0.678811, 0.734313, 46.470709, -17.306282)"/>
      <path d="M 45.547 58.465 L 45.547 55.853" style="stroke-linecap: round; stroke-linejoin: round; stroke: rgba(102, 78, 76, 0.62);"/>
    </g>
    <g transform="matrix(1, 0, 0, 1, 8.278, 31.735998)">
      <title>pelo</title>
      <path d="M 44.143 -31.765 A 10.217 10.217 0 0 1 33.926 -21.548 A 10.217 10.217 0 0 1 23.709 -31.765 A 10.217 10.217 0 0 1 33.926 -41.982 A 10.217 10.217 0 0 1 44.143 -31.765 Z" style="fill: rgb(255, 244, 201);"/>
      <path d="M 29.48 -23.024 A 10.217 10.217 0 0 1 19.263 -12.807 A 10.217 10.217 0 0 1 9.046 -23.024 A 10.217 10.217 0 0 1 19.263 -33.241 A 10.217 10.217 0 0 1 29.48 -23.024 Z" style="fill: rgb(255, 244, 201);"/>
      <path d="M 45.552 -21.897 A 10.217 10.217 0 0 1 35.335 -11.68 A 10.217 10.217 0 0 1 25.118 -21.897 A 10.217 10.217 0 0 1 35.335 -32.114 A 10.217 10.217 0 0 1 45.552 -21.897 Z" style="fill: rgb(255, 244, 201);"/>
      <path d="M 28.917 -14.002 A 10.217 10.217 0 0 1 18.7 -3.785 A 10.217 10.217 0 0 1 8.483 -14.002 A 10.217 10.217 0 0 1 18.7 -24.219 A 10.217 10.217 0 0 1 28.917 -14.002 Z" style="fill: rgb(255, 244, 201);"/>
      <path d="M 24.405 0.66 A 10.217 10.217 0 0 1 14.188 10.877 A 10.217 10.217 0 0 1 3.971 0.66 A 10.217 10.217 0 0 1 14.188 -9.557 A 10.217 10.217 0 0 1 24.405 0.66 Z" style="fill: rgb(255, 244, 201);"/>
      <path d="M 26.943 17.296 A 10.217 10.217 0 0 1 16.726 27.513 A 10.217 10.217 0 0 1 6.509 17.296 A 10.217 10.217 0 0 1 16.726 7.079 A 10.217 10.217 0 0 1 26.943 17.296 Z" style="fill: rgb(255, 244, 201);"/>
      <path d="M 31.736 30.548 A 10.217 10.217 0 0 1 21.519 40.765 A 10.217 10.217 0 0 1 11.302 30.548 A 10.217 10.217 0 0 1 21.519 20.331 A 10.217 10.217 0 0 1 31.736 30.548 Z" style="fill: rgb(255, 244, 201);"/>
      <path d="M 46.238 35.025 A 10.217 10.217 0 0 1 36.021 45.242 A 10.217 10.217 0 0 1 25.804 35.025 A 10.217 10.217 0 0 1 36.021 24.808 A 10.217 10.217 0 0 1 46.238 35.025 Z" style="fill: rgb(255, 244, 201);"/>
      <path d="M 59.086 34.34 A 10.217 10.217 0 0 1 48.869 44.557 A 10.217 10.217 0 0 1 38.652 34.34 A 10.217 10.217 0 0 1 48.869 24.123 A 10.217 10.217 0 0 1 59.086 34.34 Z" style="fill: rgb(255, 244, 201);"/>
      <path d="M 74.682 32.875 A 10.217 10.217 0 0 1 64.465 43.092 A 10.217 10.217 0 0 1 54.248 32.875 A 10.217 10.217 0 0 1 64.465 22.658 A 10.217 10.217 0 0 1 74.682 32.875 Z" style="fill: rgb(255, 244, 201);"/>
      <path d="M 84.462 18.987 A 10.217 10.217 0 0 1 74.245 29.204 A 10.217 10.217 0 0 1 64.028 18.987 A 10.217 10.217 0 0 1 74.245 8.77 A 10.217 10.217 0 0 1 84.462 18.987 Z" style="fill: rgb(255, 244, 201);"/>
      <path d="M 84.462 5.735 A 10.217 10.217 0 0 1 74.245 15.952 A 10.217 10.217 0 0 1 64.028 5.735 A 10.217 10.217 0 0 1 74.245 -4.482 A 10.217 10.217 0 0 1 84.462 5.735 Z" style="fill: rgb(255, 244, 201);"/>
      <path d="M 84.745 -9.49 A 10.217 10.217 0 0 1 74.528 0.727 A 10.217 10.217 0 0 1 64.311 -9.49 A 10.217 10.217 0 0 1 74.528 -19.707 A 10.217 10.217 0 0 1 84.745 -9.49 Z" style="fill: rgb(255, 244, 201);"/>
      <path d="M 59.932 -34.303 A 10.217 10.217 0 0 1 49.715 -24.086 A 10.217 10.217 0 0 1 39.498 -34.303 A 10.217 10.217 0 0 1 49.715 -44.52 A 10.217 10.217 0 0 1 59.932 -34.303 Z" style="fill: rgb(255, 244, 201);"/>
      <path d="M 38.503 -34.585 A 10.217 10.217 0 0 1 28.286 -24.368 A 10.217 10.217 0 0 1 18.069 -34.585 A 10.217 10.217 0 0 1 28.286 -44.802 A 10.217 10.217 0 0 1 38.503 -34.585 Z" style="fill: rgb(255, 244, 201);"/>
      <path d="M 61.06 -24.152 A 10.217 10.217 0 0 1 50.843 -13.935 A 10.217 10.217 0 0 1 40.626 -24.152 A 10.217 10.217 0 0 1 50.843 -34.369 A 10.217 10.217 0 0 1 61.06 -24.152 Z" style="fill: rgb(255, 244, 201);"/>
      <path d="M 72.056 -28.382 A 10.217 10.217 0 0 1 61.839 -18.165 A 10.217 10.217 0 0 1 51.622 -28.382 A 10.217 10.217 0 0 1 61.839 -38.599 A 10.217 10.217 0 0 1 72.056 -28.382 Z" style="fill: rgb(255, 244, 201);"/>
      <path d="M 78.541 -20.205 A 10.217 10.217 0 0 1 68.324 -9.988 A 10.217 10.217 0 0 1 58.107 -20.205 A 10.217 10.217 0 0 1 68.324 -30.422 A 10.217 10.217 0 0 1 78.541 -20.205 Z" style="fill: rgb(255, 244, 201);"/>
      <path d="M 69.237 -35.994 A 10.217 10.217 0 0 1 59.02 -25.777 A 10.217 10.217 0 0 1 48.803 -35.994 A 10.217 10.217 0 0 1 59.02 -46.211 A 10.217 10.217 0 0 1 69.237 -35.994 Z" style="fill: rgb(255, 244, 201);"/>
      <path d="M 56.549 -38.814 A 10.217 10.217 0 0 1 46.332 -28.597 A 10.217 10.217 0 0 1 36.115 -38.814 A 10.217 10.217 0 0 1 46.332 -49.031 A 10.217 10.217 0 0 1 56.549 -38.814 Z" style="fill: rgb(255, 244, 201);"/>
      <path d="M 25.039 33.209 A 10.217 10.217 0 0 1 14.822 43.426 A 10.217 10.217 0 0 1 4.605 33.209 A 10.217 10.217 0 0 1 14.822 22.992 A 10.217 10.217 0 0 1 25.039 33.209 Z" style="fill: rgb(255, 244, 201);"/>
      <path d="M 86.152 35.061 A 10.217 10.217 0 0 1 75.935 45.278 A 10.217 10.217 0 0 1 65.718 35.061 A 10.217 10.217 0 0 1 75.935 24.844 A 10.217 10.217 0 0 1 86.152 35.061 Z" style="fill: rgb(255, 244, 201);"/>
      <path d="M 15.398 9.24 C 15.398 12.205 12.995 14.608 10.03 14.608 C 7.065 14.608 4.662 12.205 4.662 9.24 C 4.662 6.275 7.065 3.872 10.03 3.872 C 12.995 3.872 15.398 6.275 15.398 9.24 Z" style="fill: rgb(255, 244, 201);"/>
    </g>
  </g>
  <path d="M -27.536 17.251 C -27.536 17.231 -27.533 17.211 -27.526 17.191 C -27.519 17.171 -27.509 17.151 -27.496 17.131 C -27.489 17.111 -27.476 17.094 -27.456 17.081 C -27.443 17.061 -27.426 17.051 -27.406 17.051 C -27.399 17.051 -27.393 17.054 -27.386 17.061 C -27.379 17.068 -27.373 17.074 -27.366 17.081 C -27.366 17.088 -27.363 17.098 -27.356 17.111 C -27.356 17.118 -27.356 17.128 -27.356 17.141 C -27.356 17.154 -27.353 17.164 -27.346 17.171 C -27.346 17.178 -27.346 17.184 -27.346 17.191 L -27.376 17.201 C -27.376 17.201 -27.376 17.194 -27.376 17.181 C -27.376 17.168 -27.379 17.158 -27.386 17.151 C -27.386 17.138 -27.389 17.128 -27.396 17.121 C -27.396 17.108 -27.403 17.101 -27.416 17.101 C -27.423 17.101 -27.433 17.108 -27.446 17.121 C -27.453 17.128 -27.459 17.141 -27.466 17.161 C -27.479 17.174 -27.486 17.188 -27.486 17.201 C -27.493 17.214 -27.496 17.228 -27.496 17.241 C -27.496 17.254 -27.493 17.268 -27.486 17.281 C -27.486 17.294 -27.483 17.308 -27.476 17.321 C -27.469 17.328 -27.463 17.334 -27.456 17.341 C -27.449 17.348 -27.439 17.351 -27.426 17.351 C -27.413 17.351 -27.403 17.348 -27.396 17.341 C -27.389 17.341 -27.379 17.338 -27.366 17.331 C -27.359 17.324 -27.353 17.318 -27.346 17.311 C -27.333 17.311 -27.323 17.311 -27.316 17.311 C -27.316 17.324 -27.319 17.334 -27.326 17.341 C -27.333 17.354 -27.343 17.364 -27.356 17.371 C -27.369 17.378 -27.379 17.381 -27.386 17.381 C -27.399 17.388 -27.413 17.391 -27.426 17.391 C -27.439 17.391 -27.453 17.388 -27.466 17.381 C -27.479 17.368 -27.489 17.354 -27.496 17.341 C -27.509 17.334 -27.519 17.321 -27.526 17.301 C -27.533 17.288 -27.536 17.271 -27.536 17.251 Z M -27.626 17.211 C -27.626 17.184 -27.623 17.158 -27.616 17.131 C -27.609 17.098 -27.599 17.071 -27.586 17.051 C -27.573 17.024 -27.553 17.004 -27.526 16.991 C -27.499 16.971 -27.469 16.961 -27.436 16.961 C -27.409 16.961 -27.386 16.964 -27.366 16.971 C -27.346 16.984 -27.326 16.998 -27.306 17.011 C -27.293 17.024 -27.279 17.041 -27.266 17.061 C -27.253 17.088 -27.243 17.111 -27.236 17.131 C -27.223 17.151 -27.216 17.174 -27.216 17.201 C -27.209 17.228 -27.209 17.251 -27.216 17.271 C -27.216 17.311 -27.223 17.348 -27.236 17.381 C -27.256 17.408 -27.276 17.431 -27.296 17.451 C -27.316 17.471 -27.339 17.484 -27.366 17.491 C -27.393 17.498 -27.419 17.501 -27.446 17.501 C -27.473 17.501 -27.496 17.498 -27.516 17.491 C -27.536 17.484 -27.553 17.471 -27.566 17.451 C -27.579 17.438 -27.589 17.421 -27.596 17.401 C -27.603 17.381 -27.609 17.361 -27.616 17.341 C -27.623 17.314 -27.626 17.291 -27.626 17.271 C -27.626 17.251 -27.626 17.231 -27.626 17.211 Z M -27.596 17.211 C -27.596 17.224 -27.596 17.241 -27.596 17.261 C -27.589 17.274 -27.586 17.291 -27.586 17.311 C -27.586 17.331 -27.583 17.348 -27.576 17.361 C -27.569 17.381 -27.563 17.398 -27.556 17.411 C -27.543 17.424 -27.529 17.434 -27.516 17.441 C -27.503 17.448 -27.486 17.451 -27.466 17.451 C -27.439 17.458 -27.413 17.458 -27.386 17.451 C -27.366 17.451 -27.346 17.441 -27.326 17.421 C -27.306 17.408 -27.289 17.388 -27.276 17.361 C -27.263 17.341 -27.253 17.311 -27.246 17.271 C -27.246 17.258 -27.246 17.241 -27.246 17.221 C -27.253 17.201 -27.259 17.181 -27.266 17.161 C -27.273 17.141 -27.283 17.121 -27.296 17.101 C -27.303 17.081 -27.316 17.061 -27.336 17.041 C -27.349 17.028 -27.366 17.014 -27.386 17.001 C -27.399 16.994 -27.416 16.991 -27.436 16.991 C -27.463 16.991 -27.486 17.001 -27.506 17.021 C -27.526 17.034 -27.543 17.054 -27.556 17.081 C -27.569 17.101 -27.579 17.124 -27.586 17.151 C -27.593 17.171 -27.596 17.191 -27.596 17.211 Z M -26.89 16.961 L -26.99 17.211 L -27.02 17.211 L -27.11 17.051 L -27.11 17.431 L -27.14 17.441 C -27.146 17.421 -27.15 17.394 -27.15 17.361 C -27.15 17.328 -27.15 17.294 -27.15 17.261 C -27.15 17.228 -27.15 17.191 -27.15 17.151 C -27.15 17.111 -27.15 17.074 -27.15 17.041 C -27.15 17.008 -27.153 16.974 -27.16 16.941 C -27.16 16.914 -27.16 16.891 -27.16 16.871 C -27.153 16.871 -27.15 16.871 -27.15 16.871 C -27.143 16.871 -27.14 16.871 -27.14 16.871 C -27.133 16.871 -27.13 16.871 -27.13 16.871 C -27.13 16.871 -27.126 16.874 -27.12 16.881 L -27 17.151 L -26.9 16.891 C -26.9 16.891 -26.9 16.891 -26.9 16.891 C -26.893 16.884 -26.89 16.881 -26.89 16.881 C -26.883 16.881 -26.876 16.881 -26.87 16.881 C -26.87 16.874 -26.866 16.871 -26.86 16.871 C -26.86 16.871 -26.86 16.874 -26.86 16.881 C -26.86 16.881 -26.86 16.888 -26.86 16.901 C -26.86 16.908 -26.86 16.924 -26.86 16.951 C -26.853 16.971 -26.846 17.001 -26.84 17.041 C -26.833 17.081 -26.826 17.134 -26.82 17.201 C -26.813 17.261 -26.803 17.338 -26.79 17.431 C -26.79 17.438 -26.79 17.441 -26.79 17.441 C -26.796 17.448 -26.803 17.451 -26.81 17.451 C -26.81 17.444 -26.81 17.441 -26.81 17.441 C -26.816 17.441 -26.82 17.438 -26.82 17.431 L -26.89 16.961 Z M -26.748 17.371 C -26.748 17.338 -26.742 17.314 -26.728 17.301 C -26.708 17.288 -26.682 17.281 -26.648 17.281 C -26.642 17.281 -26.632 17.281 -26.618 17.281 C -26.605 17.281 -26.595 17.281 -26.588 17.281 C -26.582 17.288 -26.572 17.291 -26.558 17.291 C -26.552 17.298 -26.542 17.304 -26.528 17.311 C -26.528 17.311 -26.528 17.308 -26.528 17.301 C -26.528 17.301 -26.528 17.298 -26.528 17.291 C -26.528 17.284 -26.528 17.278 -26.528 17.271 C -26.528 17.264 -26.528 17.261 -26.528 17.261 C -26.528 17.248 -26.528 17.231 -26.528 17.211 C -26.528 17.198 -26.532 17.181 -26.538 17.161 C -26.538 17.148 -26.542 17.131 -26.548 17.111 C -26.562 17.098 -26.575 17.088 -26.588 17.081 C -26.602 17.081 -26.615 17.081 -26.628 17.081 C -26.635 17.088 -26.645 17.094 -26.658 17.101 C -26.665 17.101 -26.675 17.104 -26.688 17.111 C -26.702 17.118 -26.712 17.121 -26.718 17.121 C -26.718 17.101 -26.715 17.088 -26.708 17.081 C -26.702 17.068 -26.692 17.061 -26.678 17.061 C -26.665 17.054 -26.652 17.051 -26.638 17.051 C -26.625 17.044 -26.612 17.041 -26.598 17.041 C -26.585 17.048 -26.575 17.051 -26.568 17.051 C -26.562 17.051 -26.555 17.054 -26.548 17.061 C -26.535 17.068 -26.525 17.081 -26.518 17.101 C -26.512 17.114 -26.508 17.134 -26.508 17.161 C -26.502 17.181 -26.495 17.211 -26.488 17.251 C -26.488 17.291 -26.485 17.341 -26.478 17.401 C -26.478 17.408 -26.482 17.414 -26.488 17.421 C -26.495 17.428 -26.505 17.431 -26.518 17.431 C -26.525 17.438 -26.535 17.441 -26.548 17.441 C -26.562 17.448 -26.575 17.451 -26.588 17.451 C -26.602 17.451 -26.615 17.451 -26.628 17.451 C -26.642 17.451 -26.652 17.451 -26.658 17.451 C -26.672 17.451 -26.682 17.451 -26.688 17.451 C -26.702 17.444 -26.712 17.438 -26.718 17.431 C -26.732 17.424 -26.738 17.418 -26.738 17.411 C -26.745 17.398 -26.748 17.384 -26.748 17.371 Z M -26.638 17.311 C -26.665 17.324 -26.685 17.334 -26.698 17.341 C -26.712 17.354 -26.718 17.368 -26.718 17.381 C -26.712 17.388 -26.705 17.394 -26.698 17.401 C -26.685 17.414 -26.668 17.421 -26.648 17.421 C -26.628 17.421 -26.608 17.421 -26.588 17.421 C -26.568 17.414 -26.548 17.401 -26.528 17.381 C -26.535 17.368 -26.545 17.354 -26.558 17.341 C -26.565 17.334 -26.572 17.328 -26.578 17.321 C -26.585 17.321 -26.595 17.318 -26.608 17.311 C -26.615 17.311 -26.625 17.311 -26.638 17.311 Z M -26.574 17.661 C -26.574 17.641 -26.571 17.628 -26.564 17.621 C -26.558 17.614 -26.544 17.611 -26.524 17.611 C -26.531 17.618 -26.534 17.624 -26.534 17.631 C -26.534 17.644 -26.538 17.654 -26.544 17.661 C -26.544 17.668 -26.544 17.671 -26.544 17.671 C -26.544 17.678 -26.541 17.681 -26.534 17.681 C -26.514 17.694 -26.494 17.701 -26.474 17.701 C -26.454 17.708 -26.431 17.711 -26.404 17.711 C -26.378 17.711 -26.351 17.704 -26.324 17.691 C -26.298 17.678 -26.278 17.661 -26.264 17.641 C -26.251 17.621 -26.238 17.598 -26.224 17.571 C -26.218 17.544 -26.214 17.518 -26.214 17.491 C -26.214 17.464 -26.214 17.434 -26.214 17.401 C -26.221 17.374 -26.228 17.348 -26.234 17.321 C -26.241 17.334 -26.251 17.348 -26.264 17.361 C -26.271 17.374 -26.281 17.384 -26.294 17.391 C -26.308 17.404 -26.321 17.414 -26.334 17.421 C -26.348 17.428 -26.361 17.431 -26.374 17.431 C -26.394 17.431 -26.408 17.428 -26.414 17.421 C -26.421 17.414 -26.428 17.404 -26.434 17.391 C -26.434 17.384 -26.434 17.374 -26.434 17.361 C -26.434 17.348 -26.434 17.331 -26.434 17.311 C -26.434 17.298 -26.434 17.284 -26.434 17.271 C -26.434 17.251 -26.431 17.231 -26.424 17.211 C -26.424 17.198 -26.421 17.181 -26.414 17.161 C -26.408 17.148 -26.401 17.131 -26.394 17.111 C -26.381 17.098 -26.368 17.088 -26.354 17.081 C -26.341 17.074 -26.324 17.071 -26.304 17.071 C -26.298 17.071 -26.288 17.071 -26.274 17.071 C -26.261 17.078 -26.251 17.081 -26.244 17.081 C -26.231 17.088 -26.221 17.094 -26.214 17.101 C -26.208 17.114 -26.201 17.128 -26.194 17.141 C -26.194 17.168 -26.194 17.194 -26.194 17.221 C -26.188 17.254 -26.184 17.288 -26.184 17.321 C -26.178 17.354 -26.174 17.388 -26.174 17.421 C -26.174 17.454 -26.178 17.488 -26.184 17.521 C -26.191 17.548 -26.198 17.574 -26.204 17.601 C -26.218 17.628 -26.234 17.654 -26.254 17.681 C -26.268 17.701 -26.288 17.718 -26.314 17.731 C -26.348 17.738 -26.381 17.744 -26.414 17.751 C -26.434 17.751 -26.454 17.748 -26.474 17.741 C -26.488 17.741 -26.504 17.738 -26.524 17.731 C -26.538 17.724 -26.548 17.714 -26.554 17.701 C -26.568 17.694 -26.574 17.681 -26.574 17.661 Z M -26.404 17.311 C -26.404 17.318 -26.404 17.328 -26.404 17.341 C -26.404 17.348 -26.404 17.354 -26.404 17.361 C -26.404 17.368 -26.401 17.374 -26.394 17.381 C -26.394 17.388 -26.388 17.391 -26.374 17.391 C -26.361 17.391 -26.348 17.388 -26.334 17.381 C -26.321 17.374 -26.311 17.368 -26.304 17.361 C -26.298 17.348 -26.288 17.334 -26.274 17.321 C -26.268 17.308 -26.264 17.294 -26.264 17.281 C -26.258 17.261 -26.254 17.244 -26.254 17.231 C -26.248 17.218 -26.244 17.208 -26.244 17.201 C -26.244 17.188 -26.244 17.174 -26.244 17.161 C -26.244 17.154 -26.248 17.144 -26.254 17.131 C -26.261 17.124 -26.268 17.118 -26.274 17.111 C -26.288 17.104 -26.298 17.101 -26.304 17.101 C -26.318 17.101 -26.331 17.108 -26.344 17.121 C -26.358 17.128 -26.368 17.138 -26.374 17.151 C -26.381 17.158 -26.384 17.171 -26.384 17.191 C -26.391 17.204 -26.394 17.218 -26.394 17.231 C -26.401 17.251 -26.404 17.268 -26.404 17.281 C -26.404 17.294 -26.404 17.304 -26.404 17.311 Z M -26.133 17.241 C -26.133 17.228 -26.13 17.211 -26.123 17.191 C -26.11 17.164 -26.096 17.144 -26.083 17.131 C -26.07 17.111 -26.056 17.094 -26.043 17.081 C -26.023 17.068 -26.006 17.061 -25.993 17.061 C -25.98 17.061 -25.97 17.064 -25.963 17.071 C -25.95 17.071 -25.94 17.074 -25.933 17.081 C -25.926 17.088 -25.92 17.098 -25.913 17.111 C -25.9 17.118 -25.893 17.124 -25.893 17.131 C -25.886 17.144 -25.883 17.154 -25.883 17.161 C -25.883 17.168 -25.886 17.174 -25.893 17.181 L -26.073 17.221 C -26.08 17.221 -26.083 17.221 -26.083 17.221 C -26.083 17.228 -26.083 17.234 -26.083 17.241 C -26.09 17.248 -26.093 17.258 -26.093 17.271 C -26.093 17.278 -26.093 17.284 -26.093 17.291 C -26.093 17.304 -26.093 17.314 -26.093 17.321 C -26.093 17.328 -26.093 17.331 -26.093 17.331 C -26.093 17.351 -26.09 17.364 -26.083 17.371 C -26.076 17.384 -26.066 17.394 -26.053 17.401 C -26.04 17.401 -26.026 17.404 -26.013 17.411 C -25.993 17.411 -25.976 17.411 -25.963 17.411 C -25.95 17.411 -25.936 17.411 -25.923 17.411 C -25.91 17.411 -25.896 17.411 -25.883 17.411 C -25.883 17.411 -25.886 17.411 -25.893 17.411 C -25.893 17.418 -25.893 17.421 -25.893 17.421 C -25.9 17.428 -25.903 17.431 -25.903 17.431 C -25.903 17.431 -25.903 17.431 -25.903 17.431 C -25.91 17.438 -25.92 17.441 -25.933 17.441 C -25.94 17.441 -25.95 17.441 -25.963 17.441 C -25.97 17.448 -25.98 17.451 -25.993 17.451 C -26 17.451 -26.006 17.451 -26.013 17.451 C -26.026 17.458 -26.04 17.458 -26.053 17.451 C -26.066 17.444 -26.08 17.438 -26.093 17.431 C -26.1 17.418 -26.106 17.404 -26.113 17.391 C -26.12 17.378 -26.123 17.364 -26.123 17.351 C -26.13 17.331 -26.133 17.311 -26.133 17.291 C -26.133 17.278 -26.133 17.261 -26.133 17.241 Z M -26.003 17.091 C -26.01 17.091 -26.016 17.094 -26.023 17.101 C -26.03 17.108 -26.036 17.114 -26.043 17.121 C -26.056 17.134 -26.063 17.144 -26.063 17.151 C -26.07 17.158 -26.073 17.164 -26.073 17.171 C -26.053 17.178 -26.036 17.178 -26.023 17.171 C -26.01 17.171 -25.996 17.168 -25.983 17.161 C -25.963 17.161 -25.95 17.158 -25.943 17.151 C -25.936 17.144 -25.933 17.134 -25.933 17.121 C -25.933 17.114 -25.94 17.111 -25.953 17.111 C -25.96 17.104 -25.976 17.098 -26.003 17.091 Z M -25.45 17.421 L -25.49 17.011 C -25.49 17.011 -25.49 17.011 -25.49 17.011 C -25.49 17.004 -25.493 17.001 -25.5 17.001 C -25.5 16.994 -25.5 16.988 -25.5 16.981 C -25.5 16.981 -25.5 16.981 -25.5 16.981 C -25.5 16.974 -25.5 16.968 -25.5 16.961 C -25.493 16.961 -25.487 16.961 -25.48 16.961 C -25.473 16.961 -25.467 16.961 -25.46 16.961 C -25.453 16.961 -25.45 16.961 -25.45 16.961 C -25.45 16.961 -25.45 16.961 -25.45 16.961 C -25.443 16.961 -25.44 16.961 -25.44 16.961 C -25.433 16.961 -25.43 16.961 -25.43 16.961 C -25.423 16.961 -25.42 16.961 -25.42 16.961 C -25.4 16.968 -25.377 16.978 -25.35 16.991 C -25.33 16.998 -25.307 17.008 -25.28 17.021 C -25.253 17.034 -25.227 17.048 -25.2 17.061 C -25.173 17.074 -25.15 17.091 -25.13 17.111 C -25.11 17.131 -25.093 17.154 -25.08 17.181 C -25.067 17.201 -25.06 17.228 -25.06 17.261 C -25.06 17.281 -25.067 17.301 -25.08 17.321 C -25.087 17.341 -25.1 17.358 -25.12 17.371 C -25.133 17.384 -25.15 17.398 -25.17 17.411 C -25.19 17.424 -25.21 17.431 -25.23 17.431 C -25.25 17.438 -25.273 17.444 -25.3 17.451 C -25.32 17.451 -25.34 17.451 -25.36 17.451 C -25.36 17.451 -25.367 17.451 -25.38 17.451 C -25.387 17.451 -25.397 17.451 -25.41 17.451 C -25.423 17.451 -25.433 17.451 -25.44 17.451 C -25.447 17.451 -25.45 17.451 -25.45 17.451 L -25.45 17.421 Z M -25.44 17.011 C -25.44 17.011 -25.44 17.011 -25.44 17.011 C -25.44 17.018 -25.44 17.024 -25.44 17.031 C -25.44 17.031 -25.44 17.034 -25.44 17.041 C -25.44 17.041 -25.44 17.044 -25.44 17.051 C -25.433 17.058 -25.43 17.071 -25.43 17.091 C -25.43 17.111 -25.43 17.131 -25.43 17.151 C -25.43 17.178 -25.43 17.204 -25.43 17.231 C -25.43 17.258 -25.427 17.284 -25.42 17.311 C -25.42 17.331 -25.42 17.351 -25.42 17.371 C -25.42 17.391 -25.42 17.408 -25.42 17.421 C -25.413 17.421 -25.407 17.421 -25.4 17.421 C -25.393 17.421 -25.387 17.421 -25.38 17.421 C -25.367 17.421 -25.357 17.421 -25.35 17.421 C -25.343 17.421 -25.337 17.421 -25.33 17.421 C -25.303 17.421 -25.277 17.418 -25.25 17.411 C -25.23 17.404 -25.207 17.394 -25.18 17.381 C -25.16 17.368 -25.143 17.348 -25.13 17.321 C -25.117 17.301 -25.11 17.278 -25.11 17.251 C -25.11 17.224 -25.117 17.201 -25.13 17.181 C -25.137 17.161 -25.15 17.141 -25.17 17.121 C -25.19 17.108 -25.21 17.091 -25.23 17.071 C -25.25 17.058 -25.273 17.048 -25.3 17.041 C -25.32 17.028 -25.343 17.018 -25.37 17.011 C -25.397 17.011 -25.42 17.011 -25.44 17.011 Z M -25.028 17.241 C -25.028 17.228 -25.024 17.211 -25.018 17.191 C -25.004 17.164 -24.991 17.144 -24.978 17.131 C -24.964 17.111 -24.951 17.094 -24.938 17.081 C -24.918 17.068 -24.901 17.061 -24.888 17.061 C -24.874 17.061 -24.864 17.064 -24.858 17.071 C -24.844 17.071 -24.834 17.074 -24.828 17.081 C -24.821 17.088 -24.814 17.098 -24.808 17.111 C -24.794 17.118 -24.788 17.124 -24.788 17.131 C -24.781 17.144 -24.778 17.154 -24.778 17.161 C -24.778 17.168 -24.781 17.174 -24.788 17.181 L -24.968 17.221 C -24.974 17.221 -24.978 17.221 -24.978 17.221 C -24.978 17.228 -24.978 17.234 -24.978 17.241 C -24.984 17.248 -24.988 17.258 -24.988 17.271 C -24.988 17.278 -24.988 17.284 -24.988 17.291 C -24.988 17.304 -24.988 17.314 -24.988 17.321 C -24.988 17.328 -24.988 17.331 -24.988 17.331 C -24.988 17.351 -24.984 17.364 -24.978 17.371 C -24.971 17.384 -24.961 17.394 -24.948 17.401 C -24.934 17.401 -24.921 17.404 -24.908 17.411 C -24.888 17.411 -24.871 17.411 -24.858 17.411 C -24.844 17.411 -24.831 17.411 -24.818 17.411 C -24.804 17.411 -24.791 17.411 -24.778 17.411 C -24.778 17.411 -24.781 17.411 -24.788 17.411 C -24.788 17.418 -24.788 17.421 -24.788 17.421 C -24.794 17.428 -24.798 17.431 -24.798 17.431 C -24.798 17.431 -24.798 17.431 -24.798 17.431 C -24.804 17.438 -24.814 17.441 -24.828 17.441 C -24.834 17.441 -24.844 17.441 -24.858 17.441 C -24.864 17.448 -24.874 17.451 -24.888 17.451 C -24.894 17.451 -24.901 17.451 -24.908 17.451 C -24.921 17.458 -24.934 17.458 -24.948 17.451 C -24.961 17.444 -24.974 17.438 -24.988 17.431 C -24.994 17.418 -25.001 17.404 -25.008 17.391 C -25.014 17.378 -25.018 17.364 -25.018 17.351 C -25.024 17.331 -25.028 17.311 -25.028 17.291 C -25.028 17.278 -25.028 17.261 -25.028 17.241 Z M -24.898 17.091 C -24.904 17.091 -24.911 17.094 -24.918 17.101 C -24.924 17.108 -24.931 17.114 -24.938 17.121 C -24.951 17.134 -24.958 17.144 -24.958 17.151 C -24.964 17.158 -24.968 17.164 -24.968 17.171 C -24.948 17.178 -24.931 17.178 -24.918 17.171 C -24.904 17.171 -24.891 17.168 -24.878 17.161 C -24.858 17.161 -24.844 17.158 -24.838 17.151 C -24.831 17.144 -24.828 17.134 -24.828 17.121 C -24.828 17.114 -24.834 17.111 -24.848 17.111 C -24.854 17.104 -24.871 17.098 -24.898 17.091 Z M -24.732 17.111 C -24.732 17.104 -24.732 17.101 -24.732 17.101 C -24.725 17.101 -24.719 17.098 -24.712 17.091 C -24.712 17.091 -24.709 17.091 -24.702 17.091 C -24.695 17.091 -24.692 17.091 -24.692 17.091 C -24.685 17.164 -24.679 17.224 -24.672 17.271 C -24.659 17.311 -24.645 17.341 -24.632 17.361 C -24.619 17.381 -24.605 17.391 -24.592 17.391 C -24.572 17.391 -24.555 17.384 -24.542 17.371 C -24.529 17.358 -24.515 17.341 -24.502 17.321 C -24.489 17.294 -24.479 17.268 -24.472 17.241 C -24.465 17.214 -24.462 17.188 -24.462 17.161 C -24.455 17.134 -24.455 17.111 -24.462 17.091 L -24.412 17.091 C -24.412 17.098 -24.412 17.111 -24.412 17.131 C -24.405 17.151 -24.402 17.174 -24.402 17.201 C -24.395 17.228 -24.392 17.254 -24.392 17.281 C -24.385 17.308 -24.382 17.334 -24.382 17.361 C -24.375 17.381 -24.372 17.401 -24.372 17.421 C -24.365 17.434 -24.362 17.444 -24.362 17.451 L -24.402 17.451 L -24.442 17.301 C -24.455 17.321 -24.465 17.341 -24.472 17.361 C -24.485 17.374 -24.499 17.388 -24.512 17.401 C -24.525 17.421 -24.539 17.434 -24.552 17.441 C -24.572 17.448 -24.589 17.451 -24.602 17.451 C -24.615 17.444 -24.629 17.438 -24.642 17.431 C -24.655 17.418 -24.669 17.398 -24.682 17.371 C -24.695 17.344 -24.705 17.308 -24.712 17.261 C -24.725 17.221 -24.732 17.171 -24.732 17.111 Z M -24.32 17.451 C -24.32 17.438 -24.32 17.421 -24.32 17.401 C -24.32 17.388 -24.323 17.368 -24.33 17.341 C -24.33 17.321 -24.33 17.298 -24.33 17.271 C -24.33 17.251 -24.33 17.228 -24.33 17.201 C -24.33 17.181 -24.33 17.161 -24.33 17.141 C -24.33 17.128 -24.333 17.114 -24.34 17.101 C -24.34 17.101 -24.34 17.101 -24.34 17.101 C -24.34 17.094 -24.34 17.091 -24.34 17.091 C -24.34 17.091 -24.34 17.088 -24.34 17.081 C -24.34 17.081 -24.34 17.081 -24.34 17.081 C -24.326 17.074 -24.32 17.071 -24.32 17.071 C -24.313 17.071 -24.306 17.078 -24.3 17.091 C -24.293 17.098 -24.29 17.108 -24.29 17.121 C -24.29 17.128 -24.29 17.138 -24.29 17.151 C -24.29 17.164 -24.29 17.174 -24.29 17.181 C -24.29 17.194 -24.29 17.201 -24.29 17.201 C -24.283 17.194 -24.28 17.184 -24.28 17.171 C -24.28 17.158 -24.276 17.144 -24.27 17.131 C -24.263 17.118 -24.256 17.101 -24.25 17.081 C -24.243 17.068 -24.236 17.058 -24.23 17.051 C -24.216 17.038 -24.203 17.028 -24.19 17.021 C -24.183 17.014 -24.17 17.014 -24.15 17.021 C -24.123 17.021 -24.103 17.028 -24.09 17.041 C -24.07 17.054 -24.056 17.071 -24.05 17.091 C -24.036 17.111 -24.03 17.134 -24.03 17.161 C -24.023 17.194 -24.02 17.224 -24.02 17.251 C -24.02 17.284 -24.02 17.318 -24.02 17.351 C -24.02 17.384 -24.02 17.414 -24.02 17.441 C -24.02 17.448 -24.023 17.451 -24.03 17.451 C -24.036 17.451 -24.043 17.451 -24.05 17.451 C -24.05 17.451 -24.05 17.451 -24.05 17.451 C -24.056 17.444 -24.056 17.434 -24.05 17.421 C -24.05 17.408 -24.05 17.391 -24.05 17.371 C -24.05 17.344 -24.05 17.318 -24.05 17.291 C -24.05 17.264 -24.05 17.238 -24.05 17.211 C -24.056 17.184 -24.063 17.158 -24.07 17.131 C -24.076 17.111 -24.086 17.091 -24.1 17.071 C -24.113 17.058 -24.133 17.051 -24.16 17.051 C -24.186 17.064 -24.206 17.084 -24.22 17.111 C -24.233 17.138 -24.246 17.168 -24.26 17.201 C -24.266 17.241 -24.273 17.281 -24.28 17.321 C -24.286 17.368 -24.29 17.411 -24.29 17.451 C -24.29 17.451 -24.29 17.451 -24.29 17.451 C -24.296 17.451 -24.3 17.451 -24.3 17.451 C -24.306 17.451 -24.31 17.451 -24.31 17.451 C -24.316 17.451 -24.32 17.451 -24.32 17.451 Z M -24.104 17.661 C -24.104 17.641 -24.101 17.628 -24.094 17.621 C -24.088 17.614 -24.074 17.611 -24.054 17.611 C -24.061 17.618 -24.064 17.624 -24.064 17.631 C -24.064 17.644 -24.068 17.654 -24.074 17.661 C -24.074 17.668 -24.074 17.671 -24.074 17.671 C -24.074 17.678 -24.071 17.681 -24.064 17.681 C -24.044 17.694 -24.024 17.701 -24.004 17.701 C -23.984 17.708 -23.961 17.711 -23.934 17.711 C -23.908 17.711 -23.881 17.704 -23.854 17.691 C -23.828 17.678 -23.808 17.661 -23.794 17.641 C -23.781 17.621 -23.768 17.598 -23.754 17.571 C -23.748 17.544 -23.744 17.518 -23.744 17.491 C -23.744 17.464 -23.744 17.434 -23.744 17.401 C -23.751 17.374 -23.758 17.348 -23.764 17.321 C -23.771 17.334 -23.781 17.348 -23.794 17.361 C -23.801 17.374 -23.811 17.384 -23.824 17.391 C -23.838 17.404 -23.851 17.414 -23.864 17.421 C -23.878 17.428 -23.891 17.431 -23.904 17.431 C -23.924 17.431 -23.938 17.428 -23.944 17.421 C -23.951 17.414 -23.958 17.404 -23.964 17.391 C -23.964 17.384 -23.964 17.374 -23.964 17.361 C -23.964 17.348 -23.964 17.331 -23.964 17.311 C -23.964 17.298 -23.964 17.284 -23.964 17.271 C -23.964 17.251 -23.961 17.231 -23.954 17.211 C -23.954 17.198 -23.951 17.181 -23.944 17.161 C -23.938 17.148 -23.931 17.131 -23.924 17.111 C -23.911 17.098 -23.898 17.088 -23.884 17.081 C -23.871 17.074 -23.854 17.071 -23.834 17.071 C -23.828 17.071 -23.818 17.071 -23.804 17.071 C -23.791 17.078 -23.781 17.081 -23.774 17.081 C -23.761 17.088 -23.751 17.094 -23.744 17.101 C -23.738 17.114 -23.731 17.128 -23.724 17.141 C -23.724 17.168 -23.724 17.194 -23.724 17.221 C -23.718 17.254 -23.714 17.288 -23.714 17.321 C -23.708 17.354 -23.704 17.388 -23.704 17.421 C -23.704 17.454 -23.708 17.488 -23.714 17.521 C -23.721 17.548 -23.728 17.574 -23.734 17.601 C -23.748 17.628 -23.764 17.654 -23.784 17.681 C -23.798 17.701 -23.818 17.718 -23.844 17.731 C -23.878 17.738 -23.911 17.744 -23.944 17.751 C -23.964 17.751 -23.984 17.748 -24.004 17.741 C -24.018 17.741 -24.034 17.738 -24.054 17.731 C -24.068 17.724 -24.078 17.714 -24.084 17.701 C -24.098 17.694 -24.104 17.681 -24.104 17.661 Z M -23.934 17.311 C -23.934 17.318 -23.934 17.328 -23.934 17.341 C -23.934 17.348 -23.934 17.354 -23.934 17.361 C -23.934 17.368 -23.931 17.374 -23.924 17.381 C -23.924 17.388 -23.918 17.391 -23.904 17.391 C -23.891 17.391 -23.878 17.388 -23.864 17.381 C -23.851 17.374 -23.841 17.368 -23.834 17.361 C -23.828 17.348 -23.818 17.334 -23.804 17.321 C -23.798 17.308 -23.794 17.294 -23.794 17.281 C -23.788 17.261 -23.784 17.244 -23.784 17.231 C -23.778 17.218 -23.774 17.208 -23.774 17.201 C -23.774 17.188 -23.774 17.174 -23.774 17.161 C -23.774 17.154 -23.778 17.144 -23.784 17.131 C -23.791 17.124 -23.798 17.118 -23.804 17.111 C -23.818 17.104 -23.828 17.101 -23.834 17.101 C -23.848 17.101 -23.861 17.108 -23.874 17.121 C -23.888 17.128 -23.898 17.138 -23.904 17.151 C -23.911 17.158 -23.914 17.171 -23.914 17.191 C -23.921 17.204 -23.924 17.218 -23.924 17.231 C -23.931 17.251 -23.934 17.268 -23.934 17.281 C -23.934 17.294 -23.934 17.304 -23.934 17.311 Z M -23.663 17.371 C -23.663 17.338 -23.656 17.314 -23.643 17.301 C -23.623 17.288 -23.596 17.281 -23.563 17.281 C -23.556 17.281 -23.546 17.281 -23.533 17.281 C -23.519 17.281 -23.509 17.281 -23.503 17.281 C -23.496 17.288 -23.486 17.291 -23.473 17.291 C -23.466 17.298 -23.456 17.304 -23.443 17.311 C -23.443 17.311 -23.443 17.308 -23.443 17.301 C -23.443 17.301 -23.443 17.298 -23.443 17.291 C -23.443 17.284 -23.443 17.278 -23.443 17.271 C -23.443 17.264 -23.443 17.261 -23.443 17.261 C -23.443 17.248 -23.443 17.231 -23.443 17.211 C -23.443 17.198 -23.446 17.181 -23.453 17.161 C -23.453 17.148 -23.456 17.131 -23.463 17.111 C -23.476 17.098 -23.489 17.088 -23.503 17.081 C -23.516 17.081 -23.529 17.081 -23.543 17.081 C -23.549 17.088 -23.559 17.094 -23.573 17.101 C -23.579 17.101 -23.589 17.104 -23.603 17.111 C -23.616 17.118 -23.626 17.121 -23.633 17.121 C -23.633 17.101 -23.629 17.088 -23.623 17.081 C -23.616 17.068 -23.606 17.061 -23.593 17.061 C -23.579 17.054 -23.566 17.051 -23.553 17.051 C -23.539 17.044 -23.526 17.041 -23.513 17.041 C -23.499 17.048 -23.489 17.051 -23.483 17.051 C -23.476 17.051 -23.469 17.054 -23.463 17.061 C -23.449 17.068 -23.439 17.081 -23.433 17.101 C -23.426 17.114 -23.423 17.134 -23.423 17.161 C -23.416 17.181 -23.409 17.211 -23.403 17.251 C -23.403 17.291 -23.399 17.341 -23.393 17.401 C -23.393 17.408 -23.396 17.414 -23.403 17.421 C -23.409 17.428 -23.419 17.431 -23.433 17.431 C -23.439 17.438 -23.449 17.441 -23.463 17.441 C -23.476 17.448 -23.489 17.451 -23.503 17.451 C -23.516 17.451 -23.529 17.451 -23.543 17.451 C -23.556 17.451 -23.566 17.451 -23.573 17.451 C -23.586 17.451 -23.596 17.451 -23.603 17.451 C -23.616 17.444 -23.626 17.438 -23.633 17.431 C -23.646 17.424 -23.653 17.418 -23.653 17.411 C -23.659 17.398 -23.663 17.384 -23.663 17.371 Z M -23.553 17.311 C -23.579 17.324 -23.599 17.334 -23.613 17.341 C -23.626 17.354 -23.633 17.368 -23.633 17.381 C -23.626 17.388 -23.619 17.394 -23.613 17.401 C -23.599 17.414 -23.583 17.421 -23.563 17.421 C -23.543 17.421 -23.523 17.421 -23.503 17.421 C -23.483 17.414 -23.463 17.401 -23.443 17.381 C -23.449 17.368 -23.459 17.354 -23.473 17.341 C -23.479 17.334 -23.486 17.328 -23.493 17.321 C -23.499 17.321 -23.509 17.318 -23.523 17.311 C -23.529 17.311 -23.539 17.311 -23.553 17.311 Z M -23.369 17.111 C -23.362 17.104 -23.356 17.104 -23.349 17.111 C -23.342 17.111 -23.339 17.114 -23.339 17.121 C -23.332 17.121 -23.329 17.124 -23.329 17.131 C -23.329 17.138 -23.326 17.144 -23.319 17.151 C -23.312 17.138 -23.302 17.128 -23.289 17.121 C -23.276 17.114 -23.262 17.108 -23.249 17.101 C -23.229 17.101 -23.212 17.101 -23.199 17.101 C -23.179 17.101 -23.162 17.104 -23.149 17.111 C -23.142 17.118 -23.136 17.124 -23.129 17.131 C -23.122 17.144 -23.122 17.158 -23.129 17.171 C -23.149 17.158 -23.166 17.151 -23.179 17.151 C -23.199 17.144 -23.216 17.141 -23.229 17.141 C -23.242 17.141 -23.256 17.148 -23.269 17.161 C -23.282 17.168 -23.296 17.184 -23.309 17.211 C -23.316 17.231 -23.319 17.261 -23.319 17.301 C -23.326 17.334 -23.326 17.378 -23.319 17.431 L -23.349 17.431 C -23.349 17.431 -23.349 17.428 -23.349 17.421 C -23.349 17.408 -23.349 17.394 -23.349 17.381 C -23.356 17.368 -23.359 17.351 -23.359 17.331 C -23.359 17.311 -23.359 17.291 -23.359 17.271 C -23.359 17.251 -23.359 17.231 -23.359 17.211 C -23.366 17.191 -23.369 17.174 -23.369 17.161 C -23.369 17.161 -23.369 17.158 -23.369 17.151 C -23.369 17.151 -23.369 17.148 -23.369 17.141 C -23.369 17.134 -23.369 17.128 -23.369 17.121 C -23.369 17.114 -23.369 17.111 -23.369 17.111 Z M -23.09 17.291 C -23.09 17.278 -23.09 17.261 -23.09 17.241 C -23.084 17.228 -23.077 17.211 -23.07 17.191 C -23.07 17.171 -23.064 17.151 -23.05 17.131 C -23.044 17.118 -23.037 17.104 -23.03 17.091 C -23.017 17.078 -23.004 17.064 -22.99 17.051 C -22.97 17.044 -22.954 17.041 -22.94 17.041 C -22.92 17.041 -22.904 17.048 -22.89 17.061 C -22.87 17.074 -22.854 17.091 -22.84 17.111 C -22.834 17.131 -22.827 17.154 -22.82 17.181 C -22.814 17.208 -22.81 17.231 -22.81 17.251 C -22.81 17.291 -22.817 17.324 -22.83 17.351 C -22.844 17.378 -22.86 17.398 -22.88 17.411 C -22.9 17.431 -22.924 17.444 -22.95 17.451 C -22.977 17.458 -23 17.454 -23.02 17.441 C -23.04 17.434 -23.057 17.418 -23.07 17.391 C -23.084 17.364 -23.09 17.331 -23.09 17.291 Z M -23.06 17.291 C -23.054 17.331 -23.047 17.361 -23.04 17.381 C -23.027 17.394 -23.014 17.404 -23 17.411 C -22.987 17.418 -22.97 17.418 -22.95 17.411 C -22.93 17.411 -22.914 17.401 -22.9 17.381 C -22.887 17.368 -22.874 17.351 -22.86 17.331 C -22.854 17.304 -22.847 17.278 -22.84 17.251 C -22.84 17.231 -22.844 17.211 -22.85 17.191 C -22.857 17.171 -22.864 17.154 -22.87 17.141 C -22.877 17.121 -22.887 17.108 -22.9 17.101 C -22.907 17.094 -22.92 17.091 -22.94 17.091 C -22.954 17.091 -22.964 17.094 -22.97 17.101 C -22.984 17.108 -22.994 17.114 -23 17.121 C -23.014 17.134 -23.024 17.151 -23.03 17.171 C -23.037 17.184 -23.04 17.198 -23.04 17.211 C -23.047 17.224 -23.05 17.241 -23.05 17.261 C -23.057 17.274 -23.06 17.284 -23.06 17.291 Z" style="fill: rgba(102, 78, 76, 0.59); white-space: pre;"/>
</svg>