<?xml version="1.0" encoding="utf-8"?>
<svg viewBox="-43.731 -78.715 82.692 154.908" width="82.692" height="154.908" xmlns="http://www.w3.org/2000/svg">
  <g transform="matrix(1, 0, 0, 1, -55.98, -45.809003)">
    <title>alpaca</title>
    <path d="M 87.807 39.067 A 35.61 44.95 0 0 1 52.197 84.017 A 35.61 44.95 0 0 1 16.587 39.067 A 35.61 44.95 0 0 1 52.197 -5.883 A 35.61 44.95 0 0 1 87.807 39.067 Z" style="fill: rgb(245, 224, 183); stroke-linecap: round; stroke-linejoin: round;"/>
    <g transform="matrix(1, 0, 0, 1, 9.019, 8.032)">
      <title>orelhas</title>
      <path style="stroke-linecap: round; stroke-linejoin: round; fill: rgb(245, 224, 183);" d="M 54.854 -6.91 C 54.854 -6.91 75.723 -57.309 80.54 -34.931 C 85.357 -12.553 67.697 0.095 67.113 0.095 C 66.529 0.095 55.195 -2.969 54.854 -6.91 Z"/>
      <path style="stroke-linecap: round; stroke-linejoin: round; fill: rgb(245, 224, 183);" d="M 3.597 -34.241 C 3.597 -34.241 24.223 14.943 29.283 -6.22 C 34.343 -27.383 16.44 -41.246 15.856 -41.246 C 15.272 -41.246 4.181 -50.586 3.597 -34.241 Z" transform="matrix(-1, 0, 0, -1, 36.471386, -41.826496)"/>
      <path style="fill: rgb(102, 78, 76);" d="M 67.343 -2.832 C 60.004 -7.37 80.779 -5.307 76.15 -32.865 C 74.794 -51.156 82.359 -30.72 82.359 -30.72 C 82.458 -30.752 91.098 -7.495 68.697 0.103 L 67.343 -2.832 Z"/>
      <path style="fill: rgb(102, 78, 76);" d="M 5.389 -38.003 C -1.95 -33.465 18.825 -35.528 14.196 -7.97 C 12.84 10.321 20.405 -10.115 20.405 -10.115 C 20.504 -10.083 29.144 -33.34 6.743 -40.938 L 5.389 -38.003 Z" transform="matrix(-1, 0, 0, -1, 25.927813, -41.299797)"/>
    </g>
    <g transform="matrix(1, 0, 0, 1, 9.92953, 8.032)">
      <title>olhos</title>
      <g transform="matrix(1, 0, 0, 1, -123.834808, -154.766464)">
        <path d="M 159.32 177.69 A 3.614 5.352 0 0 1 155.706 183.042 A 3.614 5.352 0 0 1 152.092 177.69 A 3.614 5.352 0 0 1 155.706 172.338 A 3.614 5.352 0 0 1 159.32 177.69 Z" style="fill: rgb(102, 78, 76);"/>
        <path style="paint-order: stroke markers; fill: none; stroke: rgb(102, 78, 76);" d="M 155.177 174.315 C 157.118 174.316 158.846 173.089 159.487 171.257"/>
        <path style="paint-order: stroke markers; fill: none; stroke: rgb(102, 78, 76);" d="M 152.956 173.945 C 154.897 173.946 156.625 172.719 157.266 170.887" transform="matrix(0.866025, -0.5, 0.5, 0.866025, -65.427078, 100.654899)"/>
      </g>
      <g transform="matrix(1, 0, 0, 1, -100.413261, -155.089859)">
        <path d="M 159.32 177.69 A 3.614 5.352 0 0 1 155.706 183.042 A 3.614 5.352 0 0 1 152.092 177.69 A 3.614 5.352 0 0 1 155.706 172.338 A 3.614 5.352 0 0 1 159.32 177.69 Z" style="fill: rgb(102, 78, 76);"/>
        <path style="paint-order: stroke markers; fill: none; stroke: rgb(102, 78, 76);" d="M 155.177 174.315 C 157.118 174.316 158.846 173.089 159.487 171.257"/>
        <path style="paint-order: stroke markers; fill: none; stroke: rgb(102, 78, 76);" d="M 152.956 173.945 C 154.897 173.946 156.625 172.719 157.266 170.887" transform="matrix(0.866025, -0.5, 0.5, 0.866025, -65.427078, 100.654899)"/>
      </g>
    </g>
    <g transform="matrix(1, 0, 0, 1, 9.450501, 8.032)">
      <title>nariz e boca</title>
      <path style="fill: none; stroke-linejoin: round; stroke-linecap: round; stroke: rgb(102, 78, 76);" d="M 44.192 34.743 C 44.192 34.743 47.997 41.56 53.194 35.246"/>
      <path style="fill: none; stroke-linejoin: round; stroke-linecap: round; stroke: rgb(102, 78, 76);" d="M 37.658 35.663 C 37.658 35.663 41.463 28.846 46.66 35.16" transform="matrix(-1, 0, 0, -1, 81.755001, 70.440418)"/>
      <path d="M 57.349 21.954 Q 60.335 19.419 63.32 21.954 L 63.32 21.954 Q 66.306 24.488 60.335 24.488 L 60.335 24.488 Q 54.364 24.488 57.349 21.954 Z" style="stroke-linejoin: round; stroke-linecap: round; fill: rgb(239, 176, 161);" transform="matrix(-1, 0.000001, -0.000001, -1, 104.322556, 55.66864)"/>
    </g>
    <g transform="matrix(1, 0, 0, 1, 8.278, 31.735998)">
      <title>guizo</title>
      <path style="stroke-width: 6px; stroke: rgb(244, 201, 132); fill: rgb(56, 209, 239);" d="M 10.581 35.497 L 80.184 34.84 C 80.184 34.84 70.991 65.046 44.397 85.402 C 17.475 62.42 11.238 35.826 10.581 35.497 Z"/>
      <path d="M 53.763 50.551 C 53.763 55.216 49.982 58.997 45.317 58.997 C 40.652 58.997 36.871 55.216 36.871 50.551 C 36.871 45.886 40.652 42.105 45.317 42.105 C 49.982 42.105 53.763 45.886 53.763 50.551 Z" style="fill: rgb(244, 201, 132);"/>
      <path d="M 39.573 56.132 L 51.114 45.291" style="stroke-linecap: round; stroke-linejoin: round; stroke-width: 2px; stroke: rgba(102, 78, 76, 0.62);" transform="matrix(0.734313, 0.678811, -0.678811, 0.734313, 46.470709, -17.306282)"/>
      <path d="M 45.547 58.465 L 45.547 55.853" style="stroke-linecap: round; stroke-linejoin: round; stroke: rgba(102, 78, 76, 0.62);"/>
    </g>
    <g transform="matrix(1, 0, 0, 1, 8.278, 31.735998)">
      <title>pelo</title>
      <path d="M 44.143 -31.765 A 10.217 10.217 0 0 1 33.926 -21.548 A 10.217 10.217 0 0 1 23.709 -31.765 A 10.217 10.217 0 0 1 33.926 -41.982 A 10.217 10.217 0 0 1 44.143 -31.765 Z" style="fill: rgb(255, 244, 201);"/>
      <path d="M 29.48 -23.024 A 10.217 10.217 0 0 1 19.263 -12.807 A 10.217 10.217 0 0 1 9.046 -23.024 A 10.217 10.217 0 0 1 19.263 -33.241 A 10.217 10.217 0 0 1 29.48 -23.024 Z" style="fill: rgb(255, 244, 201);"/>
      <path d="M 45.552 -21.897 A 10.217 10.217 0 0 1 35.335 -11.68 A 10.217 10.217 0 0 1 25.118 -21.897 A 10.217 10.217 0 0 1 35.335 -32.114 A 10.217 10.217 0 0 1 45.552 -21.897 Z" style="fill: rgb(255, 244, 201);"/>
      <path d="M 28.917 -14.002 A 10.217 10.217 0 0 1 18.7 -3.785 A 10.217 10.217 0 0 1 8.483 -14.002 A 10.217 10.217 0 0 1 18.7 -24.219 A 10.217 10.217 0 0 1 28.917 -14.002 Z" style="fill: rgb(255, 244, 201);"/>
      <path d="M 24.405 0.66 A 10.217 10.217 0 0 1 14.188 10.877 A 10.217 10.217 0 0 1 3.971 0.66 A 10.217 10.217 0 0 1 14.188 -9.557 A 10.217 10.217 0 0 1 24.405 0.66 Z" style="fill: rgb(255, 244, 201);"/>
      <path d="M 26.943 17.296 A 10.217 10.217 0 0 1 16.726 27.513 A 10.217 10.217 0 0 1 6.509 17.296 A 10.217 10.217 0 0 1 16.726 7.079 A 10.217 10.217 0 0 1 26.943 17.296 Z" style="fill: rgb(255, 244, 201);"/>
      <path d="M 31.736 30.548 A 10.217 10.217 0 0 1 21.519 40.765 A 10.217 10.217 0 0 1 11.302 30.548 A 10.217 10.217 0 0 1 21.519 20.331 A 10.217 10.217 0 0 1 31.736 30.548 Z" style="fill: rgb(255, 244, 201);"/>
      <path d="M 46.238 35.025 A 10.217 10.217 0 0 1 36.021 45.242 A 10.217 10.217 0 0 1 25.804 35.025 A 10.217 10.217 0 0 1 36.021 24.808 A 10.217 10.217 0 0 1 46.238 35.025 Z" style="fill: rgb(255, 244, 201);"/>
      <path d="M 59.086 34.34 A 10.217 10.217 0 0 1 48.869 44.557 A 10.217 10.217 0 0 1 38.652 34.34 A 10.217 10.217 0 0 1 48.869 24.123 A 10.217 10.217 0 0 1 59.086 34.34 Z" style="fill: rgb(255, 244, 201);"/>
      <path d="M 74.682 32.875 A 10.217 10.217 0 0 1 64.465 43.092 A 10.217 10.217 0 0 1 54.248 32.875 A 10.217 10.217 0 0 1 64.465 22.658 A 10.217 10.217 0 0 1 74.682 32.875 Z" style="fill: rgb(255, 244, 201);"/>
      <path d="M 84.462 18.987 A 10.217 10.217 0 0 1 74.245 29.204 A 10.217 10.217 0 0 1 64.028 18.987 A 10.217 10.217 0 0 1 74.245 8.77 A 10.217 10.217 0 0 1 84.462 18.987 Z" style="fill: rgb(255, 244, 201);"/>
      <path d="M 84.462 5.735 A 10.217 10.217 0 0 1 74.245 15.952 A 10.217 10.217 0 0 1 64.028 5.735 A 10.217 10.217 0 0 1 74.245 -4.482 A 10.217 10.217 0 0 1 84.462 5.735 Z" style="fill: rgb(255, 244, 201);"/>
      <path d="M 84.745 -9.49 A 10.217 10.217 0 0 1 74.528 0.727 A 10.217 10.217 0 0 1 64.311 -9.49 A 10.217 10.217 0 0 1 74.528 -19.707 A 10.217 10.217 0 0 1 84.745 -9.49 Z" style="fill: rgb(255, 244, 201);"/>
      <path d="M 59.932 -34.303 A 10.217 10.217 0 0 1 49.715 -24.086 A 10.217 10.217 0 0 1 39.498 -34.303 A 10.217 10.217 0 0 1 49.715 -44.52 A 10.217 10.217 0 0 1 59.932 -34.303 Z" style="fill: rgb(255, 244, 201);"/>
      <path d="M 38.503 -34.585 A 10.217 10.217 0 0 1 28.286 -24.368 A 10.217 10.217 0 0 1 18.069 -34.585 A 10.217 10.217 0 0 1 28.286 -44.802 A 10.217 10.217 0 0 1 38.503 -34.585 Z" style="fill: rgb(255, 244, 201);"/>
      <path d="M 61.06 -24.152 A 10.217 10.217 0 0 1 50.843 -13.935 A 10.217 10.217 0 0 1 40.626 -24.152 A 10.217 10.217 0 0 1 50.843 -34.369 A 10.217 10.217 0 0 1 61.06 -24.152 Z" style="fill: rgb(255, 244, 201);"/>
      <path d="M 72.056 -28.382 A 10.217 10.217 0 0 1 61.839 -18.165 A 10.217 10.217 0 0 1 51.622 -28.382 A 10.217 10.217 0 0 1 61.839 -38.599 A 10.217 10.217 0 0 1 72.056 -28.382 Z" style="fill: rgb(255, 244, 201);"/>
      <path d="M 78.541 -20.205 A 10.217 10.217 0 0 1 68.324 -9.988 A 10.217 10.217 0 0 1 58.107 -20.205 A 10.217 10.217 0 0 1 68.324 -30.422 A 10.217 10.217 0 0 1 78.541 -20.205 Z" style="fill: rgb(255, 244, 201);"/>
      <path d="M 69.237 -35.994 A 10.217 10.217 0 0 1 59.02 -25.777 A 10.217 10.217 0 0 1 48.803 -35.994 A 10.217 10.217 0 0 1 59.02 -46.211 A 10.217 10.217 0 0 1 69.237 -35.994 Z" style="fill: rgb(255, 244, 201);"/>
      <path d="M 56.549 -38.814 A 10.217 10.217 0 0 1 46.332 -28.597 A 10.217 10.217 0 0 1 36.115 -38.814 A 10.217 10.217 0 0 1 46.332 -49.031 A 10.217 10.217 0 0 1 56.549 -38.814 Z" style="fill: rgb(255, 244, 201);"/>
      <path d="M 25.039 33.209 A 10.217 10.217 0 0 1 14.822 43.426 A 10.217 10.217 0 0 1 4.605 33.209 A 10.217 10.217 0 0 1 14.822 22.992 A 10.217 10.217 0 0 1 25.039 33.209 Z" style="fill: rgb(255, 244, 201);"/>
      <path d="M 86.152 35.061 A 10.217 10.217 0 0 1 75.935 45.278 A 10.217 10.217 0 0 1 65.718 35.061 A 10.217 10.217 0 0 1 75.935 24.844 A 10.217 10.217 0 0 1 86.152 35.061 Z" style="fill: rgb(255, 244, 201);"/>
      <path d="M 15.398 9.24 C 15.398 12.205 12.995 14.608 10.03 14.608 C 7.065 14.608 4.662 12.205 4.662 9.24 C 4.662 6.275 7.065 3.872 10.03 3.872 C 12.995 3.872 15.398 6.275 15.398 9.24 Z" style="fill: rgb(255, 244, 201);"/>
    </g>
  </g>
  <path d="M -6.803 36.786 C -6.803 36.766 -6.8 36.746 -6.793 36.726 C -6.786 36.706 -6.776 36.686 -6.763 36.666 C -6.756 36.646 -6.743 36.629 -6.723 36.616 C -6.71 36.596 -6.693 36.586 -6.673 36.586 C -6.666 36.586 -6.66 36.589 -6.653 36.596 C -6.646 36.603 -6.64 36.609 -6.633 36.616 C -6.633 36.623 -6.63 36.633 -6.623 36.646 C -6.623 36.653 -6.623 36.663 -6.623 36.676 C -6.623 36.689 -6.62 36.699 -6.613 36.706 C -6.613 36.713 -6.613 36.719 -6.613 36.726 L -6.643 36.736 C -6.643 36.736 -6.643 36.729 -6.643 36.716 C -6.643 36.703 -6.646 36.693 -6.653 36.686 C -6.653 36.673 -6.656 36.663 -6.663 36.656 C -6.663 36.643 -6.67 36.636 -6.683 36.636 C -6.69 36.636 -6.7 36.643 -6.713 36.656 C -6.72 36.663 -6.726 36.676 -6.733 36.696 C -6.746 36.709 -6.753 36.723 -6.753 36.736 C -6.76 36.749 -6.763 36.763 -6.763 36.776 C -6.763 36.789 -6.76 36.803 -6.753 36.816 C -6.753 36.829 -6.75 36.843 -6.743 36.856 C -6.736 36.863 -6.73 36.869 -6.723 36.876 C -6.716 36.883 -6.706 36.886 -6.693 36.886 C -6.68 36.886 -6.67 36.883 -6.663 36.876 C -6.656 36.876 -6.646 36.873 -6.633 36.866 C -6.626 36.859 -6.62 36.853 -6.613 36.846 C -6.6 36.846 -6.59 36.846 -6.583 36.846 C -6.583 36.859 -6.586 36.869 -6.593 36.876 C -6.6 36.889 -6.61 36.899 -6.623 36.906 C -6.636 36.913 -6.646 36.916 -6.653 36.916 C -6.666 36.923 -6.68 36.926 -6.693 36.926 C -6.706 36.926 -6.72 36.923 -6.733 36.916 C -6.746 36.903 -6.756 36.889 -6.763 36.876 C -6.776 36.869 -6.786 36.856 -6.793 36.836 C -6.8 36.823 -6.803 36.806 -6.803 36.786 Z M -6.893 36.746 C -6.893 36.719 -6.89 36.693 -6.883 36.666 C -6.876 36.633 -6.866 36.606 -6.853 36.586 C -6.84 36.559 -6.82 36.539 -6.793 36.526 C -6.766 36.506 -6.736 36.496 -6.703 36.496 C -6.676 36.496 -6.653 36.499 -6.633 36.506 C -6.613 36.519 -6.593 36.533 -6.573 36.546 C -6.56 36.559 -6.546 36.576 -6.533 36.596 C -6.52 36.623 -6.51 36.646 -6.503 36.666 C -6.49 36.686 -6.483 36.709 -6.483 36.736 C -6.476 36.763 -6.476 36.786 -6.483 36.806 C -6.483 36.846 -6.49 36.883 -6.503 36.916 C -6.523 36.943 -6.543 36.966 -6.563 36.986 C -6.583 37.006 -6.606 37.019 -6.633 37.026 C -6.66 37.033 -6.686 37.036 -6.713 37.036 C -6.74 37.036 -6.763 37.033 -6.783 37.026 C -6.803 37.019 -6.82 37.006 -6.833 36.986 C -6.846 36.973 -6.856 36.956 -6.863 36.936 C -6.87 36.916 -6.876 36.896 -6.883 36.876 C -6.89 36.849 -6.893 36.826 -6.893 36.806 C -6.893 36.786 -6.893 36.766 -6.893 36.746 Z M -6.863 36.746 C -6.863 36.759 -6.863 36.776 -6.863 36.796 C -6.856 36.809 -6.853 36.826 -6.853 36.846 C -6.853 36.866 -6.85 36.883 -6.843 36.896 C -6.836 36.916 -6.83 36.933 -6.823 36.946 C -6.81 36.959 -6.796 36.969 -6.783 36.976 C -6.77 36.983 -6.753 36.986 -6.733 36.986 C -6.706 36.993 -6.68 36.993 -6.653 36.986 C -6.633 36.986 -6.613 36.976 -6.593 36.956 C -6.573 36.943 -6.556 36.923 -6.543 36.896 C -6.53 36.876 -6.52 36.846 -6.513 36.806 C -6.513 36.793 -6.513 36.776 -6.513 36.756 C -6.52 36.736 -6.526 36.716 -6.533 36.696 C -6.54 36.676 -6.55 36.656 -6.563 36.636 C -6.57 36.616 -6.583 36.596 -6.603 36.576 C -6.616 36.563 -6.633 36.549 -6.653 36.536 C -6.666 36.529 -6.683 36.526 -6.703 36.526 C -6.73 36.526 -6.753 36.536 -6.773 36.556 C -6.793 36.569 -6.81 36.589 -6.823 36.616 C -6.836 36.636 -6.846 36.659 -6.853 36.686 C -6.86 36.706 -6.863 36.726 -6.863 36.746 ZM -6.157 36.496 L -6.257 36.746 L -6.287 36.746 L -6.377 36.586 L -6.377 36.966 L -6.407 36.976 C -6.413 36.956 -6.417 36.929 -6.417 36.896 C -6.417 36.863 -6.417 36.829 -6.417 36.796 C -6.417 36.763 -6.417 36.726 -6.417 36.686 C -6.417 36.646 -6.417 36.609 -6.417 36.576 C -6.417 36.543 -6.42 36.509 -6.427 36.476 C -6.427 36.449 -6.427 36.426 -6.427 36.406 C -6.42 36.406 -6.417 36.406 -6.417 36.406 C -6.41 36.406 -6.407 36.406 -6.407 36.406 C -6.4 36.406 -6.397 36.406 -6.397 36.406 C -6.397 36.406 -6.393 36.409 -6.387 36.416 L -6.267 36.686 L -6.167 36.426 C -6.167 36.426 -6.167 36.426 -6.167 36.426 C -6.16 36.419 -6.157 36.416 -6.157 36.416 C -6.15 36.416 -6.143 36.416 -6.137 36.416 C -6.137 36.409 -6.133 36.406 -6.127 36.406 C -6.127 36.406 -6.127 36.409 -6.127 36.416 C -6.127 36.416 -6.127 36.423 -6.127 36.436 C -6.127 36.443 -6.127 36.459 -6.127 36.486 C -6.12 36.506 -6.113 36.536 -6.107 36.576 C -6.1 36.616 -6.093 36.669 -6.087 36.736 C -6.08 36.796 -6.07 36.873 -6.057 36.966 C -6.057 36.973 -6.057 36.976 -6.057 36.976 C -6.063 36.983 -6.07 36.986 -6.077 36.986 C -6.077 36.979 -6.077 36.976 -6.077 36.976 C -6.083 36.976 -6.087 36.973 -6.087 36.966 L -6.157 36.496 ZM -6.015 36.906 C -6.015 36.873 -6.009 36.849 -5.995 36.836 C -5.975 36.823 -5.949 36.816 -5.915 36.816 C -5.909 36.816 -5.899 36.816 -5.885 36.816 C -5.872 36.816 -5.862 36.816 -5.855 36.816 C -5.849 36.823 -5.839 36.826 -5.825 36.826 C -5.819 36.833 -5.809 36.839 -5.795 36.846 C -5.795 36.846 -5.795 36.843 -5.795 36.836 C -5.795 36.836 -5.795 36.833 -5.795 36.826 C -5.795 36.819 -5.795 36.813 -5.795 36.806 C -5.795 36.799 -5.795 36.796 -5.795 36.796 C -5.795 36.783 -5.795 36.766 -5.795 36.746 C -5.795 36.733 -5.799 36.716 -5.805 36.696 C -5.805 36.683 -5.809 36.666 -5.815 36.646 C -5.829 36.633 -5.842 36.623 -5.855 36.616 C -5.869 36.616 -5.882 36.616 -5.895 36.616 C -5.902 36.623 -5.912 36.629 -5.925 36.636 C -5.932 36.636 -5.942 36.639 -5.955 36.646 C -5.969 36.653 -5.979 36.656 -5.985 36.656 C -5.985 36.636 -5.982 36.623 -5.975 36.616 C -5.969 36.603 -5.959 36.596 -5.945 36.596 C -5.932 36.589 -5.919 36.586 -5.905 36.586 C -5.892 36.579 -5.879 36.576 -5.865 36.576 C -5.852 36.583 -5.842 36.586 -5.835 36.586 C -5.829 36.586 -5.822 36.589 -5.815 36.596 C -5.802 36.603 -5.792 36.616 -5.785 36.636 C -5.779 36.649 -5.775 36.669 -5.775 36.696 C -5.769 36.716 -5.762 36.746 -5.755 36.786 C -5.755 36.826 -5.752 36.876 -5.745 36.936 C -5.745 36.943 -5.749 36.949 -5.755 36.956 C -5.762 36.963 -5.772 36.966 -5.785 36.966 C -5.792 36.973 -5.802 36.976 -5.815 36.976 C -5.829 36.983 -5.842 36.986 -5.855 36.986 C -5.869 36.986 -5.882 36.986 -5.895 36.986 C -5.909 36.986 -5.919 36.986 -5.925 36.986 C -5.939 36.986 -5.949 36.986 -5.955 36.986 C -5.969 36.979 -5.979 36.973 -5.985 36.966 C -5.999 36.959 -6.005 36.953 -6.005 36.946 C -6.012 36.933 -6.015 36.919 -6.015 36.906 Z M -5.905 36.846 C -5.932 36.859 -5.952 36.869 -5.965 36.876 C -5.979 36.889 -5.985 36.903 -5.985 36.916 C -5.979 36.923 -5.972 36.929 -5.965 36.936 C -5.952 36.949 -5.935 36.956 -5.915 36.956 C -5.895 36.956 -5.875 36.956 -5.855 36.956 C -5.835 36.949 -5.815 36.936 -5.795 36.916 C -5.802 36.903 -5.812 36.889 -5.825 36.876 C -5.832 36.869 -5.839 36.863 -5.845 36.856 C -5.852 36.856 -5.862 36.853 -5.875 36.846 C -5.882 36.846 -5.892 36.846 -5.905 36.846 ZM -5.841 37.196 C -5.841 37.176 -5.838 37.163 -5.831 37.156 C -5.825 37.149 -5.811 37.146 -5.791 37.146 C -5.798 37.153 -5.801 37.159 -5.801 37.166 C -5.801 37.179 -5.805 37.189 -5.811 37.196 C -5.811 37.203 -5.811 37.206 -5.811 37.206 C -5.811 37.213 -5.808 37.216 -5.801 37.216 C -5.781 37.229 -5.761 37.236 -5.741 37.236 C -5.721 37.243 -5.698 37.246 -5.671 37.246 C -5.645 37.246 -5.618 37.239 -5.591 37.226 C -5.565 37.213 -5.545 37.196 -5.531 37.176 C -5.518 37.156 -5.505 37.133 -5.491 37.106 C -5.485 37.079 -5.481 37.053 -5.481 37.026 C -5.481 36.999 -5.481 36.969 -5.481 36.936 C -5.488 36.909 -5.495 36.883 -5.501 36.856 C -5.508 36.869 -5.518 36.883 -5.531 36.896 C -5.538 36.909 -5.548 36.919 -5.561 36.926 C -5.575 36.939 -5.588 36.949 -5.601 36.956 C -5.615 36.963 -5.628 36.966 -5.641 36.966 C -5.661 36.966 -5.675 36.963 -5.681 36.956 C -5.688 36.949 -5.695 36.939 -5.701 36.926 C -5.701 36.919 -5.701 36.909 -5.701 36.896 C -5.701 36.883 -5.701 36.866 -5.701 36.846 C -5.701 36.833 -5.701 36.819 -5.701 36.806 C -5.701 36.786 -5.698 36.766 -5.691 36.746 C -5.691 36.733 -5.688 36.716 -5.681 36.696 C -5.675 36.683 -5.668 36.666 -5.661 36.646 C -5.648 36.633 -5.635 36.623 -5.621 36.616 C -5.608 36.609 -5.591 36.606 -5.571 36.606 C -5.565 36.606 -5.555 36.606 -5.541 36.606 C -5.528 36.613 -5.518 36.616 -5.511 36.616 C -5.498 36.623 -5.488 36.629 -5.481 36.636 C -5.475 36.649 -5.468 36.663 -5.461 36.676 C -5.461 36.703 -5.461 36.729 -5.461 36.756 C -5.455 36.789 -5.451 36.823 -5.451 36.856 C -5.445 36.889 -5.441 36.923 -5.441 36.956 C -5.441 36.989 -5.445 37.023 -5.451 37.056 C -5.458 37.083 -5.465 37.109 -5.471 37.136 C -5.485 37.163 -5.501 37.189 -5.521 37.216 C -5.535 37.236 -5.555 37.253 -5.581 37.266 C -5.615 37.273 -5.648 37.279 -5.681 37.286 C -5.701 37.286 -5.721 37.283 -5.741 37.276 C -5.755 37.276 -5.771 37.273 -5.791 37.266 C -5.805 37.259 -5.815 37.249 -5.821 37.236 C -5.835 37.229 -5.841 37.216 -5.841 37.196 Z M -5.671 36.846 C -5.671 36.853 -5.671 36.863 -5.671 36.876 C -5.671 36.883 -5.671 36.889 -5.671 36.896 C -5.671 36.903 -5.668 36.909 -5.661 36.916 C -5.661 36.923 -5.655 36.926 -5.641 36.926 C -5.628 36.926 -5.615 36.923 -5.601 36.916 C -5.588 36.909 -5.578 36.903 -5.571 36.896 C -5.565 36.883 -5.555 36.869 -5.541 36.856 C -5.535 36.843 -5.531 36.829 -5.531 36.816 C -5.525 36.796 -5.521 36.779 -5.521 36.766 C -5.515 36.753 -5.511 36.743 -5.511 36.736 C -5.511 36.723 -5.511 36.709 -5.511 36.696 C -5.511 36.689 -5.515 36.679 -5.521 36.666 C -5.528 36.659 -5.535 36.653 -5.541 36.646 C -5.555 36.639 -5.565 36.636 -5.571 36.636 C -5.585 36.636 -5.598 36.643 -5.611 36.656 C -5.625 36.663 -5.635 36.673 -5.641 36.686 C -5.648 36.693 -5.651 36.706 -5.651 36.726 C -5.658 36.739 -5.661 36.753 -5.661 36.766 C -5.668 36.786 -5.671 36.803 -5.671 36.816 C -5.671 36.829 -5.671 36.839 -5.671 36.846 ZM -5.4 36.776 C -5.4 36.763 -5.397 36.746 -5.39 36.726 C -5.377 36.699 -5.363 36.679 -5.35 36.666 C -5.337 36.646 -5.323 36.629 -5.31 36.616 C -5.29 36.603 -5.273 36.596 -5.26 36.596 C -5.247 36.596 -5.237 36.599 -5.23 36.606 C -5.217 36.606 -5.207 36.609 -5.2 36.616 C -5.193 36.623 -5.187 36.633 -5.18 36.646 C -5.167 36.653 -5.16 36.659 -5.16 36.666 C -5.153 36.679 -5.15 36.689 -5.15 36.696 C -5.15 36.703 -5.153 36.709 -5.16 36.716 L -5.34 36.756 C -5.347 36.756 -5.35 36.756 -5.35 36.756 C -5.35 36.763 -5.35 36.769 -5.35 36.776 C -5.357 36.783 -5.36 36.793 -5.36 36.806 C -5.36 36.813 -5.36 36.819 -5.36 36.826 C -5.36 36.839 -5.36 36.849 -5.36 36.856 C -5.36 36.863 -5.36 36.866 -5.36 36.866 C -5.36 36.886 -5.357 36.899 -5.35 36.906 C -5.343 36.919 -5.333 36.929 -5.32 36.936 C -5.307 36.936 -5.293 36.939 -5.28 36.946 C -5.26 36.946 -5.243 36.946 -5.23 36.946 C -5.217 36.946 -5.203 36.946 -5.19 36.946 C -5.177 36.946 -5.163 36.946 -5.15 36.946 C -5.15 36.946 -5.153 36.946 -5.16 36.946 C -5.16 36.953 -5.16 36.956 -5.16 36.956 C -5.167 36.963 -5.17 36.966 -5.17 36.966 C -5.17 36.966 -5.17 36.966 -5.17 36.966 C -5.177 36.973 -5.187 36.976 -5.2 36.976 C -5.207 36.976 -5.217 36.976 -5.23 36.976 C -5.237 36.983 -5.247 36.986 -5.26 36.986 C -5.267 36.986 -5.273 36.986 -5.28 36.986 C -5.293 36.993 -5.307 36.993 -5.32 36.986 C -5.333 36.979 -5.347 36.973 -5.36 36.966 C -5.367 36.953 -5.373 36.939 -5.38 36.926 C -5.387 36.913 -5.39 36.899 -5.39 36.886 C -5.397 36.866 -5.4 36.846 -5.4 36.826 C -5.4 36.813 -5.4 36.796 -5.4 36.776 Z M -5.27 36.626 C -5.277 36.626 -5.283 36.629 -5.29 36.636 C -5.297 36.643 -5.303 36.649 -5.31 36.656 C -5.323 36.669 -5.33 36.679 -5.33 36.686 C -5.337 36.693 -5.34 36.699 -5.34 36.706 C -5.32 36.713 -5.303 36.713 -5.29 36.706 C -5.277 36.706 -5.263 36.703 -5.25 36.696 C -5.23 36.696 -5.217 36.693 -5.21 36.686 C -5.203 36.679 -5.2 36.669 -5.2 36.656 C -5.2 36.649 -5.207 36.646 -5.22 36.646 C -5.227 36.639 -5.243 36.633 -5.27 36.626 ZM -4.717 36.956 L -4.757 36.546 C -4.757 36.546 -4.757 36.546 -4.757 36.546 C -4.757 36.539 -4.76 36.536 -4.767 36.536 C -4.767 36.529 -4.767 36.523 -4.767 36.516 C -4.767 36.516 -4.767 36.516 -4.767 36.516 C -4.767 36.509 -4.767 36.503 -4.767 36.496 C -4.76 36.496 -4.754 36.496 -4.747 36.496 C -4.74 36.496 -4.734 36.496 -4.727 36.496 C -4.72 36.496 -4.717 36.496 -4.717 36.496 C -4.717 36.496 -4.717 36.496 -4.717 36.496 C -4.71 36.496 -4.707 36.496 -4.707 36.496 C -4.7 36.496 -4.697 36.496 -4.697 36.496 C -4.69 36.496 -4.687 36.496 -4.687 36.496 C -4.667 36.503 -4.644 36.513 -4.617 36.526 C -4.597 36.533 -4.574 36.543 -4.547 36.556 C -4.52 36.569 -4.494 36.583 -4.467 36.596 C -4.44 36.609 -4.417 36.626 -4.397 36.646 C -4.377 36.666 -4.36 36.689 -4.347 36.716 C -4.334 36.736 -4.327 36.763 -4.327 36.796 C -4.327 36.816 -4.334 36.836 -4.347 36.856 C -4.354 36.876 -4.367 36.893 -4.387 36.906 C -4.4 36.919 -4.417 36.933 -4.437 36.946 C -4.457 36.959 -4.477 36.966 -4.497 36.966 C -4.517 36.973 -4.54 36.979 -4.567 36.986 C -4.587 36.986 -4.607 36.986 -4.627 36.986 C -4.627 36.986 -4.634 36.986 -4.647 36.986 C -4.654 36.986 -4.664 36.986 -4.677 36.986 C -4.69 36.986 -4.7 36.986 -4.707 36.986 C -4.714 36.986 -4.717 36.986 -4.717 36.986 L -4.717 36.956 Z M -4.707 36.546 C -4.707 36.546 -4.707 36.546 -4.707 36.546 C -4.707 36.553 -4.707 36.559 -4.707 36.566 C -4.707 36.566 -4.707 36.569 -4.707 36.576 C -4.707 36.576 -4.707 36.579 -4.707 36.586 C -4.7 36.593 -4.697 36.606 -4.697 36.626 C -4.697 36.646 -4.697 36.666 -4.697 36.686 C -4.697 36.713 -4.697 36.739 -4.697 36.766 C -4.697 36.793 -4.694 36.819 -4.687 36.846 C -4.687 36.866 -4.687 36.886 -4.687 36.906 C -4.687 36.926 -4.687 36.943 -4.687 36.956 C -4.68 36.956 -4.674 36.956 -4.667 36.956 C -4.66 36.956 -4.654 36.956 -4.647 36.956 C -4.634 36.956 -4.624 36.956 -4.617 36.956 C -4.61 36.956 -4.604 36.956 -4.597 36.956 C -4.57 36.956 -4.544 36.953 -4.517 36.946 C -4.497 36.939 -4.474 36.929 -4.447 36.916 C -4.427 36.903 -4.41 36.883 -4.397 36.856 C -4.384 36.836 -4.377 36.813 -4.377 36.786 C -4.377 36.759 -4.384 36.736 -4.397 36.716 C -4.404 36.696 -4.417 36.676 -4.437 36.656 C -4.457 36.643 -4.477 36.626 -4.497 36.606 C -4.517 36.593 -4.54 36.583 -4.567 36.576 C -4.587 36.563 -4.61 36.553 -4.637 36.546 C -4.664 36.546 -4.687 36.546 -4.707 36.546 ZM -4.295 36.776 C -4.295 36.763 -4.291 36.746 -4.285 36.726 C -4.271 36.699 -4.258 36.679 -4.245 36.666 C -4.231 36.646 -4.218 36.629 -4.205 36.616 C -4.185 36.603 -4.168 36.596 -4.155 36.596 C -4.141 36.596 -4.131 36.599 -4.125 36.606 C -4.111 36.606 -4.101 36.609 -4.095 36.616 C -4.088 36.623 -4.081 36.633 -4.075 36.646 C -4.061 36.653 -4.055 36.659 -4.055 36.666 C -4.048 36.679 -4.045 36.689 -4.045 36.696 C -4.045 36.703 -4.048 36.709 -4.055 36.716 L -4.235 36.756 C -4.241 36.756 -4.245 36.756 -4.245 36.756 C -4.245 36.763 -4.245 36.769 -4.245 36.776 C -4.251 36.783 -4.255 36.793 -4.255 36.806 C -4.255 36.813 -4.255 36.819 -4.255 36.826 C -4.255 36.839 -4.255 36.849 -4.255 36.856 C -4.255 36.863 -4.255 36.866 -4.255 36.866 C -4.255 36.886 -4.251 36.899 -4.245 36.906 C -4.238 36.919 -4.228 36.929 -4.215 36.936 C -4.201 36.936 -4.188 36.939 -4.175 36.946 C -4.155 36.946 -4.138 36.946 -4.125 36.946 C -4.111 36.946 -4.098 36.946 -4.085 36.946 C -4.071 36.946 -4.058 36.946 -4.045 36.946 C -4.045 36.946 -4.048 36.946 -4.055 36.946 C -4.055 36.953 -4.055 36.956 -4.055 36.956 C -4.061 36.963 -4.065 36.966 -4.065 36.966 C -4.065 36.966 -4.065 36.966 -4.065 36.966 C -4.071 36.973 -4.081 36.976 -4.095 36.976 C -4.101 36.976 -4.111 36.976 -4.125 36.976 C -4.131 36.983 -4.141 36.986 -4.155 36.986 C -4.161 36.986 -4.168 36.986 -4.175 36.986 C -4.188 36.993 -4.201 36.993 -4.215 36.986 C -4.228 36.979 -4.241 36.973 -4.255 36.966 C -4.261 36.953 -4.268 36.939 -4.275 36.926 C -4.281 36.913 -4.285 36.899 -4.285 36.886 C -4.291 36.866 -4.295 36.846 -4.295 36.826 C -4.295 36.813 -4.295 36.796 -4.295 36.776 Z M -4.165 36.626 C -4.171 36.626 -4.178 36.629 -4.185 36.636 C -4.191 36.643 -4.198 36.649 -4.205 36.656 C -4.218 36.669 -4.225 36.679 -4.225 36.686 C -4.231 36.693 -4.235 36.699 -4.235 36.706 C -4.215 36.713 -4.198 36.713 -4.185 36.706 C -4.171 36.706 -4.158 36.703 -4.145 36.696 C -4.125 36.696 -4.111 36.693 -4.105 36.686 C -4.098 36.679 -4.095 36.669 -4.095 36.656 C -4.095 36.649 -4.101 36.646 -4.115 36.646 C -4.121 36.639 -4.138 36.633 -4.165 36.626 ZM -3.999 36.646 C -3.999 36.639 -3.999 36.636 -3.999 36.636 C -3.992 36.636 -3.986 36.633 -3.979 36.626 C -3.979 36.626 -3.976 36.626 -3.969 36.626 C -3.962 36.626 -3.959 36.626 -3.959 36.626 C -3.952 36.699 -3.946 36.759 -3.939 36.806 C -3.926 36.846 -3.912 36.876 -3.899 36.896 C -3.886 36.916 -3.872 36.926 -3.859 36.926 C -3.839 36.926 -3.822 36.919 -3.809 36.906 C -3.796 36.893 -3.782 36.876 -3.769 36.856 C -3.756 36.829 -3.746 36.803 -3.739 36.776 C -3.732 36.749 -3.729 36.723 -3.729 36.696 C -3.722 36.669 -3.722 36.646 -3.729 36.626 L -3.679 36.626 C -3.679 36.633 -3.679 36.646 -3.679 36.666 C -3.672 36.686 -3.669 36.709 -3.669 36.736 C -3.662 36.763 -3.659 36.789 -3.659 36.816 C -3.652 36.843 -3.649 36.869 -3.649 36.896 C -3.642 36.916 -3.639 36.936 -3.639 36.956 C -3.632 36.969 -3.629 36.979 -3.629 36.986 L -3.669 36.986 L -3.709 36.836 C -3.722 36.856 -3.732 36.876 -3.739 36.896 C -3.752 36.909 -3.766 36.923 -3.779 36.936 C -3.792 36.956 -3.806 36.969 -3.819 36.976 C -3.839 36.983 -3.856 36.986 -3.869 36.986 C -3.882 36.979 -3.896 36.973 -3.909 36.966 C -3.922 36.953 -3.936 36.933 -3.949 36.906 C -3.962 36.879 -3.972 36.843 -3.979 36.796 C -3.992 36.756 -3.999 36.706 -3.999 36.646 ZM -3.587 36.986 C -3.587 36.973 -3.587 36.956 -3.587 36.936 C -3.587 36.923 -3.59 36.903 -3.597 36.876 C -3.597 36.856 -3.597 36.833 -3.597 36.806 C -3.597 36.786 -3.597 36.763 -3.597 36.736 C -3.597 36.716 -3.597 36.696 -3.597 36.676 C -3.597 36.663 -3.6 36.649 -3.607 36.636 C -3.607 36.636 -3.607 36.636 -3.607 36.636 C -3.607 36.629 -3.607 36.626 -3.607 36.626 C -3.607 36.626 -3.607 36.623 -3.607 36.616 C -3.607 36.616 -3.607 36.616 -3.607 36.616 C -3.593 36.609 -3.587 36.606 -3.587 36.606 C -3.58 36.606 -3.573 36.613 -3.567 36.626 C -3.56 36.633 -3.557 36.643 -3.557 36.656 C -3.557 36.663 -3.557 36.673 -3.557 36.686 C -3.557 36.699 -3.557 36.709 -3.557 36.716 C -3.557 36.729 -3.557 36.736 -3.557 36.736 C -3.55 36.729 -3.547 36.719 -3.547 36.706 C -3.547 36.693 -3.543 36.679 -3.537 36.666 C -3.53 36.653 -3.523 36.636 -3.517 36.616 C -3.51 36.603 -3.503 36.593 -3.497 36.586 C -3.483 36.573 -3.47 36.563 -3.457 36.556 C -3.45 36.549 -3.437 36.549 -3.417 36.556 C -3.39 36.556 -3.37 36.563 -3.357 36.576 C -3.337 36.589 -3.323 36.606 -3.317 36.626 C -3.303 36.646 -3.297 36.669 -3.297 36.696 C -3.29 36.729 -3.287 36.759 -3.287 36.786 C -3.287 36.819 -3.287 36.853 -3.287 36.886 C -3.287 36.919 -3.287 36.949 -3.287 36.976 C -3.287 36.983 -3.29 36.986 -3.297 36.986 C -3.303 36.986 -3.31 36.986 -3.317 36.986 C -3.317 36.986 -3.317 36.986 -3.317 36.986 C -3.323 36.979 -3.323 36.969 -3.317 36.956 C -3.317 36.943 -3.317 36.926 -3.317 36.906 C -3.317 36.879 -3.317 36.853 -3.317 36.826 C -3.317 36.799 -3.317 36.773 -3.317 36.746 C -3.323 36.719 -3.33 36.693 -3.337 36.666 C -3.343 36.646 -3.353 36.626 -3.367 36.606 C -3.38 36.593 -3.4 36.586 -3.427 36.586 C -3.453 36.599 -3.473 36.619 -3.487 36.646 C -3.5 36.673 -3.513 36.703 -3.527 36.736 C -3.533 36.776 -3.54 36.816 -3.547 36.856 C -3.553 36.903 -3.557 36.946 -3.557 36.986 C -3.557 36.986 -3.557 36.986 -3.557 36.986 C -3.563 36.986 -3.567 36.986 -3.567 36.986 C -3.573 36.986 -3.577 36.986 -3.577 36.986 C -3.583 36.986 -3.587 36.986 -3.587 36.986 ZM -3.371 37.196 C -3.371 37.176 -3.368 37.163 -3.361 37.156 C -3.355 37.149 -3.341 37.146 -3.321 37.146 C -3.328 37.153 -3.331 37.159 -3.331 37.166 C -3.331 37.179 -3.335 37.189 -3.341 37.196 C -3.341 37.203 -3.341 37.206 -3.341 37.206 C -3.341 37.213 -3.338 37.216 -3.331 37.216 C -3.311 37.229 -3.291 37.236 -3.271 37.236 C -3.251 37.243 -3.228 37.246 -3.201 37.246 C -3.175 37.246 -3.148 37.239 -3.121 37.226 C -3.095 37.213 -3.075 37.196 -3.061 37.176 C -3.048 37.156 -3.035 37.133 -3.021 37.106 C -3.015 37.079 -3.011 37.053 -3.011 37.026 C -3.011 36.999 -3.011 36.969 -3.011 36.936 C -3.018 36.909 -3.025 36.883 -3.031 36.856 C -3.038 36.869 -3.048 36.883 -3.061 36.896 C -3.068 36.909 -3.078 36.919 -3.091 36.926 C -3.105 36.939 -3.118 36.949 -3.131 36.956 C -3.145 36.963 -3.158 36.966 -3.171 36.966 C -3.191 36.966 -3.205 36.963 -3.211 36.956 C -3.218 36.949 -3.225 36.939 -3.231 36.926 C -3.231 36.919 -3.231 36.909 -3.231 36.896 C -3.231 36.883 -3.231 36.866 -3.231 36.846 C -3.231 36.833 -3.231 36.819 -3.231 36.806 C -3.231 36.786 -3.228 36.766 -3.221 36.746 C -3.221 36.733 -3.218 36.716 -3.211 36.696 C -3.205 36.683 -3.198 36.666 -3.191 36.646 C -3.178 36.633 -3.165 36.623 -3.151 36.616 C -3.138 36.609 -3.121 36.606 -3.101 36.606 C -3.095 36.606 -3.085 36.606 -3.071 36.606 C -3.058 36.613 -3.048 36.616 -3.041 36.616 C -3.028 36.623 -3.018 36.629 -3.011 36.636 C -3.005 36.649 -2.998 36.663 -2.991 36.676 C -2.991 36.703 -2.991 36.729 -2.991 36.756 C -2.985 36.789 -2.981 36.823 -2.981 36.856 C -2.975 36.889 -2.971 36.923 -2.971 36.956 C -2.971 36.989 -2.975 37.023 -2.981 37.056 C -2.988 37.083 -2.995 37.109 -3.001 37.136 C -3.015 37.163 -3.031 37.189 -3.051 37.216 C -3.065 37.236 -3.085 37.253 -3.111 37.266 C -3.145 37.273 -3.178 37.279 -3.211 37.286 C -3.231 37.286 -3.251 37.283 -3.271 37.276 C -3.285 37.276 -3.301 37.273 -3.321 37.266 C -3.335 37.259 -3.345 37.249 -3.351 37.236 C -3.365 37.229 -3.371 37.216 -3.371 37.196 Z M -3.201 36.846 C -3.201 36.853 -3.201 36.863 -3.201 36.876 C -3.201 36.883 -3.201 36.889 -3.201 36.896 C -3.201 36.903 -3.198 36.909 -3.191 36.916 C -3.191 36.923 -3.185 36.926 -3.171 36.926 C -3.158 36.926 -3.145 36.923 -3.131 36.916 C -3.118 36.909 -3.108 36.903 -3.101 36.896 C -3.095 36.883 -3.085 36.869 -3.071 36.856 C -3.065 36.843 -3.061 36.829 -3.061 36.816 C -3.055 36.796 -3.051 36.779 -3.051 36.766 C -3.045 36.753 -3.041 36.743 -3.041 36.736 C -3.041 36.723 -3.041 36.709 -3.041 36.696 C -3.041 36.689 -3.045 36.679 -3.051 36.666 C -3.058 36.659 -3.065 36.653 -3.071 36.646 C -3.085 36.639 -3.095 36.636 -3.101 36.636 C -3.115 36.636 -3.128 36.643 -3.141 36.656 C -3.155 36.663 -3.165 36.673 -3.171 36.686 C -3.178 36.693 -3.181 36.706 -3.181 36.726 C -3.188 36.739 -3.191 36.753 -3.191 36.766 C -3.198 36.786 -3.201 36.803 -3.201 36.816 C -3.201 36.829 -3.201 36.839 -3.201 36.846 ZM -2.93 36.906 C -2.93 36.873 -2.923 36.849 -2.91 36.836 C -2.89 36.823 -2.863 36.816 -2.83 36.816 C -2.823 36.816 -2.813 36.816 -2.8 36.816 C -2.786 36.816 -2.776 36.816 -2.77 36.816 C -2.763 36.823 -2.753 36.826 -2.74 36.826 C -2.733 36.833 -2.723 36.839 -2.71 36.846 C -2.71 36.846 -2.71 36.843 -2.71 36.836 C -2.71 36.836 -2.71 36.833 -2.71 36.826 C -2.71 36.819 -2.71 36.813 -2.71 36.806 C -2.71 36.799 -2.71 36.796 -2.71 36.796 C -2.71 36.783 -2.71 36.766 -2.71 36.746 C -2.71 36.733 -2.713 36.716 -2.72 36.696 C -2.72 36.683 -2.723 36.666 -2.73 36.646 C -2.743 36.633 -2.756 36.623 -2.77 36.616 C -2.783 36.616 -2.796 36.616 -2.81 36.616 C -2.816 36.623 -2.826 36.629 -2.84 36.636 C -2.846 36.636 -2.856 36.639 -2.87 36.646 C -2.883 36.653 -2.893 36.656 -2.9 36.656 C -2.9 36.636 -2.896 36.623 -2.89 36.616 C -2.883 36.603 -2.873 36.596 -2.86 36.596 C -2.846 36.589 -2.833 36.586 -2.82 36.586 C -2.806 36.579 -2.793 36.576 -2.78 36.576 C -2.766 36.583 -2.756 36.586 -2.75 36.586 C -2.743 36.586 -2.736 36.589 -2.73 36.596 C -2.716 36.603 -2.706 36.616 -2.7 36.636 C -2.693 36.649 -2.69 36.669 -2.69 36.696 C -2.683 36.716 -2.676 36.746 -2.67 36.786 C -2.67 36.826 -2.666 36.876 -2.66 36.936 C -2.66 36.943 -2.663 36.949 -2.67 36.956 C -2.676 36.963 -2.686 36.966 -2.7 36.966 C -2.706 36.973 -2.716 36.976 -2.73 36.976 C -2.743 36.983 -2.756 36.986 -2.77 36.986 C -2.783 36.986 -2.796 36.986 -2.81 36.986 C -2.823 36.986 -2.833 36.986 -2.84 36.986 C -2.853 36.986 -2.863 36.986 -2.87 36.986 C -2.883 36.979 -2.893 36.973 -2.9 36.966 C -2.913 36.959 -2.92 36.953 -2.92 36.946 C -2.926 36.933 -2.93 36.919 -2.93 36.906 Z M -2.82 36.846 C -2.846 36.859 -2.866 36.869 -2.88 36.876 C -2.893 36.889 -2.9 36.903 -2.9 36.916 C -2.893 36.923 -2.886 36.929 -2.88 36.936 C -2.866 36.949 -2.85 36.956 -2.83 36.956 C -2.81 36.956 -2.79 36.956 -2.77 36.956 C -2.75 36.949 -2.73 36.936 -2.71 36.916 C -2.716 36.903 -2.726 36.889 -2.74 36.876 C -2.746 36.869 -2.753 36.863 -2.76 36.856 C -2.766 36.856 -2.776 36.853 -2.79 36.846 C -2.796 36.846 -2.806 36.846 -2.82 36.846 ZM -2.636 36.646 C -2.629 36.639 -2.623 36.639 -2.616 36.646 C -2.609 36.646 -2.606 36.649 -2.606 36.656 C -2.599 36.656 -2.596 36.659 -2.596 36.666 C -2.596 36.673 -2.593 36.679 -2.586 36.686 C -2.579 36.673 -2.569 36.663 -2.556 36.656 C -2.543 36.649 -2.529 36.643 -2.516 36.636 C -2.496 36.636 -2.479 36.636 -2.466 36.636 C -2.446 36.636 -2.429 36.639 -2.416 36.646 C -2.409 36.653 -2.403 36.659 -2.396 36.666 C -2.389 36.679 -2.389 36.693 -2.396 36.706 C -2.416 36.693 -2.433 36.686 -2.446 36.686 C -2.466 36.679 -2.483 36.676 -2.496 36.676 C -2.509 36.676 -2.523 36.683 -2.536 36.696 C -2.549 36.703 -2.563 36.719 -2.576 36.746 C -2.583 36.766 -2.586 36.796 -2.586 36.836 C -2.593 36.869 -2.593 36.913 -2.586 36.966 L -2.616 36.966 C -2.616 36.966 -2.616 36.963 -2.616 36.956 C -2.616 36.943 -2.616 36.929 -2.616 36.916 C -2.623 36.903 -2.626 36.886 -2.626 36.866 C -2.626 36.846 -2.626 36.826 -2.626 36.806 C -2.626 36.786 -2.626 36.766 -2.626 36.746 C -2.633 36.726 -2.636 36.709 -2.636 36.696 C -2.636 36.696 -2.636 36.693 -2.636 36.686 C -2.636 36.686 -2.636 36.683 -2.636 36.676 C -2.636 36.669 -2.636 36.663 -2.636 36.656 C -2.636 36.649 -2.636 36.646 -2.636 36.646 ZM -2.357 36.826 C -2.357 36.813 -2.357 36.796 -2.357 36.776 C -2.351 36.763 -2.344 36.746 -2.337 36.726 C -2.337 36.706 -2.331 36.686 -2.317 36.666 C -2.311 36.653 -2.304 36.639 -2.297 36.626 C -2.284 36.613 -2.271 36.599 -2.257 36.586 C -2.237 36.579 -2.221 36.576 -2.207 36.576 C -2.187 36.576 -2.171 36.583 -2.157 36.596 C -2.137 36.609 -2.121 36.626 -2.107 36.646 C -2.101 36.666 -2.094 36.689 -2.087 36.716 C -2.081 36.743 -2.077 36.766 -2.077 36.786 C -2.077 36.826 -2.084 36.859 -2.097 36.886 C -2.111 36.913 -2.127 36.933 -2.147 36.946 C -2.167 36.966 -2.191 36.979 -2.217 36.986 C -2.244 36.993 -2.267 36.989 -2.287 36.976 C -2.307 36.969 -2.324 36.953 -2.337 36.926 C -2.351 36.899 -2.357 36.866 -2.357 36.826 Z M -2.327 36.826 C -2.321 36.866 -2.314 36.896 -2.307 36.916 C -2.294 36.929 -2.281 36.939 -2.267 36.946 C -2.254 36.953 -2.237 36.953 -2.217 36.946 C -2.197 36.946 -2.181 36.936 -2.167 36.916 C -2.154 36.903 -2.141 36.886 -2.127 36.866 C -2.121 36.839 -2.114 36.813 -2.107 36.786 C -2.107 36.766 -2.111 36.746 -2.117 36.726 C -2.124 36.706 -2.131 36.689 -2.137 36.676 C -2.144 36.656 -2.154 36.643 -2.167 36.636 C -2.174 36.629 -2.187 36.626 -2.207 36.626 C -2.221 36.626 -2.231 36.629 -2.237 36.636 C -2.251 36.643 -2.261 36.649 -2.267 36.656 C -2.281 36.669 -2.291 36.686 -2.297 36.706 C -2.304 36.719 -2.307 36.733 -2.307 36.746 C -2.314 36.759 -2.317 36.776 -2.317 36.796 C -2.324 36.809 -2.327 36.819 -2.327 36.826 Z" style="fill: rgba(102, 78, 76, 0.59); white-space: pre;"/>
</svg>