<?xml version="1.0" encoding="utf-8"?>
<svg viewBox="252.612 108.939 16 16" width="16" height="16" xmlns="http://www.w3.org/2000/svg">
  <g transform="matrix(0.395804, 0, 0, 0.395805, 150.731964, 63.925339)">
    <rect x="257.4" y="113.727" width="40.424" height="40.424" rx="5" ry="5" style="fill: rgb(247, 247, 247);"/>
    <path d="M 271.947 142.339 L 271.947 140.439 L 273.027 140.439 L 273.027 127.439 L 271.947 127.439 L 271.947 125.539 L 277.417 125.539 C 278.204 125.539 278.92 125.619 279.567 125.779 C 280.214 125.939 280.767 126.186 281.227 126.519 C 281.68 126.859 282.034 127.296 282.287 127.829 C 282.547 128.369 282.677 129.006 282.677 129.739 C 282.677 130.732 282.44 131.606 281.967 132.359 C 281.494 133.106 280.777 133.616 279.817 133.889 C 280.264 133.989 280.7 134.149 281.127 134.369 C 281.554 134.596 281.92 134.886 282.227 135.239 C 282.54 135.586 282.794 135.992 282.987 136.459 C 283.18 136.926 283.277 137.446 283.277 138.019 C 283.277 138.739 283.124 139.366 282.817 139.899 C 282.517 140.439 282.114 140.889 281.607 141.249 C 281.1 141.609 280.52 141.879 279.867 142.059 C 279.214 142.246 278.54 142.339 277.847 142.339 L 271.947 142.339 Z M 277.347 134.829 L 275.017 134.829 L 275.017 140.439 L 277.687 140.439 C 278.18 140.439 278.644 140.386 279.077 140.279 C 279.51 140.166 279.89 139.992 280.217 139.759 C 280.544 139.526 280.804 139.242 280.997 138.909 C 281.19 138.569 281.287 138.169 281.287 137.709 C 281.287 137.209 281.174 136.776 280.947 136.409 C 280.72 136.042 280.427 135.742 280.067 135.509 C 279.707 135.276 279.287 135.106 278.807 134.999 C 278.327 134.886 277.84 134.829 277.347 134.829 Z M 277.567 127.439 L 275.017 127.439 L 275.017 132.929 L 277.607 132.929 C 278.554 132.929 279.304 132.666 279.857 132.139 C 280.41 131.612 280.687 130.916 280.687 130.049 C 280.687 129.109 280.397 128.439 279.817 128.039 C 279.244 127.639 278.494 127.439 277.567 127.439 Z" style="white-space: pre; fill: rgb(239, 79, 92);"/>
  </g>
</svg>