<?xml version="1.0" encoding="utf-8"?>
<svg viewBox="252.612 108.939 16 16" width="16" height="16" xmlns="http://www.w3.org/2000/svg">
  <g transform="matrix(0.395804, 0, 0, 0.395805, 150.731964, 63.925339)">
    <rect x="257.4" y="113.727" width="40.424" height="40.424" rx="5" ry="5" style="fill: rgb(247, 247, 247);"/>
    <path d="M 284.092 129.239 L 282.192 129.239 L 282.192 127.769 C 281.392 127.416 280.562 127.239 279.702 127.239 C 278.789 127.239 277.935 127.416 277.142 127.769 C 276.349 128.122 275.652 128.606 275.052 129.219 C 274.452 129.839 273.982 130.556 273.642 131.369 C 273.295 132.189 273.122 133.052 273.122 133.959 C 273.122 134.872 273.295 135.739 273.642 136.559 C 273.982 137.372 274.452 138.079 275.052 138.679 C 275.652 139.279 276.349 139.756 277.142 140.109 C 277.935 140.462 278.789 140.639 279.702 140.639 C 280.882 140.639 281.979 140.342 282.992 139.749 L 284.072 141.329 C 283.432 141.696 282.745 141.989 282.012 142.209 C 281.285 142.422 280.515 142.529 279.702 142.529 C 278.515 142.529 277.402 142.306 276.362 141.859 C 275.322 141.412 274.415 140.799 273.642 140.019 C 272.862 139.246 272.249 138.339 271.802 137.299 C 271.355 136.259 271.132 135.146 271.132 133.959 C 271.132 132.779 271.355 131.666 271.802 130.619 C 272.249 129.566 272.862 128.652 273.642 127.879 C 274.415 127.106 275.322 126.489 276.362 126.029 C 277.402 125.576 278.515 125.349 279.702 125.349 C 280.515 125.349 281.285 125.452 282.012 125.659 C 282.745 125.866 283.439 126.162 284.092 126.549 L 284.092 129.239 Z" style="white-space: pre; fill: rgb(239, 79, 92);"/>
  </g>
</svg>