<?xml version="1.0" encoding="utf-8"?>
<svg viewBox="-53.7 -2.578 188.543 223.215" xmlns="http://www.w3.org/2000/svg">
  <g transform="matrix(1, 0, 0, 1, -90.798997, -38.527997)">
    <g transform="matrix(1, 0, 0, 1, -41.146, -2.578001)">
      <ellipse style="fill: rgb(80, 14, 85);" cx="151.489" cy="150.321" rx="19.264" ry="109.457"/>
      <ellipse style="fill: rgb(80, 14, 85);" cx="223.876" cy="148.861" rx="19.264" ry="110.333"/>
      <ellipse style="fill: rgb(80, 14, 85);" cx="112.084" cy="155.283" rx="35.902" ry="9.632" transform="matrix(0.97437, 0.22495, -0.22495, 0.97437, 57.651901, -34.660263)"/>
      <ellipse style="fill: rgb(80, 14, 85);" cx="112.084" cy="155.283" rx="35.902" ry="9.632" transform="matrix(0.719339, 0.694659, 0.694659, -0.719339, 49.391563, 182.994675)"/>
      <path style="fill: rgb(80, 14, 85);" d="M 150.321 74.431 C 150.321 74.431 186.515 45.826 225.044 72.096 C 263.573 98.366 208.698 205.196 208.698 205.196 C 208.698 205.196 159.078 209.282 159.661 209.282 C 160.244 209.282 150.905 73.847 150.321 74.431 Z"/>
      <path style="fill: rgb(80, 14, 85);"/>
      <path style="fill: rgb(80, 14, 85);" d="M 160.829 234.968 C 160.829 234.968 193.52 241.389 220.958 234.968 C 248.396 228.547 218.622 199.358 218.622 199.358 L 164.332 199.358 C 164.332 199.358 164.915 234.384 160.829 234.968 Z"/>
    </g>
    <g transform="matrix(1, 0, 0, 1, -60.602962, -39.957909)">
      <path stroke-width="0" d="M 173.436 146.259 C 176.318 146.171 178.431 146.525 179.777 147.321 C 181.314 147.852 181.89 148.869 181.506 150.373 C 180.929 151.08 180.065 151.656 178.912 152.099 C 175.646 153.072 170.843 153.292 164.502 152.762 C 162.389 152.585 160.852 152.186 159.892 151.567 C 158.931 151.037 158.451 150.373 158.451 149.577 C 158.643 148.338 159.699 147.453 161.621 146.923 C 164.311 146.215 168.249 145.994 173.436 146.259 Z" style="stroke-width: 2px; fill: rgb(255, 160, 198);"/>
      <path stroke-width="0" d="M 245.785 145.338 C 248.667 145.25 250.78 145.604 252.126 146.4 C 253.663 146.931 254.239 147.948 253.855 149.452 C 253.278 150.159 252.414 150.735 251.261 151.178 C 247.995 152.151 243.192 152.371 236.851 151.841 C 234.738 151.664 233.201 151.265 232.241 150.646 C 231.28 150.116 230.8 149.452 230.8 148.656 C 230.992 147.417 232.048 146.532 233.97 146.002 C 236.66 145.294 240.598 145.073 245.785 145.338 Z" style="stroke-width: 2px; fill: rgb(255, 160, 198);"/>
    </g>
    <g transform="matrix(1, 0, 0, 1, -60.859001, -29.973001)">
      <circle style="fill: rgb(255, 255, 255);" cx="181.451" cy="129.154" r="4.558"/>
      <circle style="fill: rgb(255, 255, 255);" cx="233.168" cy="129.154" r="4.558"/>
    </g>
    <g transform="matrix(1, 0, 0, 1, -60.859001, -29.973001)">
      <path stroke-width="0" d="M 236.536 150.446 C 238.914 150.446 240.549 151.061 241.44 152.292 C 242.182 153.03 242.554 154.136 242.554 155.614 C 242.257 156.72 241.737 157.582 240.994 158.196 C 228.216 162.258 212.54 163.918 193.966 163.18 C 187.281 162.934 181.486 162.072 176.583 160.596 C 174.502 160.105 172.943 159.305 171.903 158.196 C 171.01 157.335 170.714 156.045 171.01 154.322 C 171.456 153.214 172.199 152.353 173.24 151.738 C 173.982 151 175.394 150.753 177.474 151 C 185.795 154.444 192.917 157.856 207.033 156.626 C 214.256 157.443 217.977 154.596 225.109 154.226 C 226.742 153.612 234.308 150.814 236.536 150.446 Z" style="stroke-width: 2px; fill: rgb(255, 255, 255);"/>
      <path stroke-width="0" d="M 234.216 154.541 C 235.144 154.689 235.806 155.5 236.203 156.975 C 236.667 158.596 236.832 160.956 236.7 164.053 C 236.502 165.527 236.17 166.633 235.706 167.37 C 235.309 168.108 234.713 168.402 233.918 168.255 C 233.19 167.813 232.659 167.075 232.329 166.043 C 231.864 164.421 231.699 162.209 231.831 159.407 C 231.964 157.638 232.295 156.384 232.825 155.647 C 233.157 155.057 233.62 154.689 234.216 154.541 Z" style="stroke-width: 2px; fill: rgb(255, 255, 255);"/>
    </g>
    <g transform="matrix(1, 0, 0, 1, -82.475998, -36.821999)">
      <path style="fill: none; stroke: rgb(44, 26, 59);" d="M 139.063 140.099 L 140.343 291.153"/>
      <path style="fill: none; stroke: rgb(44, 26, 59);" d="M 123.957 138.563"/>
      <path style="fill: none; stroke: rgb(44, 26, 59);" d="M 123.189 139.843 C 115.355 166.756 161.165 171.621 157.496 139.587"/>
    </g>
    <g transform="matrix(1, 0, 0, 1, -82.475998, -36.821999)">
      <path d="M 123.032 133.499 L 126.488 140.412 L 119.575 140.412 L 123.032 133.499 Z" style="fill: rgb(44, 26, 59);"/>
      <path d="M 139.063 133.8 L 142.519 140.713 L 135.606 140.713 L 139.063 133.8 Z" style="fill: rgb(44, 26, 59);"/>
      <path d="M 157.516 133.528 L 160.972 140.441 L 154.059 140.441 L 157.516 133.528 Z" style="fill: rgb(44, 26, 59);"/>
    </g>
  </g>
  <path d="M 36.755 188.803 L 36.775 189.183 C 36.775 189.21 36.775 189.25 36.775 189.303 C 36.768 189.356 36.745 189.406 36.705 189.453 C 36.665 189.5 36.618 189.523 36.565 189.523 C 36.505 189.523 36.458 189.52 36.425 189.513 C 36.312 189.513 36.255 189.463 36.255 189.363 C 36.255 189.276 36.292 188.936 36.365 188.343 C 36.445 187.743 36.495 187.36 36.515 187.193 C 36.535 187.02 36.555 186.873 36.575 186.753 C 36.588 186.633 36.598 186.546 36.605 186.493 C 36.612 186.44 36.622 186.383 36.635 186.323 C 36.648 186.27 36.672 186.223 36.705 186.183 C 36.758 186.116 36.858 186.083 37.005 186.083 C 37.258 186.21 37.518 186.57 37.785 187.163 C 37.978 187.583 38.105 187.85 38.165 187.963 C 38.232 188.076 38.295 188.153 38.355 188.193 L 39.405 186.363 C 39.478 186.31 39.535 186.283 39.575 186.283 C 39.688 186.283 39.775 186.333 39.835 186.433 C 39.895 186.533 39.945 186.656 39.985 186.803 C 40.025 186.95 40.058 187.113 40.085 187.293 C 40.118 187.466 40.145 187.65 40.165 187.843 C 40.192 188.03 40.215 188.216 40.235 188.403 C 40.282 188.843 40.318 189.12 40.345 189.233 C 40.372 189.346 40.385 189.426 40.385 189.473 C 40.385 189.52 40.368 189.563 40.335 189.603 C 40.308 189.65 40.265 189.673 40.205 189.673 C 40.152 189.673 40.095 189.65 40.035 189.603 C 39.982 189.563 39.948 189.51 39.935 189.443 C 39.922 189.376 39.908 189.29 39.895 189.183 C 39.888 189.083 39.875 188.966 39.855 188.833 C 39.835 188.7 39.818 188.56 39.805 188.413 C 39.785 188.266 39.765 188.126 39.745 187.993 C 39.732 187.86 39.718 187.743 39.705 187.643 C 39.692 187.536 39.678 187.456 39.665 187.403 C 39.665 187.336 39.665 187.273 39.665 187.213 C 39.658 187.153 39.645 187.116 39.625 187.103 C 39.598 187.083 39.558 187.1 39.505 187.153 C 39.458 187.2 39.388 187.293 39.295 187.433 C 39.102 187.74 38.818 188.256 38.445 188.983 C 38.392 189.07 38.325 189.09 38.245 189.043 C 38.152 188.99 38.072 188.853 38.005 188.633 L 37.035 186.573 C 36.948 186.74 36.872 187.3 36.805 188.253 C 36.792 188.366 36.785 188.463 36.785 188.543 C 36.765 188.63 36.755 188.716 36.755 188.803 ZM 42.775 188.803 C 42.515 189.223 42.165 189.48 41.725 189.573 C 41.625 189.6 41.532 189.613 41.445 189.613 C 41.365 189.613 41.298 189.61 41.245 189.603 C 41.192 189.603 41.132 189.596 41.065 189.583 C 40.998 189.57 40.935 189.546 40.875 189.513 C 40.748 189.44 40.685 189.336 40.685 189.203 C 40.665 189.143 40.655 189.073 40.655 188.993 C 40.655 188.913 40.675 188.806 40.715 188.673 C 40.748 188.546 40.812 188.406 40.905 188.253 C 40.998 188.1 41.112 187.96 41.245 187.833 C 41.525 187.566 41.825 187.396 42.145 187.323 C 42.238 187.303 42.325 187.293 42.405 187.293 C 42.485 187.293 42.558 187.296 42.625 187.303 C 42.825 187.303 42.962 187.443 43.035 187.723 C 43.082 187.896 43.108 188.14 43.115 188.453 C 43.122 188.773 43.132 189.016 43.145 189.183 C 43.152 189.356 43.172 189.513 43.205 189.653 L 42.895 189.653 C 42.882 189.56 42.872 189.476 42.865 189.403 C 42.858 189.323 42.852 189.253 42.845 189.193 C 42.825 189.046 42.802 188.916 42.775 188.803 Z M 42.755 187.993 C 42.755 187.786 42.655 187.683 42.455 187.683 C 42.435 187.683 42.412 187.683 42.385 187.683 C 42.125 187.683 41.855 187.806 41.575 188.053 C 41.442 188.16 41.325 188.283 41.225 188.423 C 41.085 188.63 41.015 188.81 41.015 188.963 C 41.015 189.17 41.135 189.293 41.375 189.333 C 41.695 189.326 41.998 189.183 42.285 188.903 C 42.405 188.776 42.508 188.643 42.595 188.503 C 42.702 188.31 42.755 188.14 42.755 187.993 ZM 44.979 191.943 L 44.899 191.933 C 44.792 191.933 44.682 191.94 44.569 191.953 L 44.359 191.953 C 44.152 191.953 43.989 191.913 43.869 191.833 C 43.802 191.793 43.769 191.73 43.769 191.643 L 44.989 191.583 C 45.362 191.576 45.549 191.376 45.549 190.983 C 45.549 190.97 45.549 190.946 45.549 190.913 C 45.549 190.88 45.549 190.806 45.549 190.693 L 45.569 188.993 C 45.569 188.933 45.569 188.886 45.569 188.853 C 44.995 189.38 44.445 189.643 43.919 189.643 C 43.872 189.643 43.825 189.643 43.779 189.643 C 43.545 189.643 43.429 189.54 43.429 189.333 C 43.435 189.166 43.482 188.986 43.569 188.793 C 43.662 188.6 43.775 188.413 43.909 188.233 C 44.049 188.053 44.209 187.89 44.389 187.743 C 44.655 187.523 44.915 187.413 45.169 187.413 C 45.462 187.413 45.705 187.57 45.899 187.883 C 45.952 188.716 45.979 189.31 45.979 189.663 C 45.979 190.016 45.975 190.303 45.969 190.523 C 45.955 190.75 45.932 190.956 45.899 191.143 C 45.859 191.33 45.809 191.476 45.749 191.583 C 45.689 191.696 45.619 191.776 45.539 191.823 C 45.405 191.903 45.219 191.943 44.979 191.943 Z M 45.289 187.793 C 45.249 187.78 45.192 187.773 45.119 187.773 C 45.039 187.773 44.939 187.806 44.819 187.873 C 44.699 187.933 44.585 188.013 44.479 188.113 C 44.372 188.213 44.269 188.326 44.169 188.453 C 43.942 188.753 43.829 188.993 43.829 189.173 C 43.829 189.226 43.842 189.27 43.869 189.303 C 43.895 189.316 43.929 189.323 43.969 189.323 C 44.002 189.323 44.055 189.316 44.129 189.303 C 44.195 189.29 44.289 189.256 44.409 189.203 C 44.535 189.156 44.662 189.09 44.789 189.003 C 44.922 188.923 45.042 188.836 45.149 188.743 C 45.389 188.516 45.509 188.296 45.509 188.083 C 45.509 187.95 45.435 187.853 45.289 187.793 ZM 47.309 189.313 C 47.616 189.313 48.082 189.173 48.709 188.893 C 48.742 188.893 48.772 188.906 48.799 188.933 C 48.826 188.96 48.839 188.99 48.839 189.023 C 48.699 189.263 48.429 189.45 48.029 189.583 C 47.629 189.716 47.259 189.74 46.919 189.653 C 46.526 189.553 46.289 189.333 46.209 188.993 C 46.202 188.926 46.199 188.836 46.199 188.723 C 46.199 188.61 46.226 188.46 46.279 188.273 C 46.339 188.093 46.439 187.92 46.579 187.753 C 46.719 187.586 46.886 187.456 47.079 187.363 C 47.266 187.27 47.466 187.223 47.679 187.223 C 47.886 187.223 48.116 187.293 48.369 187.433 C 48.489 187.5 48.582 187.573 48.649 187.653 C 48.722 187.74 48.759 187.826 48.759 187.913 C 48.759 187.94 48.756 187.966 48.749 187.993 C 48.742 188.206 48.639 188.34 48.439 188.393 C 48.352 188.42 48.252 188.433 48.139 188.433 L 47.379 188.403 C 47.126 188.403 46.932 188.456 46.799 188.563 C 46.719 188.623 46.662 188.713 46.629 188.833 C 46.722 189.153 46.949 189.313 47.309 189.313 Z M 48.249 187.683 C 48.169 187.63 48.086 187.59 47.999 187.563 C 47.919 187.536 47.849 187.523 47.789 187.523 C 47.736 187.523 47.646 187.543 47.519 187.583 C 47.392 187.616 47.279 187.656 47.179 187.703 C 46.939 187.816 46.819 187.936 46.819 188.063 C 47.099 188.083 47.309 188.093 47.449 188.093 C 47.842 188.093 48.106 188.06 48.239 187.993 C 48.326 187.96 48.369 187.916 48.369 187.863 C 48.369 187.803 48.329 187.743 48.249 187.683 Z M 46.999 186.993 C 46.932 186.993 46.879 186.983 46.839 186.963 C 46.799 186.95 46.779 186.91 46.779 186.843 C 46.779 186.776 46.799 186.71 46.839 186.643 C 46.872 186.583 46.922 186.516 46.989 186.443 C 47.136 186.29 47.319 186.163 47.539 186.063 C 47.719 186.176 47.839 186.256 47.899 186.303 C 47.999 186.396 48.112 186.54 48.239 186.733 C 48.259 186.78 48.269 186.82 48.269 186.853 C 48.269 186.893 48.262 186.923 48.249 186.943 C 48.209 186.996 48.146 186.996 48.059 186.943 C 47.926 186.85 47.849 186.793 47.829 186.773 C 47.802 186.753 47.769 186.72 47.729 186.673 C 47.689 186.626 47.612 186.55 47.499 186.443 C 47.286 186.59 47.142 186.726 47.069 186.853 C 47.042 186.9 47.019 186.946 46.999 186.993 ZM 51.715 186.443 C 51.975 186.35 52.322 186.303 52.755 186.303 C 53.535 186.303 54.072 186.5 54.365 186.893 C 54.472 187.04 54.525 187.226 54.525 187.453 C 54.532 187.486 54.535 187.516 54.535 187.543 C 54.535 187.896 54.328 188.253 53.915 188.613 C 53.542 188.96 53.078 189.236 52.525 189.443 C 52.158 189.583 51.855 189.653 51.615 189.653 C 51.522 189.653 51.438 189.64 51.365 189.613 L 51.365 186.323 L 51.435 186.323 C 51.522 186.323 51.588 186.336 51.635 186.363 C 51.682 186.383 51.708 186.41 51.715 186.443 Z M 54.175 187.493 C 54.142 187.18 53.968 186.95 53.655 186.803 C 53.422 186.69 53.125 186.633 52.765 186.633 L 52.675 186.633 C 52.342 186.64 52.052 186.693 51.805 186.793 L 51.805 189.313 C 52.052 189.313 52.362 189.223 52.735 189.043 C 53.375 188.723 53.812 188.353 54.045 187.933 C 54.132 187.786 54.175 187.64 54.175 187.493 ZM 55.882 189.313 C 56.188 189.313 56.655 189.173 57.282 188.893 C 57.315 188.893 57.345 188.906 57.372 188.933 C 57.398 188.96 57.412 188.99 57.412 189.023 C 57.272 189.263 57.002 189.45 56.602 189.583 C 56.202 189.716 55.832 189.74 55.492 189.653 C 55.098 189.553 54.862 189.333 54.782 188.993 C 54.775 188.926 54.772 188.836 54.772 188.723 C 54.772 188.61 54.798 188.46 54.852 188.273 C 54.912 188.093 55.012 187.92 55.152 187.753 C 55.292 187.586 55.458 187.456 55.652 187.363 C 55.838 187.27 56.038 187.223 56.252 187.223 C 56.458 187.223 56.688 187.293 56.942 187.433 C 57.062 187.5 57.155 187.573 57.222 187.653 C 57.295 187.74 57.332 187.826 57.332 187.913 C 57.332 187.94 57.328 187.966 57.322 187.993 C 57.315 188.206 57.212 188.34 57.012 188.393 C 56.925 188.42 56.825 188.433 56.712 188.433 L 55.952 188.403 C 55.698 188.403 55.505 188.456 55.372 188.563 C 55.292 188.623 55.235 188.713 55.202 188.833 C 55.295 189.153 55.522 189.313 55.882 189.313 Z M 56.822 187.683 C 56.742 187.63 56.658 187.59 56.572 187.563 C 56.492 187.536 56.422 187.523 56.362 187.523 C 56.308 187.523 56.218 187.543 56.092 187.583 C 55.965 187.616 55.852 187.656 55.752 187.703 C 55.512 187.816 55.392 187.936 55.392 188.063 C 55.672 188.083 55.882 188.093 56.022 188.093 C 56.415 188.093 56.678 188.06 56.812 187.993 C 56.898 187.96 56.942 187.916 56.942 187.863 C 56.942 187.803 56.902 187.743 56.822 187.683 ZM 57.699 188.983 C 57.699 188.923 57.692 188.843 57.679 188.743 C 57.672 188.643 57.665 188.533 57.659 188.413 C 57.652 188.3 57.649 188.18 57.649 188.053 C 57.649 187.933 57.659 187.82 57.679 187.713 C 57.725 187.486 57.819 187.373 57.959 187.373 C 58.059 187.4 58.125 187.436 58.159 187.483 C 58.192 187.523 58.209 187.573 58.209 187.633 C 58.209 187.693 58.195 187.77 58.169 187.863 C 58.049 188.17 57.989 188.446 57.989 188.693 C 57.989 188.773 57.995 188.86 58.009 188.953 C 58.062 189.186 58.255 189.303 58.589 189.303 C 58.762 189.303 58.925 189.273 59.079 189.213 C 59.372 189.106 59.572 188.98 59.679 188.833 C 59.712 188.666 59.729 188.523 59.729 188.403 C 59.729 188.283 59.722 188.176 59.709 188.083 C 59.702 187.983 59.692 187.876 59.679 187.763 C 59.665 187.65 59.659 187.526 59.659 187.393 C 59.705 187.366 59.749 187.353 59.789 187.353 C 59.835 187.353 59.882 187.376 59.929 187.423 C 59.975 187.47 60.015 187.556 60.049 187.683 C 60.082 187.81 60.105 187.96 60.119 188.133 C 60.125 188.3 60.129 188.476 60.129 188.663 C 60.135 188.843 60.139 189.02 60.139 189.193 C 60.139 189.36 60.145 189.506 60.159 189.633 C 60.119 189.673 60.079 189.693 60.039 189.693 C 59.899 189.693 59.795 189.55 59.729 189.263 C 59.682 189.303 59.602 189.353 59.489 189.413 C 59.262 189.54 58.989 189.623 58.669 189.663 C 58.609 189.67 58.542 189.673 58.469 189.673 C 58.395 189.673 58.302 189.66 58.189 189.633 C 58.082 189.606 57.979 189.54 57.879 189.433 C 57.779 189.333 57.719 189.183 57.699 188.983 ZM 62.507 188.853 L 62.517 188.533 C 62.517 188.113 62.494 187.803 62.447 187.603 C 62.474 187.55 62.43 187.523 62.317 187.523 C 62.197 187.523 62.044 187.553 61.857 187.613 C 61.67 187.673 61.517 187.733 61.397 187.793 C 61.11 187.933 60.95 188.066 60.917 188.193 L 60.917 189.633 L 60.567 189.633 C 60.52 189.513 60.497 189.176 60.497 188.623 C 60.497 188.13 60.507 187.766 60.527 187.533 C 60.547 187.306 60.56 187.176 60.567 187.143 C 60.66 187.083 60.734 187.053 60.787 187.053 C 60.88 187.053 60.927 187.156 60.927 187.363 C 60.927 187.443 60.92 187.52 60.907 187.593 C 60.9 187.673 60.897 187.726 60.897 187.753 C 61.464 187.333 61.904 187.123 62.217 187.123 C 62.577 187.123 62.78 187.41 62.827 187.983 C 62.847 188.183 62.857 188.463 62.857 188.823 L 62.857 189.233 C 62.857 189.386 62.86 189.536 62.867 189.683 C 62.827 189.703 62.797 189.713 62.777 189.713 C 62.77 189.713 62.747 189.71 62.707 189.703 C 62.674 189.696 62.63 189.69 62.577 189.683 C 62.537 189.543 62.517 189.4 62.517 189.253 C 62.51 189.106 62.507 188.973 62.507 188.853 ZM 64.683 191.943 L 64.603 191.933 C 64.496 191.933 64.386 191.94 64.273 191.953 L 64.063 191.953 C 63.856 191.953 63.693 191.913 63.573 191.833 C 63.506 191.793 63.473 191.73 63.473 191.643 L 64.693 191.583 C 65.066 191.576 65.253 191.376 65.253 190.983 C 65.253 190.97 65.253 190.946 65.253 190.913 C 65.253 190.88 65.253 190.806 65.253 190.693 L 65.273 188.993 C 65.273 188.933 65.273 188.886 65.273 188.853 C 64.7 189.38 64.15 189.643 63.623 189.643 C 63.576 189.643 63.53 189.643 63.483 189.643 C 63.25 189.643 63.133 189.54 63.133 189.333 C 63.14 189.166 63.186 188.986 63.273 188.793 C 63.366 188.6 63.48 188.413 63.613 188.233 C 63.753 188.053 63.913 187.89 64.093 187.743 C 64.36 187.523 64.62 187.413 64.873 187.413 C 65.166 187.413 65.41 187.57 65.603 187.883 C 65.656 188.716 65.683 189.31 65.683 189.663 C 65.683 190.016 65.68 190.303 65.673 190.523 C 65.66 190.75 65.636 190.956 65.603 191.143 C 65.563 191.33 65.513 191.476 65.453 191.583 C 65.393 191.696 65.323 191.776 65.243 191.823 C 65.11 191.903 64.923 191.943 64.683 191.943 Z M 64.993 187.793 C 64.953 187.78 64.896 187.773 64.823 187.773 C 64.743 187.773 64.643 187.806 64.523 187.873 C 64.403 187.933 64.29 188.013 64.183 188.113 C 64.076 188.213 63.973 188.326 63.873 188.453 C 63.646 188.753 63.533 188.993 63.533 189.173 C 63.533 189.226 63.546 189.27 63.573 189.303 C 63.6 189.316 63.633 189.323 63.673 189.323 C 63.706 189.323 63.76 189.316 63.833 189.303 C 63.9 189.29 63.993 189.256 64.113 189.203 C 64.24 189.156 64.366 189.09 64.493 189.003 C 64.626 188.923 64.746 188.836 64.853 188.743 C 65.093 188.516 65.213 188.296 65.213 188.083 C 65.213 187.95 65.14 187.853 64.993 187.793 ZM 68.003 188.803 C 67.743 189.223 67.393 189.48 66.953 189.573 C 66.853 189.6 66.76 189.613 66.673 189.613 C 66.593 189.613 66.527 189.61 66.473 189.603 C 66.42 189.603 66.36 189.596 66.293 189.583 C 66.227 189.57 66.163 189.546 66.103 189.513 C 65.977 189.44 65.913 189.336 65.913 189.203 C 65.893 189.143 65.883 189.073 65.883 188.993 C 65.883 188.913 65.903 188.806 65.943 188.673 C 65.977 188.546 66.04 188.406 66.133 188.253 C 66.227 188.1 66.34 187.96 66.473 187.833 C 66.753 187.566 67.053 187.396 67.373 187.323 C 67.467 187.303 67.553 187.293 67.633 187.293 C 67.713 187.293 67.787 187.296 67.853 187.303 C 68.053 187.303 68.19 187.443 68.263 187.723 C 68.31 187.896 68.337 188.14 68.343 188.453 C 68.35 188.773 68.36 189.016 68.373 189.183 C 68.38 189.356 68.4 189.513 68.433 189.653 L 68.123 189.653 C 68.11 189.56 68.1 189.476 68.093 189.403 C 68.087 189.323 68.08 189.253 68.073 189.193 C 68.053 189.046 68.03 188.916 68.003 188.803 Z M 67.983 187.993 C 67.983 187.786 67.883 187.683 67.683 187.683 C 67.663 187.683 67.64 187.683 67.613 187.683 C 67.353 187.683 67.083 187.806 66.803 188.053 C 66.67 188.16 66.553 188.283 66.453 188.423 C 66.313 188.63 66.243 188.81 66.243 188.963 C 66.243 189.17 66.363 189.293 66.603 189.333 C 66.923 189.326 67.227 189.183 67.513 188.903 C 67.633 188.776 67.737 188.643 67.823 188.503 C 67.93 188.31 67.983 188.14 67.983 187.993 ZM 71.267 187.763 C 71.12 187.656 70.93 187.603 70.697 187.603 C 70.484 187.603 70.284 187.643 70.097 187.723 C 69.744 187.87 69.5 188.06 69.367 188.293 C 69.314 188.4 69.287 188.513 69.287 188.633 C 69.287 188.653 69.287 188.71 69.287 188.803 C 69.287 188.903 69.304 189.033 69.337 189.193 C 69.37 189.36 69.387 189.526 69.387 189.693 C 69.314 189.7 69.257 189.71 69.217 189.723 C 69.17 189.736 69.13 189.743 69.097 189.743 C 69.064 189.743 69.037 189.73 69.017 189.703 C 68.99 189.67 68.964 189.613 68.937 189.533 C 68.937 189.513 68.93 189.453 68.917 189.353 C 68.904 189.26 68.89 189.14 68.877 188.993 C 68.864 188.853 68.847 188.7 68.827 188.533 C 68.807 188.366 68.787 188.203 68.767 188.043 C 68.727 187.69 68.697 187.43 68.677 187.263 C 68.677 187.183 68.74 187.143 68.867 187.143 C 68.94 187.143 68.997 187.173 69.037 187.233 C 69.077 187.293 69.11 187.363 69.137 187.443 C 69.164 187.523 69.18 187.603 69.187 187.683 C 69.194 187.756 69.204 187.81 69.217 187.843 C 69.677 187.43 70.25 187.223 70.937 187.223 C 71.017 187.223 71.1 187.223 71.187 187.223 C 71.207 187.223 71.234 187.223 71.267 187.223 C 71.294 187.223 71.324 187.243 71.357 187.283 C 71.397 187.33 71.417 187.39 71.417 187.463 C 71.417 187.636 71.367 187.736 71.267 187.763 ZM 71.782 188.683 C 71.782 188.27 71.962 187.936 72.322 187.683 C 72.609 187.483 72.952 187.36 73.352 187.313 C 73.372 187.313 73.422 187.313 73.502 187.313 C 73.575 187.313 73.679 187.336 73.812 187.383 C 74.099 187.483 74.295 187.656 74.402 187.903 C 74.442 188.003 74.462 188.086 74.462 188.153 C 74.462 188.226 74.462 188.276 74.462 188.303 C 74.462 188.743 74.295 189.09 73.962 189.343 C 73.649 189.576 73.262 189.693 72.802 189.693 C 72.469 189.693 72.215 189.613 72.042 189.453 C 71.869 189.3 71.782 189.043 71.782 188.683 Z M 72.152 188.803 C 72.152 189.023 72.209 189.173 72.322 189.253 C 72.409 189.306 72.559 189.333 72.772 189.333 C 72.979 189.333 73.159 189.316 73.312 189.283 C 73.472 189.256 73.615 189.203 73.742 189.123 C 74.002 188.956 74.132 188.696 74.132 188.343 C 74.132 188.13 74.075 187.956 73.962 187.823 C 73.842 187.676 73.682 187.603 73.482 187.603 C 73.342 187.63 73.202 187.656 73.062 187.683 C 72.922 187.71 72.792 187.763 72.672 187.843 C 72.405 188.016 72.232 188.336 72.152 188.803 Z" transform="matrix(1, 0, 0, 1, 0, 0)" style="fill: rgb(90, 24, 94); white-space: pre;"/>
</svg>