<?xml version="1.0" encoding="utf-8"?>
<svg viewBox="-280.333 -133.671 220.415 243.822" width="220.415" height="243.822" xmlns="http://www.w3.org/2000/svg">
  <g transform="matrix(1, 0, 0, 1, 1.408008, 1.469752)">
    <title>gem</title>
    <path d="M -228.285 -133.671 L -228.285 -81.623 L -280.333 -81.623 L -228.285 -133.671 Z" style="fill: rgb(13, 129, 171);"/>
    <path d="M -228.285 107.212 L -228.285 55.164 L -280.333 55.164 L -228.285 107.212 Z" style="fill: rgb(12, 84, 110);"/>
    <path d="M -62.734 -81.623 L -62.734 -133.671 L -114.782 -133.671 L -62.734 -81.623 Z" style="fill: rgb(141, 218, 246);" transform="matrix(-1, 0, 0, -1, -177.515999, -215.294006)"/>
    <path d="M -62.758 54.992 L -62.758 107.04 L -114.806 107.04 L -62.758 54.992 Z" style="fill: rgb(15, 150, 199);" transform="matrix(-1, 0, 0, -1, -177.563999, 162.032001)"/>
    <path d="M -280.333 -82.149 L -228.023 -82.149 L -228.023 55.263 L -280.333 55.263 L -280.333 -82.149 Z" style="fill: rgb(15, 102, 133);"/>
    <path d="M -115.248 -82.042 L -62.938 -82.042 L -62.938 55.37 L -115.248 55.37 L -115.248 -82.042 Z" style="fill: rgb(75, 197, 241);"/>
    <path d="M -197.633 138.002 L -145.323 138.002 L -145.323 23.938 L -197.633 23.938 L -197.633 138.002 Z" style="fill: rgb(13, 129, 171);" transform="matrix(0, 1, -1, 0, -90.507999, 252.447994)"/>
    <path d="M -197.608 -50.657 L -145.298 -50.657 L -145.298 -164.376 L -197.608 -164.376 L -197.608 -50.657 Z" style="fill: rgb(75, 197, 241);" transform="matrix(0, 1, -1, 0, -278.969505, 63.936501)"/>
    <path d="M -228.364 -82.08 L -114.662 -82.08 L -114.662 55.332 L -228.364 55.332 L -228.364 -82.08 Z" style="fill: rgb(15, 150, 199);"/>
    <path d="M -114.968 54.571 L -114.968 -81.25 L -228.092 -81.25 L -114.968 54.571 Z" style="fill: rgb(141, 218, 246);" transform="matrix(-1, 0, 0, -1, -343.059998, -26.679001)"/>
  </g>
</svg>