<?xml version="1.0" encoding="utf-8"?>
<svg viewBox="111.871 68.497 16 16" width="16" height="16" xmlns="http://www.w3.org/2000/svg">
  <g transform="matrix(0.32, 0, 0, 0.32, 76.07229, 46.577962)">
    <rect x="111.871" y="68.497" width="50" height="50" rx="5" ry="5" style="fill: rgb(247, 247, 247);"/>
    <path d="M 145.061 85.097 L 147.741 85.097 L 147.741 86.997 L 145.661 86.997 L 145.661 99.997 L 147.741 99.997 L 147.741 101.897 L 141.941 101.897 L 141.941 99.997 L 143.661 99.997 L 143.661 90.617 C 143.681 90.49 143.694 90.364 143.701 90.237 C 143.708 90.104 143.721 89.974 143.741 89.847 C 143.608 90.027 143.478 90.21 143.351 90.397 C 143.224 90.59 143.098 90.777 142.971 90.957 C 142.011 92.317 141.008 93.647 139.961 94.947 C 138.908 96.254 137.878 97.57 136.871 98.897 L 130.441 90.497 L 130.011 89.847 C 130.024 89.974 130.034 90.104 130.041 90.237 C 130.054 90.364 130.068 90.49 130.081 90.617 L 130.081 99.997 L 131.811 99.997 L 131.811 101.897 L 126.001 101.897 L 126.001 99.997 L 128.091 99.997 L 128.091 86.997 L 126.001 86.997 L 126.001 85.097 L 128.691 85.097 C 130.064 86.87 131.428 88.644 132.781 90.417 C 134.134 92.184 135.498 93.954 136.871 95.727 C 138.251 93.954 139.614 92.184 140.961 90.417 C 142.314 88.644 143.681 86.87 145.061 85.097 Z" style="white-space: pre; fill: rgb(239, 79, 92);"/>
  </g>
</svg>