<?xml version="1.0" encoding="utf-8"?>
<svg viewBox="-322.184 -120.327 768.634 308.699" xmlns="http://www.w3.org/2000/svg">
  <g transform="matrix(1, 0, 0, 1, 0.81835, -207.552414)">
    <g transform="matrix(1, 0, 0, 1, -107.701157, -175.787491)">
      <title>cacto</title>
      <g>
        <title>espihnos de fora</title>
        <path d="M 146.581 81.517 Q 152.707 70.908 158.832 81.517 L 161.165 85.558 Q 167.29 96.167 155.04 96.167 L 150.373 96.167 Q 138.123 96.167 144.248 85.558 Z" style="fill: rgb(255, 244, 201);" transform="matrix(0.967415, -0.253196, 0.253196, 0.967415, -245.662308, 527.830261)"/>
        <path d="M 146.581 81.517 Q 152.707 70.908 158.832 81.517 L 161.165 85.558 Q 167.29 96.167 155.04 96.167 L 150.373 96.167 Q 138.123 96.167 144.248 85.558 Z" style="fill: rgb(255, 244, 201);" transform="matrix(0.999393, -0.034842, 0.034842, 0.999393, -252.251938, 463.432068)"/>
        <path d="M 146.581 81.517 Q 152.707 70.908 158.832 81.517 L 161.165 85.558 Q 167.29 96.167 155.04 96.167 L 150.373 96.167 Q 138.123 96.167 144.248 85.558 Z" style="fill: rgb(255, 244, 201);" transform="matrix(0.99619, 0.087213, -0.087213, 0.99619, -257.116669, 413.322571)"/>
        <path d="M 146.581 81.517 Q 152.707 70.908 158.832 81.517 L 161.165 85.558 Q 167.29 96.167 155.04 96.167 L 150.373 96.167 Q 138.123 96.167 144.248 85.558 Z" style="fill: rgb(255, 244, 201);" transform="matrix(0.743183, -0.669088, 0.669088, 0.743183, -308.877106, 512.104004)"/>
        <path d="M 146.581 81.517 Q 152.707 70.908 158.832 81.517 L 161.165 85.558 Q 167.29 96.167 155.04 96.167 L 150.373 96.167 Q 138.123 96.167 144.248 85.558 Z" style="fill: rgb(255, 244, 201);" transform="matrix(0.967415, -0.253196, 0.253196, 0.967415, -347.191101, 407.091034)"/>
        <path d="M 146.581 81.517 Q 152.707 70.908 158.832 81.517 L 161.165 85.558 Q 167.29 96.167 155.04 96.167 L 150.373 96.167 Q 138.123 96.167 144.248 85.558 Z" style="fill: rgb(255, 244, 201);" transform="matrix(0.974357, 0.225007, -0.225007, 0.974357, -330.612549, 285.146912)"/>
        <path d="M 146.581 81.517 Q 152.707 70.908 158.832 81.517 L 161.165 85.558 Q 167.29 96.167 155.04 96.167 L 150.373 96.167 Q 138.123 96.167 144.248 85.558 Z" style="fill: rgb(255, 244, 201);" transform="matrix(0.292427, -0.956288, 0.956288, 0.292427, -268.999847, 500.269653)"/>
        <path d="M 146.581 81.517 Q 152.707 70.908 158.832 81.517 L 161.165 85.558 Q 167.29 96.167 155.04 96.167 L 150.373 96.167 Q 138.123 96.167 144.248 85.558 Z" style="fill: rgb(255, 244, 201);" transform="matrix(0.37466, -0.927162, 0.927162, 0.37466, -255.471161, 472.394592)"/>
        <path d="M 146.581 81.517 Q 152.707 70.908 158.832 81.517 L 161.165 85.558 Q 167.29 96.167 155.04 96.167 L 150.373 96.167 Q 138.123 96.167 144.248 85.558 Z" style="fill: rgb(255, 244, 201);" transform="matrix(0.601861, -0.798601, 0.798601, 0.601861, -254.92485, 382.699249)"/>
        <path d="M 146.581 81.517 Q 152.707 70.908 158.832 81.517 L 161.165 85.558 Q 167.29 96.167 155.04 96.167 L 150.373 96.167 Q 138.123 96.167 144.248 85.558 Z" style="fill: rgb(255, 244, 201);" transform="matrix(-0.743106, -0.669173, 0.669173, -0.743106, 7.71965, 446.000122)"/>
        <path d="M 146.581 81.517 Q 152.707 70.908 158.832 81.517 L 161.165 85.558 Q 167.29 96.167 155.04 96.167 L 150.373 96.167 Q 138.123 96.167 144.248 85.558 Z" style="fill: rgb(255, 244, 201);" transform="matrix(0.974357, 0.225007, -0.225007, 0.974357, -129.157913, 156.757324)"/>
        <path d="M 146.581 81.517 Q 152.707 70.908 158.832 81.517 L 161.165 85.558 Q 167.29 96.167 155.04 96.167 L 150.373 96.167 Q 138.123 96.167 144.248 85.558 Z" style="fill: rgb(255, 244, 201);" transform="matrix(0.37466, -0.927162, 0.927162, 0.37466, -94.399696, 414.735931)"/>
        <path d="M 146.581 81.517 Q 152.707 70.908 158.832 81.517 L 161.165 85.558 Q 167.29 96.167 155.04 96.167 L 150.373 96.167 Q 138.123 96.167 144.248 85.558 Z" style="fill: rgb(255, 244, 201);" transform="matrix(0.743183, -0.669088, 0.669088, 0.743183, -109.523491, 395.386444)"/>
        <path d="M 146.581 81.517 Q 152.707 70.908 158.832 81.517 L 161.165 85.558 Q 167.29 96.167 155.04 96.167 L 150.373 96.167 Q 138.123 96.167 144.248 85.558 Z" style="fill: rgb(255, 244, 201);" transform="matrix(-0.7193, -0.6947, 0.6947, -0.7193, 107.864677, 588.610046)"/>
        <path d="M 146.581 81.517 Q 152.707 70.908 158.832 81.517 L 161.165 85.558 Q 167.29 96.167 155.04 96.167 L 150.373 96.167 Q 138.123 96.167 144.248 85.558 Z" style="fill: rgb(255, 244, 201);" transform="matrix(0.669173, -0.743106, 0.743106, 0.669173, -121.87606, 580.909363)"/>
        <path d="M 146.581 81.517 Q 152.707 70.908 158.832 81.517 L 161.165 85.558 Q 167.29 96.167 155.04 96.167 L 150.373 96.167 Q 138.123 96.167 144.248 85.558 Z" style="fill: rgb(255, 244, 201);" transform="matrix(0.309072, -0.951039, 0.951039, 0.309072, -60.063309, 618.021057)"/>
        <path d="M 146.581 81.517 Q 152.707 70.908 158.832 81.517 L 161.165 85.558 Q 167.29 96.167 155.04 96.167 L 150.373 96.167 Q 138.123 96.167 144.248 85.558 Z" style="fill: rgb(255, 244, 201);" transform="matrix(0.999393, -0.034842, 0.034842, 0.999393, -29.554508, 377.995117)"/>
        <path d="M 146.581 81.517 Q 152.707 70.908 158.832 81.517 L 161.165 85.558 Q 167.29 96.167 155.04 96.167 L 150.373 96.167 Q 138.123 96.167 144.248 85.558 Z" style="fill: rgb(255, 244, 201);" transform="matrix(0.819185, -0.573529, 0.573529, 0.819185, -89.082939, 451.510956)"/>
      </g>
      <g>
        <title>muka</title>
        <path style="fill: rgb(193, 211, 127);" d="M -58.598 585.14 C -58.598 585.14 -147.229 495.898 -117.278 383.429 C -87.327 270.96 -20.701 279.517 -7.253 279.517 C 14.141 288.074 42.258 292.965 53.871 341.864 C 72.208 427.438 19.031 464.725 41.647 537.464 C 48.371 566.193 39.812 577.194 40.424 576.583 C -7.253 579.639 -60.432 591.864 -58.598 585.14 Z"/>
        <path style="fill: rgb(193, 211, 127);" d="M 27.79 491.071 C 27.79 491.071 99.914 511.767 119.356 462.222 C 138.798 412.677 109.321 420.829 95.524 433.999 C 81.727 447.169 52.877 477.274 40.334 473.511 C 27.791 469.748 29.672 528.701 27.79 491.071 Z"/>
        <path style="fill: rgb(193, 211, 127);" d="M -205.848 381.389 C -205.848 381.389 -95.472 349.717 -65.719 425.538 C -35.966 501.36 -81.076 488.885 -102.191 468.73 C -123.305 448.575 -167.456 402.503 -186.651 408.262 C -205.847 414.021 -202.968 323.802 -205.848 381.389 Z" transform="matrix(-0.984808, -0.173648, 0.173648, -0.984808, -333.192387, 817.035877)"/>
      </g>
      <g>
        <title>espinhos de dentro</title>
        <path d="M 146.581 81.517 Q 152.707 70.908 158.832 81.517 L 161.165 85.558 Q 167.29 96.167 155.04 96.167 L 150.373 96.167 Q 138.123 96.167 144.248 85.558 Z" style="fill: rgb(255, 244, 201);" transform="matrix(-0.258763, -0.965941, 0.965941, -0.258763, -120.721695, 675.84375)"/>
        <path d="M 146.581 81.517 Q 152.707 70.908 158.832 81.517 L 161.165 85.558 Q 167.29 96.167 155.04 96.167 L 150.373 96.167 Q 138.123 96.167 144.248 85.558 Z" style="fill: rgb(255, 244, 201);" transform="matrix(0.121927, -0.992539, 0.992539, 0.121927, -185.776413, 531.003784)"/>
        <path d="M 146.581 81.517 Q 152.707 70.908 158.832 81.517 L 161.165 85.558 Q 167.29 96.167 155.04 96.167 L 150.373 96.167 Q 138.123 96.167 144.248 85.558 Z" style="fill: rgb(255, 244, 201);" transform="matrix(-0.819119, -0.573624, 0.573624, -0.819119, 84.406349, 634.965454)"/>
        <path d="M 146.581 81.517 Q 152.707 70.908 158.832 81.517 L 161.165 85.558 Q 167.29 96.167 155.04 96.167 L 150.373 96.167 Q 138.123 96.167 144.248 85.558 Z" style="fill: rgb(255, 244, 201);" transform="matrix(-0.939673, -0.342074, 0.342074, -0.939673, 137.951401, 472.739349)"/>
        <path d="M 146.581 81.517 Q 152.707 70.908 158.832 81.517 L 161.165 85.558 Q 167.29 96.167 155.04 96.167 L 150.373 96.167 Q 138.123 96.167 144.248 85.558 Z" style="fill: rgb(255, 244, 201);" transform="matrix(0.956322, -0.292317, 0.292317, 0.956322, -329.441681, 381.884644)"/>
      </g>
    </g>
    <g transform="matrix(-1, 0, 0, 1, 199.894989, -174.032944)">
      <title>cacto</title>
      <g>
        <title>espihnos de fora</title>
        <path d="M 146.581 81.517 Q 152.707 70.908 158.832 81.517 L 161.165 85.558 Q 167.29 96.167 155.04 96.167 L 150.373 96.167 Q 138.123 96.167 144.248 85.558 Z" style="fill: rgb(255, 244, 201);" transform="matrix(0.967415, -0.253196, 0.253196, 0.967415, -245.662308, 527.830261)"/>
        <path d="M 146.581 81.517 Q 152.707 70.908 158.832 81.517 L 161.165 85.558 Q 167.29 96.167 155.04 96.167 L 150.373 96.167 Q 138.123 96.167 144.248 85.558 Z" style="fill: rgb(255, 244, 201);" transform="matrix(0.999393, -0.034842, 0.034842, 0.999393, -252.251938, 463.432068)"/>
        <path d="M 146.581 81.517 Q 152.707 70.908 158.832 81.517 L 161.165 85.558 Q 167.29 96.167 155.04 96.167 L 150.373 96.167 Q 138.123 96.167 144.248 85.558 Z" style="fill: rgb(255, 244, 201);" transform="matrix(0.99619, 0.087213, -0.087213, 0.99619, -257.116669, 413.322571)"/>
        <path d="M 146.581 81.517 Q 152.707 70.908 158.832 81.517 L 161.165 85.558 Q 167.29 96.167 155.04 96.167 L 150.373 96.167 Q 138.123 96.167 144.248 85.558 Z" style="fill: rgb(255, 244, 201);" transform="matrix(0.743183, -0.669088, 0.669088, 0.743183, -308.877106, 512.104004)"/>
        <path d="M 146.581 81.517 Q 152.707 70.908 158.832 81.517 L 161.165 85.558 Q 167.29 96.167 155.04 96.167 L 150.373 96.167 Q 138.123 96.167 144.248 85.558 Z" style="fill: rgb(255, 244, 201);" transform="matrix(0.967415, -0.253196, 0.253196, 0.967415, -347.191101, 407.091034)"/>
        <path d="M 146.581 81.517 Q 152.707 70.908 158.832 81.517 L 161.165 85.558 Q 167.29 96.167 155.04 96.167 L 150.373 96.167 Q 138.123 96.167 144.248 85.558 Z" style="fill: rgb(255, 244, 201);" transform="matrix(0.974357, 0.225007, -0.225007, 0.974357, -330.612549, 285.146912)"/>
        <path d="M 146.581 81.517 Q 152.707 70.908 158.832 81.517 L 161.165 85.558 Q 167.29 96.167 155.04 96.167 L 150.373 96.167 Q 138.123 96.167 144.248 85.558 Z" style="fill: rgb(255, 244, 201);" transform="matrix(0.292427, -0.956288, 0.956288, 0.292427, -268.999847, 500.269653)"/>
        <path d="M 146.581 81.517 Q 152.707 70.908 158.832 81.517 L 161.165 85.558 Q 167.29 96.167 155.04 96.167 L 150.373 96.167 Q 138.123 96.167 144.248 85.558 Z" style="fill: rgb(255, 244, 201);" transform="matrix(0.37466, -0.927162, 0.927162, 0.37466, -255.471161, 472.394592)"/>
        <path d="M 146.581 81.517 Q 152.707 70.908 158.832 81.517 L 161.165 85.558 Q 167.29 96.167 155.04 96.167 L 150.373 96.167 Q 138.123 96.167 144.248 85.558 Z" style="fill: rgb(255, 244, 201);" transform="matrix(0.601861, -0.798601, 0.798601, 0.601861, -254.92485, 382.699249)"/>
        <path d="M 146.581 81.517 Q 152.707 70.908 158.832 81.517 L 161.165 85.558 Q 167.29 96.167 155.04 96.167 L 150.373 96.167 Q 138.123 96.167 144.248 85.558 Z" style="fill: rgb(255, 244, 201);" transform="matrix(-0.743106, -0.669173, 0.669173, -0.743106, 7.71965, 446.000122)"/>
        <path d="M 146.581 81.517 Q 152.707 70.908 158.832 81.517 L 161.165 85.558 Q 167.29 96.167 155.04 96.167 L 150.373 96.167 Q 138.123 96.167 144.248 85.558 Z" style="fill: rgb(255, 244, 201);" transform="matrix(0.974357, 0.225007, -0.225007, 0.974357, -129.157913, 156.757324)"/>
        <path d="M 146.581 81.517 Q 152.707 70.908 158.832 81.517 L 161.165 85.558 Q 167.29 96.167 155.04 96.167 L 150.373 96.167 Q 138.123 96.167 144.248 85.558 Z" style="fill: rgb(255, 244, 201);" transform="matrix(0.37466, -0.927162, 0.927162, 0.37466, -94.399696, 414.735931)"/>
        <path d="M 146.581 81.517 Q 152.707 70.908 158.832 81.517 L 161.165 85.558 Q 167.29 96.167 155.04 96.167 L 150.373 96.167 Q 138.123 96.167 144.248 85.558 Z" style="fill: rgb(255, 244, 201);" transform="matrix(0.743183, -0.669088, 0.669088, 0.743183, -109.523491, 395.386444)"/>
        <path d="M 146.581 81.517 Q 152.707 70.908 158.832 81.517 L 161.165 85.558 Q 167.29 96.167 155.04 96.167 L 150.373 96.167 Q 138.123 96.167 144.248 85.558 Z" style="fill: rgb(255, 244, 201);" transform="matrix(-0.7193, -0.6947, 0.6947, -0.7193, 107.864677, 588.610046)"/>
        <path d="M 146.581 81.517 Q 152.707 70.908 158.832 81.517 L 161.165 85.558 Q 167.29 96.167 155.04 96.167 L 150.373 96.167 Q 138.123 96.167 144.248 85.558 Z" style="fill: rgb(255, 244, 201);" transform="matrix(0.669173, -0.743106, 0.743106, 0.669173, -121.87606, 580.909363)"/>
        <path d="M 146.581 81.517 Q 152.707 70.908 158.832 81.517 L 161.165 85.558 Q 167.29 96.167 155.04 96.167 L 150.373 96.167 Q 138.123 96.167 144.248 85.558 Z" style="fill: rgb(255, 244, 201);" transform="matrix(0.309072, -0.951039, 0.951039, 0.309072, -60.063309, 618.021057)"/>
        <path d="M 146.581 81.517 Q 152.707 70.908 158.832 81.517 L 161.165 85.558 Q 167.29 96.167 155.04 96.167 L 150.373 96.167 Q 138.123 96.167 144.248 85.558 Z" style="fill: rgb(255, 244, 201);" transform="matrix(0.999393, -0.034842, 0.034842, 0.999393, -29.554508, 377.995117)"/>
        <path d="M 146.581 81.517 Q 152.707 70.908 158.832 81.517 L 161.165 85.558 Q 167.29 96.167 155.04 96.167 L 150.373 96.167 Q 138.123 96.167 144.248 85.558 Z" style="fill: rgb(255, 244, 201);" transform="matrix(0.819185, -0.573529, 0.573529, 0.819185, -89.082939, 451.510956)"/>
      </g>
      <g>
        <title>muka</title>
        <path style="fill: rgb(193, 211, 127);" d="M -58.598 585.14 C -58.598 585.14 -147.229 495.898 -117.278 383.429 C -87.327 270.96 -20.701 279.517 -7.253 279.517 C 14.141 288.074 42.258 292.965 53.871 341.864 C 72.208 427.438 19.031 464.725 41.647 537.464 C 48.371 566.193 39.812 577.194 40.424 576.583 C -7.253 579.639 -60.432 591.864 -58.598 585.14 Z"/>
        <path style="fill: rgb(193, 211, 127);" d="M 27.79 491.071 C 27.79 491.071 99.914 511.767 119.356 462.222 C 138.798 412.677 109.321 420.829 95.524 433.999 C 81.727 447.169 52.877 477.274 40.334 473.511 C 27.791 469.748 29.672 528.701 27.79 491.071 Z"/>
        <path style="fill: rgb(193, 211, 127);" d="M -205.848 381.389 C -205.848 381.389 -95.472 349.717 -65.719 425.538 C -35.966 501.36 -81.076 488.885 -102.191 468.73 C -123.305 448.575 -167.456 402.503 -186.651 408.262 C -205.847 414.021 -202.968 323.802 -205.848 381.389 Z" transform="matrix(-0.984808, -0.173648, 0.173648, -0.984808, -333.192387, 817.035877)"/>
      </g>
      <g>
        <title>espinhos de dentro</title>
        <path d="M 146.581 81.517 Q 152.707 70.908 158.832 81.517 L 161.165 85.558 Q 167.29 96.167 155.04 96.167 L 150.373 96.167 Q 138.123 96.167 144.248 85.558 Z" style="fill: rgb(255, 244, 201);" transform="matrix(-0.258763, -0.965941, 0.965941, -0.258763, -120.721695, 675.84375)"/>
        <path d="M 146.581 81.517 Q 152.707 70.908 158.832 81.517 L 161.165 85.558 Q 167.29 96.167 155.04 96.167 L 150.373 96.167 Q 138.123 96.167 144.248 85.558 Z" style="fill: rgb(255, 244, 201);" transform="matrix(0.121927, -0.992539, 0.992539, 0.121927, -185.776413, 531.003784)"/>
        <path d="M 146.581 81.517 Q 152.707 70.908 158.832 81.517 L 161.165 85.558 Q 167.29 96.167 155.04 96.167 L 150.373 96.167 Q 138.123 96.167 144.248 85.558 Z" style="fill: rgb(255, 244, 201);" transform="matrix(-0.819119, -0.573624, 0.573624, -0.819119, 84.406349, 634.965454)"/>
        <path d="M 146.581 81.517 Q 152.707 70.908 158.832 81.517 L 161.165 85.558 Q 167.29 96.167 155.04 96.167 L 150.373 96.167 Q 138.123 96.167 144.248 85.558 Z" style="fill: rgb(255, 244, 201);" transform="matrix(-0.939673, -0.342074, 0.342074, -0.939673, 137.951401, 472.739349)"/>
        <path d="M 146.581 81.517 Q 152.707 70.908 158.832 81.517 L 161.165 85.558 Q 167.29 96.167 155.04 96.167 L 150.373 96.167 Q 138.123 96.167 144.248 85.558 Z" style="fill: rgb(255, 244, 201);" transform="matrix(0.956322, -0.292317, 0.292317, 0.956322, -329.441681, 381.884644)"/>
      </g>
    </g>
  </g>
</svg>