<?xml version="1.0" encoding="utf-8"?>
<svg viewBox="-43.731 -78.715 82.692 154.908" width="82.692" height="154.908" xmlns="http://www.w3.org/2000/svg">
  <g transform="matrix(1, 0, 0, 1, -55.98, -45.809003)">
    <title>alpaca</title>
    <path d="M 89.205 39.067 C 89.205 63.892 73.262 84.017 53.595 84.017 C 33.928 84.017 17.985 63.892 17.985 39.067 C 17.985 14.242 33.928 -5.883 53.595 -5.883 C 73.262 -5.883 89.205 14.242 89.205 39.067 Z" style="stroke-linecap: round; stroke-linejoin: round; fill: rgb(201, 201, 201); stroke: rgb(201, 201, 201);"/>
    <g transform="matrix(1, 0, 0, 1, 9.019, 8.032)">
      <title>orelhas</title>
      <path style="stroke-linecap: round; stroke-linejoin: round; fill: rgb(201, 201, 201); stroke: rgb(201, 201, 201);" d="M 54.854 -6.91 C 54.854 -6.91 75.723 -57.309 80.54 -34.931 C 85.357 -12.553 67.697 0.095 67.113 0.095 C 66.529 0.095 55.195 -2.969 54.854 -6.91 Z"/>
      <path style="stroke-linecap: round; stroke-linejoin: round; fill: rgb(201, 201, 201); stroke: rgb(201, 201, 201);" d="M 3.597 -34.241 C 3.597 -34.241 24.223 14.943 29.283 -6.22 C 34.343 -27.383 16.44 -41.246 15.856 -41.246 C 15.272 -41.246 4.181 -50.586 3.597 -34.241 Z" transform="matrix(-1, 0, 0, -1, 36.471386, -41.826496)"/>
      <path style="fill: rgb(201, 201, 201); stroke: rgb(201, 201, 201);" d="M 67.343 -2.832 C 60.004 -7.37 80.779 -5.307 76.15 -32.865 C 74.794 -51.156 82.359 -30.72 82.359 -30.72 C 82.458 -30.752 91.098 -7.495 68.697 0.103 L 67.343 -2.832 Z"/>
      <path style="fill: rgb(201, 201, 201); stroke: rgb(201, 201, 201);" d="M 5.389 -38.003 C -1.95 -33.465 18.825 -35.528 14.196 -7.97 C 12.84 10.321 20.405 -10.115 20.405 -10.115 C 20.504 -10.083 29.144 -33.34 6.743 -40.938 L 5.389 -38.003 Z" transform="matrix(-1, 0, 0, -1, 25.927813, -41.299797)"/>
    </g>
    <g transform="matrix(1, 0, 0, 1, 9.92953, 8.032)">
      <title>olhos</title>
      <g transform="matrix(1, 0, 0, 1, -123.834808, -154.766464)">
        <path d="M 159.32 177.69 A 3.614 5.352 0 0 1 155.706 183.042 A 3.614 5.352 0 0 1 152.092 177.69 A 3.614 5.352 0 0 1 155.706 172.338 A 3.614 5.352 0 0 1 159.32 177.69 Z" style="fill: rgb(201, 201, 201); stroke: rgb(201, 201, 201);"/>
        <path style="paint-order: stroke markers; fill: rgb(201, 201, 201); stroke: rgb(201, 201, 201);" d="M 155.177 174.315 C 157.118 174.316 158.846 173.089 159.487 171.257"/>
        <path style="paint-order: stroke markers; fill: rgb(201, 201, 201); stroke: rgb(201, 201, 201);" d="M 152.956 173.945 C 154.897 173.946 156.625 172.719 157.266 170.887" transform="matrix(0.866025, -0.5, 0.5, 0.866025, -65.427078, 100.654899)"/>
      </g>
      <g transform="matrix(1, 0, 0, 1, -100.413261, -155.089859)">
        <path d="M 159.32 177.69 A 3.614 5.352 0 0 1 155.706 183.042 A 3.614 5.352 0 0 1 152.092 177.69 A 3.614 5.352 0 0 1 155.706 172.338 A 3.614 5.352 0 0 1 159.32 177.69 Z" style="fill: rgb(201, 201, 201); stroke: rgb(201, 201, 201);"/>
        <path style="paint-order: stroke markers; fill: rgb(201, 201, 201); stroke: rgb(201, 201, 201);" d="M 155.177 174.315 C 157.118 174.316 158.846 173.089 159.487 171.257"/>
        <path style="paint-order: stroke markers; fill: rgb(201, 201, 201); stroke: rgb(201, 201, 201);" d="M 152.956 173.945 C 154.897 173.946 156.625 172.719 157.266 170.887" transform="matrix(0.866025, -0.5, 0.5, 0.866025, -65.427078, 100.654899)"/>
      </g>
    </g>
    <g transform="matrix(1, 0, 0, 1, 9.450501, 8.032)">
      <title>nariz e boca</title>
      <path style="stroke-linejoin: round; stroke-linecap: round; fill: rgb(201, 201, 201); stroke: rgb(201, 201, 201);" d="M 44.192 34.743 C 44.192 34.743 47.997 41.56 53.194 35.246"/>
      <path style="stroke-linejoin: round; stroke-linecap: round; fill: rgb(201, 201, 201); stroke: rgb(201, 201, 201);" d="M 37.658 35.663 C 37.658 35.663 41.463 28.846 46.66 35.16" transform="matrix(-1, 0, 0, -1, 81.755001, 70.440418)"/>
      <path d="M 57.349 21.954 Q 60.335 19.419 63.32 21.954 L 63.32 21.954 Q 66.306 24.488 60.335 24.488 L 60.335 24.488 Q 54.364 24.488 57.349 21.954 Z" style="stroke-linejoin: round; stroke-linecap: round; fill: rgb(201, 201, 201); stroke: rgb(201, 201, 201);" transform="matrix(-1, 0.000001, -0.000001, -1, 104.322556, 55.66864)"/>
    </g>
    <g transform="matrix(1, 0, 0, 1, 8.212502, 31.735998)">
      <title>guizo</title>
      <path style="stroke-width: 6px; fill: rgb(201, 201, 201); stroke: rgb(201, 201, 201);" d="M 10.581 35.497 L 80.184 34.84 C 80.184 34.84 70.991 65.046 44.397 85.402 C 17.475 62.42 11.238 35.826 10.581 35.497 Z"/>
      <path d="M 53.829 50.551 C 53.829 55.216 50.047 58.997 45.383 58.997 C 40.718 58.997 36.937 55.216 36.937 50.551 C 36.937 45.886 40.718 42.105 45.383 42.105 C 50.047 42.105 53.829 45.886 53.829 50.551 Z" style="fill: rgb(201, 201, 201); stroke: rgb(201, 201, 201);"/>
      <path d="M 39.612 56.132 L 51.153 45.291" style="stroke-linecap: round; stroke-linejoin: round; stroke-width: 2px; fill: rgb(201, 201, 201); stroke: rgb(201, 201, 201);" transform="matrix(0.734313, 0.678811, -0.678811, 0.734313, 46.48107, -17.332755)"/>
      <path d="M 45.382 58.465 L 45.382 55.853" style="stroke-linecap: round; stroke-linejoin: round; fill: rgb(201, 201, 201); stroke: rgb(201, 201, 201);"/>
    </g>
    <g transform="matrix(1, 0, 0, 1, 8.278, 31.735998)">
      <title>pelo</title>
      <path d="M 44.143 -31.765 A 10.217 10.217 0 0 1 33.926 -21.548 A 10.217 10.217 0 0 1 23.709 -31.765 A 10.217 10.217 0 0 1 33.926 -41.982 A 10.217 10.217 0 0 1 44.143 -31.765 Z" style="fill: rgb(201, 201, 201); stroke: rgb(201, 201, 201);"/>
      <path d="M 29.48 -23.024 A 10.217 10.217 0 0 1 19.263 -12.807 A 10.217 10.217 0 0 1 9.046 -23.024 A 10.217 10.217 0 0 1 19.263 -33.241 A 10.217 10.217 0 0 1 29.48 -23.024 Z" style="fill: rgb(201, 201, 201); stroke: rgb(201, 201, 201);"/>
      <path d="M 45.552 -21.897 A 10.217 10.217 0 0 1 35.335 -11.68 A 10.217 10.217 0 0 1 25.118 -21.897 A 10.217 10.217 0 0 1 35.335 -32.114 A 10.217 10.217 0 0 1 45.552 -21.897 Z" style="fill: rgb(201, 201, 201); stroke: rgb(201, 201, 201);"/>
      <path d="M 28.917 -14.002 A 10.217 10.217 0 0 1 18.7 -3.785 A 10.217 10.217 0 0 1 8.483 -14.002 A 10.217 10.217 0 0 1 18.7 -24.219 A 10.217 10.217 0 0 1 28.917 -14.002 Z" style="fill: rgb(201, 201, 201); stroke: rgb(201, 201, 201);"/>
      <path d="M 24.405 0.66 A 10.217 10.217 0 0 1 14.188 10.877 A 10.217 10.217 0 0 1 3.971 0.66 A 10.217 10.217 0 0 1 14.188 -9.557 A 10.217 10.217 0 0 1 24.405 0.66 Z" style="fill: rgb(201, 201, 201); stroke: rgb(201, 201, 201);"/>
      <path d="M 26.943 17.296 A 10.217 10.217 0 0 1 16.726 27.513 A 10.217 10.217 0 0 1 6.509 17.296 A 10.217 10.217 0 0 1 16.726 7.079 A 10.217 10.217 0 0 1 26.943 17.296 Z" style="fill: rgb(201, 201, 201); stroke: rgb(201, 201, 201);"/>
      <path d="M 31.736 30.548 A 10.217 10.217 0 0 1 21.519 40.765 A 10.217 10.217 0 0 1 11.302 30.548 A 10.217 10.217 0 0 1 21.519 20.331 A 10.217 10.217 0 0 1 31.736 30.548 Z" style="fill: rgb(201, 201, 201); stroke: rgb(201, 201, 201);"/>
      <path d="M 46.238 35.025 A 10.217 10.217 0 0 1 36.021 45.242 A 10.217 10.217 0 0 1 25.804 35.025 A 10.217 10.217 0 0 1 36.021 24.808 A 10.217 10.217 0 0 1 46.238 35.025 Z" style="fill: rgb(201, 201, 201); stroke: rgb(201, 201, 201);"/>
      <path d="M 59.086 34.34 A 10.217 10.217 0 0 1 48.869 44.557 A 10.217 10.217 0 0 1 38.652 34.34 A 10.217 10.217 0 0 1 48.869 24.123 A 10.217 10.217 0 0 1 59.086 34.34 Z" style="fill: rgb(201, 201, 201); stroke: rgb(201, 201, 201);"/>
      <path d="M 74.682 32.875 A 10.217 10.217 0 0 1 64.465 43.092 A 10.217 10.217 0 0 1 54.248 32.875 A 10.217 10.217 0 0 1 64.465 22.658 A 10.217 10.217 0 0 1 74.682 32.875 Z" style="fill: rgb(201, 201, 201); stroke: rgb(201, 201, 201);"/>
      <path d="M 84.462 18.987 A 10.217 10.217 0 0 1 74.245 29.204 A 10.217 10.217 0 0 1 64.028 18.987 A 10.217 10.217 0 0 1 74.245 8.77 A 10.217 10.217 0 0 1 84.462 18.987 Z" style="fill: rgb(201, 201, 201); stroke: rgb(201, 201, 201);"/>
      <path d="M 84.462 5.735 A 10.217 10.217 0 0 1 74.245 15.952 A 10.217 10.217 0 0 1 64.028 5.735 A 10.217 10.217 0 0 1 74.245 -4.482 A 10.217 10.217 0 0 1 84.462 5.735 Z" style="fill: rgb(201, 201, 201); stroke: rgb(201, 201, 201);"/>
      <path d="M 84.745 -9.49 A 10.217 10.217 0 0 1 74.528 0.727 A 10.217 10.217 0 0 1 64.311 -9.49 A 10.217 10.217 0 0 1 74.528 -19.707 A 10.217 10.217 0 0 1 84.745 -9.49 Z" style="fill: rgb(201, 201, 201); stroke: rgb(201, 201, 201);"/>
      <path d="M 59.932 -34.303 A 10.217 10.217 0 0 1 49.715 -24.086 A 10.217 10.217 0 0 1 39.498 -34.303 A 10.217 10.217 0 0 1 49.715 -44.52 A 10.217 10.217 0 0 1 59.932 -34.303 Z" style="fill: rgb(201, 201, 201); stroke: rgb(201, 201, 201);"/>
      <path d="M 38.503 -34.585 A 10.217 10.217 0 0 1 28.286 -24.368 A 10.217 10.217 0 0 1 18.069 -34.585 A 10.217 10.217 0 0 1 28.286 -44.802 A 10.217 10.217 0 0 1 38.503 -34.585 Z" style="fill: rgb(201, 201, 201); stroke: rgb(201, 201, 201);"/>
      <path d="M 61.06 -24.152 A 10.217 10.217 0 0 1 50.843 -13.935 A 10.217 10.217 0 0 1 40.626 -24.152 A 10.217 10.217 0 0 1 50.843 -34.369 A 10.217 10.217 0 0 1 61.06 -24.152 Z" style="fill: rgb(201, 201, 201); stroke: rgb(201, 201, 201);"/>
      <path d="M 72.056 -28.382 A 10.217 10.217 0 0 1 61.839 -18.165 A 10.217 10.217 0 0 1 51.622 -28.382 A 10.217 10.217 0 0 1 61.839 -38.599 A 10.217 10.217 0 0 1 72.056 -28.382 Z" style="fill: rgb(201, 201, 201); stroke: rgb(201, 201, 201);"/>
      <path d="M 78.541 -20.205 A 10.217 10.217 0 0 1 68.324 -9.988 A 10.217 10.217 0 0 1 58.107 -20.205 A 10.217 10.217 0 0 1 68.324 -30.422 A 10.217 10.217 0 0 1 78.541 -20.205 Z" style="fill: rgb(201, 201, 201); stroke: rgb(201, 201, 201);"/>
      <path d="M 69.237 -35.994 A 10.217 10.217 0 0 1 59.02 -25.777 A 10.217 10.217 0 0 1 48.803 -35.994 A 10.217 10.217 0 0 1 59.02 -46.211 A 10.217 10.217 0 0 1 69.237 -35.994 Z" style="fill: rgb(201, 201, 201); stroke: rgb(201, 201, 201);"/>
      <path d="M 56.549 -38.814 A 10.217 10.217 0 0 1 46.332 -28.597 A 10.217 10.217 0 0 1 36.115 -38.814 A 10.217 10.217 0 0 1 46.332 -49.031 A 10.217 10.217 0 0 1 56.549 -38.814 Z" style="fill: rgb(201, 201, 201); stroke: rgb(201, 201, 201);"/>
      <path d="M 25.039 33.209 A 10.217 10.217 0 0 1 14.822 43.426 A 10.217 10.217 0 0 1 4.605 33.209 A 10.217 10.217 0 0 1 14.822 22.992 A 10.217 10.217 0 0 1 25.039 33.209 Z" style="fill: rgb(201, 201, 201); stroke: rgb(201, 201, 201);"/>
      <path d="M 86.152 35.061 A 10.217 10.217 0 0 1 75.935 45.278 A 10.217 10.217 0 0 1 65.718 35.061 A 10.217 10.217 0 0 1 75.935 24.844 A 10.217 10.217 0 0 1 86.152 35.061 Z" style="fill: rgb(201, 201, 201); stroke: rgb(201, 201, 201);"/>
      <path d="M 15.398 9.24 C 15.398 12.205 12.995 14.608 10.03 14.608 C 7.065 14.608 4.662 12.205 4.662 9.24 C 4.662 6.275 7.065 3.872 10.03 3.872 C 12.995 3.872 15.398 6.275 15.398 9.24 Z" style="fill: rgb(201, 201, 201); stroke: rgb(201, 201, 201);"/>
    </g>
    <path d="M 49.177 82.595 C 49.177 82.575 49.18 82.555 49.187 82.535 C 49.194 82.515 49.204 82.495 49.217 82.475 C 49.224 82.455 49.237 82.438 49.257 82.425 C 49.27 82.405 49.287 82.395 49.307 82.395 C 49.314 82.395 49.32 82.398 49.327 82.405 C 49.334 82.412 49.34 82.418 49.347 82.425 C 49.347 82.432 49.35 82.442 49.357 82.455 C 49.357 82.462 49.357 82.472 49.357 82.485 C 49.357 82.498 49.36 82.508 49.367 82.515 C 49.367 82.522 49.367 82.528 49.367 82.535 L 49.337 82.545 C 49.337 82.545 49.337 82.538 49.337 82.525 C 49.337 82.512 49.334 82.502 49.327 82.495 C 49.327 82.482 49.324 82.472 49.317 82.465 C 49.317 82.452 49.31 82.445 49.297 82.445 C 49.29 82.445 49.28 82.452 49.267 82.465 C 49.26 82.472 49.254 82.485 49.247 82.505 C 49.234 82.518 49.227 82.532 49.227 82.545 C 49.22 82.558 49.217 82.572 49.217 82.585 C 49.217 82.598 49.22 82.612 49.227 82.625 C 49.227 82.638 49.23 82.652 49.237 82.665 C 49.244 82.672 49.25 82.678 49.257 82.685 C 49.264 82.692 49.274 82.695 49.287 82.695 C 49.3 82.695 49.31 82.692 49.317 82.685 C 49.324 82.685 49.334 82.682 49.347 82.675 C 49.354 82.668 49.36 82.662 49.367 82.655 C 49.38 82.655 49.39 82.655 49.397 82.655 C 49.397 82.668 49.394 82.678 49.387 82.685 C 49.38 82.698 49.37 82.708 49.357 82.715 C 49.344 82.722 49.334 82.725 49.327 82.725 C 49.314 82.732 49.3 82.735 49.287 82.735 C 49.274 82.735 49.26 82.732 49.247 82.725 C 49.234 82.712 49.224 82.698 49.217 82.685 C 49.204 82.678 49.194 82.665 49.187 82.645 C 49.18 82.632 49.177 82.615 49.177 82.595 Z M 49.087 82.555 C 49.087 82.528 49.09 82.502 49.097 82.475 C 49.104 82.442 49.114 82.415 49.127 82.395 C 49.14 82.368 49.16 82.348 49.187 82.335 C 49.214 82.315 49.244 82.305 49.277 82.305 C 49.304 82.305 49.327 82.308 49.347 82.315 C 49.367 82.328 49.387 82.342 49.407 82.355 C 49.42 82.368 49.434 82.385 49.447 82.405 C 49.46 82.432 49.47 82.455 49.477 82.475 C 49.49 82.495 49.497 82.518 49.497 82.545 C 49.504 82.572 49.504 82.595 49.497 82.615 C 49.497 82.655 49.49 82.692 49.477 82.725 C 49.457 82.752 49.437 82.775 49.417 82.795 C 49.397 82.815 49.374 82.828 49.347 82.835 C 49.32 82.842 49.294 82.845 49.267 82.845 C 49.24 82.845 49.217 82.842 49.197 82.835 C 49.177 82.828 49.16 82.815 49.147 82.795 C 49.134 82.782 49.124 82.765 49.117 82.745 C 49.11 82.725 49.104 82.705 49.097 82.685 C 49.09 82.658 49.087 82.635 49.087 82.615 C 49.087 82.595 49.087 82.575 49.087 82.555 Z M 49.117 82.555 C 49.117 82.568 49.117 82.585 49.117 82.605 C 49.124 82.618 49.127 82.635 49.127 82.655 C 49.127 82.675 49.13 82.692 49.137 82.705 C 49.144 82.725 49.15 82.742 49.157 82.755 C 49.17 82.768 49.184 82.778 49.197 82.785 C 49.21 82.792 49.227 82.795 49.247 82.795 C 49.274 82.802 49.3 82.802 49.327 82.795 C 49.347 82.795 49.367 82.785 49.387 82.765 C 49.407 82.752 49.424 82.732 49.437 82.705 C 49.45 82.685 49.46 82.655 49.467 82.615 C 49.467 82.602 49.467 82.585 49.467 82.565 C 49.46 82.545 49.454 82.525 49.447 82.505 C 49.44 82.485 49.43 82.465 49.417 82.445 C 49.41 82.425 49.397 82.405 49.377 82.385 C 49.364 82.372 49.347 82.358 49.327 82.345 C 49.314 82.338 49.297 82.335 49.277 82.335 C 49.25 82.335 49.227 82.345 49.207 82.365 C 49.187 82.378 49.17 82.398 49.157 82.425 C 49.144 82.445 49.134 82.468 49.127 82.495 C 49.12 82.515 49.117 82.535 49.117 82.555 Z M 49.823 82.305 L 49.723 82.555 L 49.693 82.555 L 49.603 82.395 L 49.603 82.775 L 49.573 82.785 C 49.567 82.765 49.563 82.738 49.563 82.705 C 49.563 82.672 49.563 82.638 49.563 82.605 C 49.563 82.572 49.563 82.535 49.563 82.495 C 49.563 82.455 49.563 82.418 49.563 82.385 C 49.563 82.352 49.56 82.318 49.553 82.285 C 49.553 82.258 49.553 82.235 49.553 82.215 C 49.56 82.215 49.563 82.215 49.563 82.215 C 49.57 82.215 49.573 82.215 49.573 82.215 C 49.58 82.215 49.583 82.215 49.583 82.215 C 49.583 82.215 49.587 82.218 49.593 82.225 L 49.713 82.495 L 49.813 82.235 C 49.813 82.235 49.813 82.235 49.813 82.235 C 49.82 82.228 49.823 82.225 49.823 82.225 C 49.83 82.225 49.837 82.225 49.843 82.225 C 49.843 82.218 49.847 82.215 49.853 82.215 C 49.853 82.215 49.853 82.218 49.853 82.225 C 49.853 82.225 49.853 82.232 49.853 82.245 C 49.853 82.252 49.853 82.268 49.853 82.295 C 49.86 82.315 49.867 82.345 49.873 82.385 C 49.88 82.425 49.887 82.478 49.893 82.545 C 49.9 82.605 49.91 82.682 49.923 82.775 C 49.923 82.782 49.923 82.785 49.923 82.785 C 49.917 82.792 49.91 82.795 49.903 82.795 C 49.903 82.788 49.903 82.785 49.903 82.785 C 49.897 82.785 49.893 82.782 49.893 82.775 L 49.823 82.305 Z M 49.965 82.715 C 49.965 82.682 49.971 82.658 49.985 82.645 C 50.005 82.632 50.031 82.625 50.065 82.625 C 50.071 82.625 50.081 82.625 50.095 82.625 C 50.108 82.625 50.118 82.625 50.125 82.625 C 50.131 82.632 50.141 82.635 50.155 82.635 C 50.161 82.642 50.171 82.648 50.185 82.655 C 50.185 82.655 50.185 82.652 50.185 82.645 C 50.185 82.645 50.185 82.642 50.185 82.635 C 50.185 82.628 50.185 82.622 50.185 82.615 C 50.185 82.608 50.185 82.605 50.185 82.605 C 50.185 82.592 50.185 82.575 50.185 82.555 C 50.185 82.542 50.181 82.525 50.175 82.505 C 50.175 82.492 50.171 82.475 50.165 82.455 C 50.151 82.442 50.138 82.432 50.125 82.425 C 50.111 82.425 50.098 82.425 50.085 82.425 C 50.078 82.432 50.068 82.438 50.055 82.445 C 50.048 82.445 50.038 82.448 50.025 82.455 C 50.011 82.462 50.001 82.465 49.995 82.465 C 49.995 82.445 49.998 82.432 50.005 82.425 C 50.011 82.412 50.021 82.405 50.035 82.405 C 50.048 82.398 50.061 82.395 50.075 82.395 C 50.088 82.388 50.101 82.385 50.115 82.385 C 50.128 82.392 50.138 82.395 50.145 82.395 C 50.151 82.395 50.158 82.398 50.165 82.405 C 50.178 82.412 50.188 82.425 50.195 82.445 C 50.201 82.458 50.205 82.478 50.205 82.505 C 50.211 82.525 50.218 82.555 50.225 82.595 C 50.225 82.635 50.228 82.685 50.235 82.745 C 50.235 82.752 50.231 82.758 50.225 82.765 C 50.218 82.772 50.208 82.775 50.195 82.775 C 50.188 82.782 50.178 82.785 50.165 82.785 C 50.151 82.792 50.138 82.795 50.125 82.795 C 50.111 82.795 50.098 82.795 50.085 82.795 C 50.071 82.795 50.061 82.795 50.055 82.795 C 50.041 82.795 50.031 82.795 50.025 82.795 C 50.011 82.788 50.001 82.782 49.995 82.775 C 49.981 82.768 49.975 82.762 49.975 82.755 C 49.968 82.742 49.965 82.728 49.965 82.715 Z M 50.075 82.655 C 50.048 82.668 50.028 82.678 50.015 82.685 C 50.001 82.698 49.995 82.712 49.995 82.725 C 50.001 82.732 50.008 82.738 50.015 82.745 C 50.028 82.758 50.045 82.765 50.065 82.765 C 50.085 82.765 50.105 82.765 50.125 82.765 C 50.145 82.758 50.165 82.745 50.185 82.725 C 50.178 82.712 50.168 82.698 50.155 82.685 C 50.148 82.678 50.141 82.672 50.135 82.665 C 50.128 82.665 50.118 82.662 50.105 82.655 C 50.098 82.655 50.088 82.655 50.075 82.655 Z M 50.139 83.005 C 50.139 82.985 50.142 82.972 50.149 82.965 C 50.155 82.958 50.169 82.955 50.189 82.955 C 50.182 82.962 50.179 82.968 50.179 82.975 C 50.179 82.988 50.175 82.998 50.169 83.005 C 50.169 83.012 50.169 83.015 50.169 83.015 C 50.169 83.022 50.172 83.025 50.179 83.025 C 50.199 83.038 50.219 83.045 50.239 83.045 C 50.259 83.052 50.282 83.055 50.309 83.055 C 50.335 83.055 50.362 83.048 50.389 83.035 C 50.415 83.022 50.435 83.005 50.449 82.985 C 50.462 82.965 50.475 82.942 50.489 82.915 C 50.495 82.888 50.499 82.862 50.499 82.835 C 50.499 82.808 50.499 82.778 50.499 82.745 C 50.492 82.718 50.485 82.692 50.479 82.665 C 50.472 82.678 50.462 82.692 50.449 82.705 C 50.442 82.718 50.432 82.728 50.419 82.735 C 50.405 82.748 50.392 82.758 50.379 82.765 C 50.365 82.772 50.352 82.775 50.339 82.775 C 50.319 82.775 50.305 82.772 50.299 82.765 C 50.292 82.758 50.285 82.748 50.279 82.735 C 50.279 82.728 50.279 82.718 50.279 82.705 C 50.279 82.692 50.279 82.675 50.279 82.655 C 50.279 82.642 50.279 82.628 50.279 82.615 C 50.279 82.595 50.282 82.575 50.289 82.555 C 50.289 82.542 50.292 82.525 50.299 82.505 C 50.305 82.492 50.312 82.475 50.319 82.455 C 50.332 82.442 50.345 82.432 50.359 82.425 C 50.372 82.418 50.389 82.415 50.409 82.415 C 50.415 82.415 50.425 82.415 50.439 82.415 C 50.452 82.422 50.462 82.425 50.469 82.425 C 50.482 82.432 50.492 82.438 50.499 82.445 C 50.505 82.458 50.512 82.472 50.519 82.485 C 50.519 82.512 50.519 82.538 50.519 82.565 C 50.525 82.598 50.529 82.632 50.529 82.665 C 50.535 82.698 50.539 82.732 50.539 82.765 C 50.539 82.798 50.535 82.832 50.529 82.865 C 50.522 82.892 50.515 82.918 50.509 82.945 C 50.495 82.972 50.479 82.998 50.459 83.025 C 50.445 83.045 50.425 83.062 50.399 83.075 C 50.365 83.082 50.332 83.088 50.299 83.095 C 50.279 83.095 50.259 83.092 50.239 83.085 C 50.225 83.085 50.209 83.082 50.189 83.075 C 50.175 83.068 50.165 83.058 50.159 83.045 C 50.145 83.038 50.139 83.025 50.139 83.005 Z M 50.309 82.655 C 50.309 82.662 50.309 82.672 50.309 82.685 C 50.309 82.692 50.309 82.698 50.309 82.705 C 50.309 82.712 50.312 82.718 50.319 82.725 C 50.319 82.732 50.325 82.735 50.339 82.735 C 50.352 82.735 50.365 82.732 50.379 82.725 C 50.392 82.718 50.402 82.712 50.409 82.705 C 50.415 82.692 50.425 82.678 50.439 82.665 C 50.445 82.652 50.449 82.638 50.449 82.625 C 50.455 82.605 50.459 82.588 50.459 82.575 C 50.465 82.562 50.469 82.552 50.469 82.545 C 50.469 82.532 50.469 82.518 50.469 82.505 C 50.469 82.498 50.465 82.488 50.459 82.475 C 50.452 82.468 50.445 82.462 50.439 82.455 C 50.425 82.448 50.415 82.445 50.409 82.445 C 50.395 82.445 50.382 82.452 50.369 82.465 C 50.355 82.472 50.345 82.482 50.339 82.495 C 50.332 82.502 50.329 82.515 50.329 82.535 C 50.322 82.548 50.319 82.562 50.319 82.575 C 50.312 82.595 50.309 82.612 50.309 82.625 C 50.309 82.638 50.309 82.648 50.309 82.655 Z M 50.58 82.585 C 50.58 82.572 50.583 82.555 50.59 82.535 C 50.603 82.508 50.617 82.488 50.63 82.475 C 50.643 82.455 50.657 82.438 50.67 82.425 C 50.69 82.412 50.707 82.405 50.72 82.405 C 50.733 82.405 50.743 82.408 50.75 82.415 C 50.763 82.415 50.773 82.418 50.78 82.425 C 50.787 82.432 50.793 82.442 50.8 82.455 C 50.813 82.462 50.82 82.468 50.82 82.475 C 50.827 82.488 50.83 82.498 50.83 82.505 C 50.83 82.512 50.827 82.518 50.82 82.525 L 50.64 82.565 C 50.633 82.565 50.63 82.565 50.63 82.565 C 50.63 82.572 50.63 82.578 50.63 82.585 C 50.623 82.592 50.62 82.602 50.62 82.615 C 50.62 82.622 50.62 82.628 50.62 82.635 C 50.62 82.648 50.62 82.658 50.62 82.665 C 50.62 82.672 50.62 82.675 50.62 82.675 C 50.62 82.695 50.623 82.708 50.63 82.715 C 50.637 82.728 50.647 82.738 50.66 82.745 C 50.673 82.745 50.687 82.748 50.7 82.755 C 50.72 82.755 50.737 82.755 50.75 82.755 C 50.763 82.755 50.777 82.755 50.79 82.755 C 50.803 82.755 50.817 82.755 50.83 82.755 C 50.83 82.755 50.827 82.755 50.82 82.755 C 50.82 82.762 50.82 82.765 50.82 82.765 C 50.813 82.772 50.81 82.775 50.81 82.775 C 50.81 82.775 50.81 82.775 50.81 82.775 C 50.803 82.782 50.793 82.785 50.78 82.785 C 50.773 82.785 50.763 82.785 50.75 82.785 C 50.743 82.792 50.733 82.795 50.72 82.795 C 50.713 82.795 50.707 82.795 50.7 82.795 C 50.687 82.802 50.673 82.802 50.66 82.795 C 50.647 82.788 50.633 82.782 50.62 82.775 C 50.613 82.762 50.607 82.748 50.6 82.735 C 50.593 82.722 50.59 82.708 50.59 82.695 C 50.583 82.675 50.58 82.655 50.58 82.635 C 50.58 82.622 50.58 82.605 50.58 82.585 Z M 50.71 82.435 C 50.703 82.435 50.697 82.438 50.69 82.445 C 50.683 82.452 50.677 82.458 50.67 82.465 C 50.657 82.478 50.65 82.488 50.65 82.495 C 50.643 82.502 50.64 82.508 50.64 82.515 C 50.66 82.522 50.677 82.522 50.69 82.515 C 50.703 82.515 50.717 82.512 50.73 82.505 C 50.75 82.505 50.763 82.502 50.77 82.495 C 50.777 82.488 50.78 82.478 50.78 82.465 C 50.78 82.458 50.773 82.455 50.76 82.455 C 50.753 82.448 50.737 82.442 50.71 82.435 Z M 51.263 82.765 L 51.223 82.355 C 51.223 82.355 51.223 82.355 51.223 82.355 C 51.223 82.348 51.22 82.345 51.213 82.345 C 51.213 82.338 51.213 82.332 51.213 82.325 C 51.213 82.325 51.213 82.325 51.213 82.325 C 51.213 82.318 51.213 82.312 51.213 82.305 C 51.22 82.305 51.226 82.305 51.233 82.305 C 51.24 82.305 51.246 82.305 51.253 82.305 C 51.26 82.305 51.263 82.305 51.263 82.305 C 51.263 82.305 51.263 82.305 51.263 82.305 C 51.27 82.305 51.273 82.305 51.273 82.305 C 51.28 82.305 51.283 82.305 51.283 82.305 C 51.29 82.305 51.293 82.305 51.293 82.305 C 51.313 82.312 51.336 82.322 51.363 82.335 C 51.383 82.342 51.406 82.352 51.433 82.365 C 51.46 82.378 51.486 82.392 51.513 82.405 C 51.54 82.418 51.563 82.435 51.583 82.455 C 51.603 82.475 51.62 82.498 51.633 82.525 C 51.646 82.545 51.653 82.572 51.653 82.605 C 51.653 82.625 51.646 82.645 51.633 82.665 C 51.626 82.685 51.613 82.702 51.593 82.715 C 51.58 82.728 51.563 82.742 51.543 82.755 C 51.523 82.768 51.503 82.775 51.483 82.775 C 51.463 82.782 51.44 82.788 51.413 82.795 C 51.393 82.795 51.373 82.795 51.353 82.795 C 51.353 82.795 51.346 82.795 51.333 82.795 C 51.326 82.795 51.316 82.795 51.303 82.795 C 51.29 82.795 51.28 82.795 51.273 82.795 C 51.266 82.795 51.263 82.795 51.263 82.795 L 51.263 82.765 Z M 51.273 82.355 C 51.273 82.355 51.273 82.355 51.273 82.355 C 51.273 82.362 51.273 82.368 51.273 82.375 C 51.273 82.375 51.273 82.378 51.273 82.385 C 51.273 82.385 51.273 82.388 51.273 82.395 C 51.28 82.402 51.283 82.415 51.283 82.435 C 51.283 82.455 51.283 82.475 51.283 82.495 C 51.283 82.522 51.283 82.548 51.283 82.575 C 51.283 82.602 51.286 82.628 51.293 82.655 C 51.293 82.675 51.293 82.695 51.293 82.715 C 51.293 82.735 51.293 82.752 51.293 82.765 C 51.3 82.765 51.306 82.765 51.313 82.765 C 51.32 82.765 51.326 82.765 51.333 82.765 C 51.346 82.765 51.356 82.765 51.363 82.765 C 51.37 82.765 51.376 82.765 51.383 82.765 C 51.41 82.765 51.436 82.762 51.463 82.755 C 51.483 82.748 51.506 82.738 51.533 82.725 C 51.553 82.712 51.57 82.692 51.583 82.665 C 51.596 82.645 51.603 82.622 51.603 82.595 C 51.603 82.568 51.596 82.545 51.583 82.525 C 51.576 82.505 51.563 82.485 51.543 82.465 C 51.523 82.452 51.503 82.435 51.483 82.415 C 51.463 82.402 51.44 82.392 51.413 82.385 C 51.393 82.372 51.37 82.362 51.343 82.355 C 51.316 82.355 51.293 82.355 51.273 82.355 Z M 51.685 82.585 C 51.685 82.572 51.689 82.555 51.695 82.535 C 51.709 82.508 51.722 82.488 51.735 82.475 C 51.749 82.455 51.762 82.438 51.775 82.425 C 51.795 82.412 51.812 82.405 51.825 82.405 C 51.839 82.405 51.849 82.408 51.855 82.415 C 51.869 82.415 51.879 82.418 51.885 82.425 C 51.892 82.432 51.899 82.442 51.905 82.455 C 51.919 82.462 51.925 82.468 51.925 82.475 C 51.932 82.488 51.935 82.498 51.935 82.505 C 51.935 82.512 51.932 82.518 51.925 82.525 L 51.745 82.565 C 51.739 82.565 51.735 82.565 51.735 82.565 C 51.735 82.572 51.735 82.578 51.735 82.585 C 51.729 82.592 51.725 82.602 51.725 82.615 C 51.725 82.622 51.725 82.628 51.725 82.635 C 51.725 82.648 51.725 82.658 51.725 82.665 C 51.725 82.672 51.725 82.675 51.725 82.675 C 51.725 82.695 51.729 82.708 51.735 82.715 C 51.742 82.728 51.752 82.738 51.765 82.745 C 51.779 82.745 51.792 82.748 51.805 82.755 C 51.825 82.755 51.842 82.755 51.855 82.755 C 51.869 82.755 51.882 82.755 51.895 82.755 C 51.909 82.755 51.922 82.755 51.935 82.755 C 51.935 82.755 51.932 82.755 51.925 82.755 C 51.925 82.762 51.925 82.765 51.925 82.765 C 51.919 82.772 51.915 82.775 51.915 82.775 C 51.915 82.775 51.915 82.775 51.915 82.775 C 51.909 82.782 51.899 82.785 51.885 82.785 C 51.879 82.785 51.869 82.785 51.855 82.785 C 51.849 82.792 51.839 82.795 51.825 82.795 C 51.819 82.795 51.812 82.795 51.805 82.795 C 51.792 82.802 51.779 82.802 51.765 82.795 C 51.752 82.788 51.739 82.782 51.725 82.775 C 51.719 82.762 51.712 82.748 51.705 82.735 C 51.699 82.722 51.695 82.708 51.695 82.695 C 51.689 82.675 51.685 82.655 51.685 82.635 C 51.685 82.622 51.685 82.605 51.685 82.585 Z M 51.815 82.435 C 51.809 82.435 51.802 82.438 51.795 82.445 C 51.789 82.452 51.782 82.458 51.775 82.465 C 51.762 82.478 51.755 82.488 51.755 82.495 C 51.749 82.502 51.745 82.508 51.745 82.515 C 51.765 82.522 51.782 82.522 51.795 82.515 C 51.809 82.515 51.822 82.512 51.835 82.505 C 51.855 82.505 51.869 82.502 51.875 82.495 C 51.882 82.488 51.885 82.478 51.885 82.465 C 51.885 82.458 51.879 82.455 51.865 82.455 C 51.859 82.448 51.842 82.442 51.815 82.435 Z M 51.981 82.455 C 51.981 82.448 51.981 82.445 51.981 82.445 C 51.988 82.445 51.994 82.442 52.001 82.435 C 52.001 82.435 52.004 82.435 52.011 82.435 C 52.018 82.435 52.021 82.435 52.021 82.435 C 52.028 82.508 52.034 82.568 52.041 82.615 C 52.054 82.655 52.068 82.685 52.081 82.705 C 52.094 82.725 52.108 82.735 52.121 82.735 C 52.141 82.735 52.158 82.728 52.171 82.715 C 52.184 82.702 52.198 82.685 52.211 82.665 C 52.224 82.638 52.234 82.612 52.241 82.585 C 52.248 82.558 52.251 82.532 52.251 82.505 C 52.258 82.478 52.258 82.455 52.251 82.435 L 52.301 82.435 C 52.301 82.442 52.301 82.455 52.301 82.475 C 52.308 82.495 52.311 82.518 52.311 82.545 C 52.318 82.572 52.321 82.598 52.321 82.625 C 52.328 82.652 52.331 82.678 52.331 82.705 C 52.338 82.725 52.341 82.745 52.341 82.765 C 52.348 82.778 52.351 82.788 52.351 82.795 L 52.311 82.795 L 52.271 82.645 C 52.258 82.665 52.248 82.685 52.241 82.705 C 52.228 82.718 52.214 82.732 52.201 82.745 C 52.188 82.765 52.174 82.778 52.161 82.785 C 52.141 82.792 52.124 82.795 52.111 82.795 C 52.098 82.788 52.084 82.782 52.071 82.775 C 52.058 82.762 52.044 82.742 52.031 82.715 C 52.018 82.688 52.008 82.652 52.001 82.605 C 51.988 82.565 51.981 82.515 51.981 82.455 Z M 52.393 82.795 C 52.393 82.782 52.393 82.765 52.393 82.745 C 52.393 82.732 52.39 82.712 52.383 82.685 C 52.383 82.665 52.383 82.642 52.383 82.615 C 52.383 82.595 52.383 82.572 52.383 82.545 C 52.383 82.525 52.383 82.505 52.383 82.485 C 52.383 82.472 52.38 82.458 52.373 82.445 C 52.373 82.445 52.373 82.445 52.373 82.445 C 52.373 82.438 52.373 82.435 52.373 82.435 C 52.373 82.435 52.373 82.432 52.373 82.425 C 52.373 82.425 52.373 82.425 52.373 82.425 C 52.387 82.418 52.393 82.415 52.393 82.415 C 52.4 82.415 52.407 82.422 52.413 82.435 C 52.42 82.442 52.423 82.452 52.423 82.465 C 52.423 82.472 52.423 82.482 52.423 82.495 C 52.423 82.508 52.423 82.518 52.423 82.525 C 52.423 82.538 52.423 82.545 52.423 82.545 C 52.43 82.538 52.433 82.528 52.433 82.515 C 52.433 82.502 52.437 82.488 52.443 82.475 C 52.45 82.462 52.457 82.445 52.463 82.425 C 52.47 82.412 52.477 82.402 52.483 82.395 C 52.497 82.382 52.51 82.372 52.523 82.365 C 52.53 82.358 52.543 82.358 52.563 82.365 C 52.59 82.365 52.61 82.372 52.623 82.385 C 52.643 82.398 52.657 82.415 52.663 82.435 C 52.677 82.455 52.683 82.478 52.683 82.505 C 52.69 82.538 52.693 82.568 52.693 82.595 C 52.693 82.628 52.693 82.662 52.693 82.695 C 52.693 82.728 52.693 82.758 52.693 82.785 C 52.693 82.792 52.69 82.795 52.683 82.795 C 52.677 82.795 52.67 82.795 52.663 82.795 C 52.663 82.795 52.663 82.795 52.663 82.795 C 52.657 82.788 52.657 82.778 52.663 82.765 C 52.663 82.752 52.663 82.735 52.663 82.715 C 52.663 82.688 52.663 82.662 52.663 82.635 C 52.663 82.608 52.663 82.582 52.663 82.555 C 52.657 82.528 52.65 82.502 52.643 82.475 C 52.637 82.455 52.627 82.435 52.613 82.415 C 52.6 82.402 52.58 82.395 52.553 82.395 C 52.527 82.408 52.507 82.428 52.493 82.455 C 52.48 82.482 52.467 82.512 52.453 82.545 C 52.447 82.585 52.44 82.625 52.433 82.665 C 52.427 82.712 52.423 82.755 52.423 82.795 C 52.423 82.795 52.423 82.795 52.423 82.795 C 52.417 82.795 52.413 82.795 52.413 82.795 C 52.407 82.795 52.403 82.795 52.403 82.795 C 52.397 82.795 52.393 82.795 52.393 82.795 Z M 52.609 83.005 C 52.609 82.985 52.612 82.972 52.619 82.965 C 52.625 82.958 52.639 82.955 52.659 82.955 C 52.652 82.962 52.649 82.968 52.649 82.975 C 52.649 82.988 52.645 82.998 52.639 83.005 C 52.639 83.012 52.639 83.015 52.639 83.015 C 52.639 83.022 52.642 83.025 52.649 83.025 C 52.669 83.038 52.689 83.045 52.709 83.045 C 52.729 83.052 52.752 83.055 52.779 83.055 C 52.805 83.055 52.832 83.048 52.859 83.035 C 52.885 83.022 52.905 83.005 52.919 82.985 C 52.932 82.965 52.945 82.942 52.959 82.915 C 52.965 82.888 52.969 82.862 52.969 82.835 C 52.969 82.808 52.969 82.778 52.969 82.745 C 52.962 82.718 52.955 82.692 52.949 82.665 C 52.942 82.678 52.932 82.692 52.919 82.705 C 52.912 82.718 52.902 82.728 52.889 82.735 C 52.875 82.748 52.862 82.758 52.849 82.765 C 52.835 82.772 52.822 82.775 52.809 82.775 C 52.789 82.775 52.775 82.772 52.769 82.765 C 52.762 82.758 52.755 82.748 52.749 82.735 C 52.749 82.728 52.749 82.718 52.749 82.705 C 52.749 82.692 52.749 82.675 52.749 82.655 C 52.749 82.642 52.749 82.628 52.749 82.615 C 52.749 82.595 52.752 82.575 52.759 82.555 C 52.759 82.542 52.762 82.525 52.769 82.505 C 52.775 82.492 52.782 82.475 52.789 82.455 C 52.802 82.442 52.815 82.432 52.829 82.425 C 52.842 82.418 52.859 82.415 52.879 82.415 C 52.885 82.415 52.895 82.415 52.909 82.415 C 52.922 82.422 52.932 82.425 52.939 82.425 C 52.952 82.432 52.962 82.438 52.969 82.445 C 52.975 82.458 52.982 82.472 52.989 82.485 C 52.989 82.512 52.989 82.538 52.989 82.565 C 52.995 82.598 52.999 82.632 52.999 82.665 C 53.005 82.698 53.009 82.732 53.009 82.765 C 53.009 82.798 53.005 82.832 52.999 82.865 C 52.992 82.892 52.985 82.918 52.979 82.945 C 52.965 82.972 52.949 82.998 52.929 83.025 C 52.915 83.045 52.895 83.062 52.869 83.075 C 52.835 83.082 52.802 83.088 52.769 83.095 C 52.749 83.095 52.729 83.092 52.709 83.085 C 52.695 83.085 52.679 83.082 52.659 83.075 C 52.645 83.068 52.635 83.058 52.629 83.045 C 52.615 83.038 52.609 83.025 52.609 83.005 Z M 52.779 82.655 C 52.779 82.662 52.779 82.672 52.779 82.685 C 52.779 82.692 52.779 82.698 52.779 82.705 C 52.779 82.712 52.782 82.718 52.789 82.725 C 52.789 82.732 52.795 82.735 52.809 82.735 C 52.822 82.735 52.835 82.732 52.849 82.725 C 52.862 82.718 52.872 82.712 52.879 82.705 C 52.885 82.692 52.895 82.678 52.909 82.665 C 52.915 82.652 52.919 82.638 52.919 82.625 C 52.925 82.605 52.929 82.588 52.929 82.575 C 52.935 82.562 52.939 82.552 52.939 82.545 C 52.939 82.532 52.939 82.518 52.939 82.505 C 52.939 82.498 52.935 82.488 52.929 82.475 C 52.922 82.468 52.915 82.462 52.909 82.455 C 52.895 82.448 52.885 82.445 52.879 82.445 C 52.865 82.445 52.852 82.452 52.839 82.465 C 52.825 82.472 52.815 82.482 52.809 82.495 C 52.802 82.502 52.799 82.515 52.799 82.535 C 52.792 82.548 52.789 82.562 52.789 82.575 C 52.782 82.595 52.779 82.612 52.779 82.625 C 52.779 82.638 52.779 82.648 52.779 82.655 Z M 53.05 82.715 C 53.05 82.682 53.057 82.658 53.07 82.645 C 53.09 82.632 53.117 82.625 53.15 82.625 C 53.157 82.625 53.167 82.625 53.18 82.625 C 53.194 82.625 53.204 82.625 53.21 82.625 C 53.217 82.632 53.227 82.635 53.24 82.635 C 53.247 82.642 53.257 82.648 53.27 82.655 C 53.27 82.655 53.27 82.652 53.27 82.645 C 53.27 82.645 53.27 82.642 53.27 82.635 C 53.27 82.628 53.27 82.622 53.27 82.615 C 53.27 82.608 53.27 82.605 53.27 82.605 C 53.27 82.592 53.27 82.575 53.27 82.555 C 53.27 82.542 53.267 82.525 53.26 82.505 C 53.26 82.492 53.257 82.475 53.25 82.455 C 53.237 82.442 53.224 82.432 53.21 82.425 C 53.197 82.425 53.184 82.425 53.17 82.425 C 53.164 82.432 53.154 82.438 53.14 82.445 C 53.134 82.445 53.124 82.448 53.11 82.455 C 53.097 82.462 53.087 82.465 53.08 82.465 C 53.08 82.445 53.084 82.432 53.09 82.425 C 53.097 82.412 53.107 82.405 53.12 82.405 C 53.134 82.398 53.147 82.395 53.16 82.395 C 53.174 82.388 53.187 82.385 53.2 82.385 C 53.214 82.392 53.224 82.395 53.23 82.395 C 53.237 82.395 53.244 82.398 53.25 82.405 C 53.264 82.412 53.274 82.425 53.28 82.445 C 53.287 82.458 53.29 82.478 53.29 82.505 C 53.297 82.525 53.304 82.555 53.31 82.595 C 53.31 82.635 53.314 82.685 53.32 82.745 C 53.32 82.752 53.317 82.758 53.31 82.765 C 53.304 82.772 53.294 82.775 53.28 82.775 C 53.274 82.782 53.264 82.785 53.25 82.785 C 53.237 82.792 53.224 82.795 53.21 82.795 C 53.197 82.795 53.184 82.795 53.17 82.795 C 53.157 82.795 53.147 82.795 53.14 82.795 C 53.127 82.795 53.117 82.795 53.11 82.795 C 53.097 82.788 53.087 82.782 53.08 82.775 C 53.067 82.768 53.06 82.762 53.06 82.755 C 53.054 82.742 53.05 82.728 53.05 82.715 Z M 53.16 82.655 C 53.134 82.668 53.114 82.678 53.1 82.685 C 53.087 82.698 53.08 82.712 53.08 82.725 C 53.087 82.732 53.094 82.738 53.1 82.745 C 53.114 82.758 53.13 82.765 53.15 82.765 C 53.17 82.765 53.19 82.765 53.21 82.765 C 53.23 82.758 53.25 82.745 53.27 82.725 C 53.264 82.712 53.254 82.698 53.24 82.685 C 53.234 82.678 53.227 82.672 53.22 82.665 C 53.214 82.665 53.204 82.662 53.19 82.655 C 53.184 82.655 53.174 82.655 53.16 82.655 Z M 53.344 82.455 C 53.351 82.448 53.357 82.448 53.364 82.455 C 53.371 82.455 53.374 82.458 53.374 82.465 C 53.381 82.465 53.384 82.468 53.384 82.475 C 53.384 82.482 53.387 82.488 53.394 82.495 C 53.401 82.482 53.411 82.472 53.424 82.465 C 53.437 82.458 53.451 82.452 53.464 82.445 C 53.484 82.445 53.501 82.445 53.514 82.445 C 53.534 82.445 53.551 82.448 53.564 82.455 C 53.571 82.462 53.577 82.468 53.584 82.475 C 53.591 82.488 53.591 82.502 53.584 82.515 C 53.564 82.502 53.547 82.495 53.534 82.495 C 53.514 82.488 53.497 82.485 53.484 82.485 C 53.471 82.485 53.457 82.492 53.444 82.505 C 53.431 82.512 53.417 82.528 53.404 82.555 C 53.397 82.575 53.394 82.605 53.394 82.645 C 53.387 82.678 53.387 82.722 53.394 82.775 L 53.364 82.775 C 53.364 82.775 53.364 82.772 53.364 82.765 C 53.364 82.752 53.364 82.738 53.364 82.725 C 53.357 82.712 53.354 82.695 53.354 82.675 C 53.354 82.655 53.354 82.635 53.354 82.615 C 53.354 82.595 53.354 82.575 53.354 82.555 C 53.347 82.535 53.344 82.518 53.344 82.505 C 53.344 82.505 53.344 82.502 53.344 82.495 C 53.344 82.495 53.344 82.492 53.344 82.485 C 53.344 82.478 53.344 82.472 53.344 82.465 C 53.344 82.458 53.344 82.455 53.344 82.455 Z M 53.623 82.635 C 53.623 82.622 53.623 82.605 53.623 82.585 C 53.629 82.572 53.636 82.555 53.643 82.535 C 53.643 82.515 53.649 82.495 53.663 82.475 C 53.669 82.462 53.676 82.448 53.683 82.435 C 53.696 82.422 53.709 82.408 53.723 82.395 C 53.743 82.388 53.759 82.385 53.773 82.385 C 53.793 82.385 53.809 82.392 53.823 82.405 C 53.843 82.418 53.859 82.435 53.873 82.455 C 53.879 82.475 53.886 82.498 53.893 82.525 C 53.899 82.552 53.903 82.575 53.903 82.595 C 53.903 82.635 53.896 82.668 53.883 82.695 C 53.869 82.722 53.853 82.742 53.833 82.755 C 53.813 82.775 53.789 82.788 53.763 82.795 C 53.736 82.802 53.713 82.798 53.693 82.785 C 53.673 82.778 53.656 82.762 53.643 82.735 C 53.629 82.708 53.623 82.675 53.623 82.635 Z M 53.653 82.635 C 53.659 82.675 53.666 82.705 53.673 82.725 C 53.686 82.738 53.699 82.748 53.713 82.755 C 53.726 82.762 53.743 82.762 53.763 82.755 C 53.783 82.755 53.799 82.745 53.813 82.725 C 53.826 82.712 53.839 82.695 53.853 82.675 C 53.859 82.648 53.866 82.622 53.873 82.595 C 53.873 82.575 53.869 82.555 53.863 82.535 C 53.856 82.515 53.849 82.498 53.843 82.485 C 53.836 82.465 53.826 82.452 53.813 82.445 C 53.806 82.438 53.793 82.435 53.773 82.435 C 53.759 82.435 53.749 82.438 53.743 82.445 C 53.729 82.452 53.719 82.458 53.713 82.465 C 53.699 82.478 53.689 82.495 53.683 82.515 C 53.676 82.528 53.673 82.542 53.673 82.555 C 53.666 82.568 53.663 82.585 53.663 82.605 C 53.656 82.618 53.653 82.628 53.653 82.635 Z" style="white-space: pre; fill: rgb(201, 201, 201); stroke: rgb(201, 201, 201);"/>
  </g>
  <path d="M 84.8 221.6 m -40.6 0 a 40.6 40.6 0 1 0 81.2 0 a 40.6 40.6 0 1 0 -81.2 0 Z M 84.8 221.6 m -32 0 a 32 32 0 0 1 64 0 a 32 32 0 0 1 -64 0 Z" style="fill: rgb(255, 15, 15);" transform="matrix(-0.8, 0.6, -0.6, -0.8, 198.608996, 122.303308)"/>
  <rect style="fill: rgb(255, 15, 15);" transform="matrix(0.544608, 0.838691, -0.838691, 0.544608, 210.17995, -159.160464)" x="9.934" y="227.432" width="9" height="70.483"/>
</svg>