<?xml version="1.0" encoding="utf-8"?>
<svg viewBox="252.612 108.939 16 16" width="16" height="16" xmlns="http://www.w3.org/2000/svg">
  <g transform="matrix(0.395804, 0, 0, 0.395805, 150.731964, 63.925339)">
    <rect x="257.4" y="113.727" width="40.424" height="40.424" rx="5" ry="5" style="fill: rgb(247, 247, 247);"/>
    <path d="M 272.352 140.064 L 272.352 137.274 L 274.252 137.274 L 274.252 139.414 C 274.665 139.734 275.162 140.011 275.742 140.244 C 276.315 140.477 276.962 140.594 277.682 140.594 C 278.102 140.594 278.502 140.534 278.882 140.414 C 279.269 140.294 279.609 140.117 279.902 139.884 C 280.202 139.651 280.439 139.357 280.612 139.004 C 280.785 138.651 280.872 138.244 280.872 137.784 C 280.872 136.951 280.682 136.311 280.302 135.864 C 279.915 135.417 279.435 135.067 278.862 134.814 C 278.282 134.567 277.659 134.357 276.992 134.184 C 276.319 134.004 275.689 133.764 275.102 133.464 C 274.522 133.157 274.035 132.734 273.642 132.194 C 273.249 131.647 273.045 130.877 273.032 129.884 C 273.012 129.357 273.082 128.831 273.242 128.304 C 273.402 127.777 273.665 127.297 274.032 126.864 C 274.405 126.431 274.895 126.077 275.502 125.804 C 276.109 125.531 276.852 125.394 277.732 125.394 C 278.019 125.394 278.332 125.411 278.672 125.444 C 279.005 125.477 279.355 125.541 279.722 125.634 C 280.089 125.734 280.469 125.881 280.862 126.074 C 281.255 126.261 281.645 126.514 282.032 126.834 L 282.032 129.194 L 280.132 129.194 L 280.132 127.774 C 279.825 127.647 279.472 127.534 279.072 127.434 C 278.672 127.341 278.232 127.294 277.752 127.294 C 276.825 127.294 276.139 127.557 275.692 128.084 C 275.245 128.611 275.022 129.234 275.022 129.954 C 275.022 130.434 275.132 130.824 275.352 131.124 C 275.579 131.417 275.875 131.664 276.242 131.864 C 276.609 132.064 277.029 132.237 277.502 132.384 C 277.975 132.524 278.455 132.681 278.942 132.854 C 279.429 133.021 279.909 133.221 280.382 133.454 C 280.855 133.681 281.275 133.984 281.642 134.364 C 282.009 134.737 282.305 135.201 282.532 135.754 C 282.759 136.307 282.872 136.991 282.872 137.804 C 282.872 138.524 282.739 139.174 282.472 139.754 C 282.205 140.327 281.845 140.817 281.392 141.224 C 280.939 141.631 280.405 141.944 279.792 142.164 C 279.185 142.377 278.545 142.484 277.872 142.484 C 277.265 142.484 276.675 142.417 276.102 142.284 C 275.522 142.144 274.992 141.964 274.512 141.744 C 274.032 141.517 273.605 141.261 273.232 140.974 C 272.859 140.687 272.565 140.384 272.352 140.064 Z" style="white-space: pre; fill: rgb(239, 79, 92);"/>
  </g>
</svg>