<?xml version="1.0" encoding="utf-8"?>
<svg viewBox="252.612 108.939 16 16" width="16" height="16" xmlns="http://www.w3.org/2000/svg">
  <g transform="matrix(0.395804, 0, 0, 0.395805, 150.731964, 63.925339)">
    <rect x="257.4" y="113.727" width="40.424" height="40.424" rx="5" ry="5" style="fill: rgb(247, 247, 247);"/>
    <path d="M 264.317 127.054 L 264.317 125.154 L 270.127 125.154 L 270.127 127.054 L 268.397 127.054 C 269.15 128.794 269.89 130.537 270.617 132.284 C 271.344 134.024 272.084 135.767 272.837 137.514 L 273.057 138.304 C 273.244 137.584 273.477 136.867 273.757 136.154 C 274.037 135.447 274.334 134.737 274.647 134.024 C 274.96 133.311 275.28 132.601 275.607 131.894 C 275.934 131.194 276.244 130.501 276.537 129.814 C 276.344 129.347 276.147 128.887 275.947 128.434 C 275.747 127.974 275.55 127.514 275.357 127.054 L 273.147 127.054 L 273.147 125.154 L 278.957 125.154 L 278.957 127.054 L 277.347 127.054 C 278.1 128.794 278.84 130.537 279.567 132.284 C 280.294 134.024 281.034 135.767 281.787 137.514 L 282.007 138.304 L 282.217 137.514 C 282.97 135.767 283.71 134.027 284.437 132.294 C 285.17 130.561 285.904 128.814 286.637 127.054 L 285.097 127.054 L 285.097 125.154 L 290.907 125.154 L 290.907 127.054 L 288.657 127.054 C 287.55 129.694 286.44 132.304 285.327 134.884 C 284.214 137.471 283.107 140.084 282.007 142.724 L 277.757 132.714 L 277.517 131.874 C 277.29 132.767 277.004 133.674 276.657 134.594 C 276.304 135.514 275.917 136.431 275.497 137.344 C 275.084 138.257 274.664 139.167 274.237 140.074 C 273.817 140.974 273.424 141.857 273.057 142.724 C 271.95 140.084 270.84 137.471 269.727 134.884 C 268.614 132.304 267.507 129.694 266.407 127.054 L 264.317 127.054 Z" style="white-space: pre; fill: rgb(239, 79, 92);"/>
  </g>
</svg>